URWChanceryL-MediItal.ufo
<glyph name="exclam" format="1">
  <advance width="280"/>
  <unicode hex="0021"/>
  <outline>
    <contour>
      <point x="212" y="80" type="line"/>
      <point x="202" y="96" type="line" smooth="yes"/>
      <point x="199" y="101"/>
      <point x="192" y="112"/>
      <point x="183" y="128" type="curve"/>
      <point x="179" y="125"/>
      <point x="174" y="121"/>
      <point x="169" y="116" type="curve"/>
      <point x="161" y="110"/>
      <point x="153" y="103"/>
      <point x="145" y="96" type="curve"/>
      <point x="136" y="89" type="line"/>
      <point x="109" y="68" type="line"/>
      <point x="118" y="45"/>
      <point x="137" y="14"/>
      <point x="156" y="-9" type="curve"/>
      <point x="193" y="18"/>
      <point x="202" y="25"/>
      <point x="230" y="54" type="curve"/>
      <point x="227" y="58"/>
      <point x="223" y="64"/>
      <point x="220" y="69" type="curve"/>
    </contour>
    <contour>
      <point x="258" y="545" type="line"/>
      <point x="236" y="462"/>
      <point x="219" y="396"/>
      <point x="161" y="156" type="curve"/>
      <point x="182" y="168"/>
      <point x="183" y="168"/>
      <point x="216" y="189" type="curve"/>
      <point x="222" y="205"/>
      <point x="227" y="221"/>
      <point x="232" y="236" type="curve"/>
      <point x="242" y="261"/>
      <point x="251" y="288"/>
      <point x="259" y="318" type="curve"/>
      <point x="270" y="351"/>
      <point x="281" y="384"/>
      <point x="291" y="418" type="curve" smooth="yes"/>
      <point x="347" y="587" type="line"/>
      <point x="306" y="568" type="line"/>
    </contour>
  </outline>
</glyph>
<glyph name="quotedbl" format="1">
  <advance width="220"/>
  <unicode hex="0022"/>
  <outline>
    <contour>
      <point x="170" y="405" type="line"/>
      <point x="199" y="417" type="line"/>
      <point x="259" y="591" type="line"/>
      <point x="218" y="591" type="line"/>
    </contour>
    <contour>
      <point x="244" y="405" type="line"/>
      <point x="273" y="417" type="line"/>
      <point x="333" y="591" type="line"/>
      <point x="292" y="591" type="line"/>
    </contour>
  </outline>
</glyph>
<glyph name="numbersign" format="1">
  <advance width="440"/>
  <unicode hex="0023"/>
  <outline>
    <contour>
      <point x="215" y="40" type="line"/>
      <point x="260" y="186" type="line"/>
      <point x="364" y="194" type="line"/>
      <point x="357" y="177"/>
      <point x="352" y="161"/>
      <point x="350" y="158" type="curve"/>
      <point x="328" y="93" type="line"/>
      <point x="327" y="88"/>
      <point x="316" y="57"/>
      <point x="297" y="-1" type="curve"/>
      <point x="381" y="40" type="line"/>
      <point x="393" y="85"/>
      <point x="417" y="164"/>
      <point x="429" y="199" type="curve"/>
      <point x="520" y="206" type="line"/>
      <point x="546" y="238" type="line"/>
      <point x="441" y="238" type="line"/>
      <point x="449" y="265"/>
      <point x="449" y="266"/>
      <point x="461" y="302" type="curve" smooth="yes"/>
      <point x="482" y="372" type="line"/>
      <point x="570" y="379" type="line"/>
      <point x="596" y="412" type="line"/>
      <point x="496" y="412" type="line"/>
      <point x="501" y="425"/>
      <point x="510" y="452"/>
      <point x="523" y="491" type="curve" smooth="yes"/>
      <point x="534" y="525"/>
      <point x="545" y="556"/>
      <point x="551" y="575" type="curve"/>
      <point x="482" y="548" type="line"/>
      <point x="466" y="497"/>
      <point x="465" y="492"/>
      <point x="459" y="475" type="curve" smooth="yes"/>
      <point x="453" y="458"/>
      <point x="451" y="451"/>
      <point x="445" y="436" type="curve" smooth="yes"/>
      <point x="442" y="428"/>
      <point x="439" y="420"/>
      <point x="437" y="412" type="curve"/>
      <point x="330" y="410" type="line"/>
      <point x="357" y="488" type="line" smooth="yes"/>
      <point x="372" y="535"/>
      <point x="373" y="538"/>
      <point x="386" y="575" type="curve"/>
      <point x="318" y="548" type="line"/>
      <point x="293" y="472" type="line" smooth="yes"/>
      <point x="288" y="459"/>
      <point x="284" y="445"/>
      <point x="280" y="433" type="curve"/>
      <point x="279" y="429"/>
      <point x="275" y="419"/>
      <point x="272" y="408" type="curve"/>
      <point x="170" y="406" type="line"/>
      <point x="163" y="398"/>
      <point x="155" y="387"/>
      <point x="154" y="387" type="curve"/>
      <point x="140" y="368"/>
      <point x="129" y="354"/>
      <point x="122" y="343" type="curve"/>
      <point x="253" y="353" type="line"/>
      <point x="250" y="340"/>
      <point x="247" y="331"/>
      <point x="245" y="327" type="curve"/>
      <point x="240" y="314" type="line"/>
      <point x="236" y="300"/>
      <point x="230" y="283"/>
      <point x="223" y="262" type="curve"/>
      <point x="223" y="262"/>
      <point x="219" y="249"/>
      <point x="215" y="238" type="curve"/>
      <point x="110" y="238" type="line"/>
      <point x="92" y="215"/>
      <point x="85" y="205"/>
      <point x="63" y="170" type="curve"/>
      <point x="194" y="182" type="line"/>
      <point x="176" y="125"/>
      <point x="157" y="71"/>
      <point x="131" y="-1" type="curve"/>
    </contour>
    <contour>
      <point x="276" y="238" type="line"/>
      <point x="315" y="359" type="line"/>
      <point x="422" y="367" type="line"/>
      <point x="415" y="348"/>
      <point x="407" y="324"/>
      <point x="399" y="301" type="curve" smooth="yes"/>
      <point x="395" y="288"/>
      <point x="391" y="276"/>
      <point x="387" y="264" type="curve"/>
      <point x="385" y="256"/>
      <point x="381" y="246"/>
      <point x="378" y="238" type="curve"/>
    </contour>
  </outline>
</glyph>
<glyph name="dollar" format="1">
  <advance width="440"/>
  <unicode hex="0024"/>
  <outline>
    <contour>
      <point x="60" y="5" type="line"/>
      <point x="99" y="-8"/>
      <point x="127" y="-14"/>
      <point x="158" y="-14" type="curve" smooth="yes"/>
      <point x="166" y="-14"/>
      <point x="177" y="-13"/>
      <point x="191" y="-12" type="curve"/>
      <point x="176" y="-76"/>
      <point x="165" y="-119"/>
      <point x="158" y="-144" type="curve"/>
      <point x="165" y="-141"/>
      <point x="171" y="-139"/>
      <point x="173" y="-139" type="curve"/>
      <point x="188" y="-134" type="line"/>
      <point x="189" y="-133"/>
      <point x="194" y="-131"/>
      <point x="200" y="-129" type="curve"/>
      <point x="213" y="-65"/>
      <point x="222" y="-23"/>
      <point x="226" y="-5" type="curve"/>
      <point x="328" y="41"/>
      <point x="399" y="129"/>
      <point x="399" y="210" type="curve" smooth="yes"/>
      <point x="399" y="257"/>
      <point x="377" y="286"/>
      <point x="305" y="333" type="curve"/>
      <point x="355" y="535" type="line"/>
      <point x="378" y="534"/>
      <point x="400" y="519"/>
      <point x="419" y="491" type="curve"/>
      <point x="461" y="543" type="line"/>
      <point x="441" y="568"/>
      <point x="419" y="579"/>
      <point x="390" y="579" type="curve" smooth="yes"/>
      <point x="384" y="579"/>
      <point x="375" y="579"/>
      <point x="366" y="578" type="curve"/>
      <point x="374" y="613"/>
      <point x="374" y="613"/>
      <point x="390" y="675" type="curve"/>
      <point x="348" y="662" type="line"/>
      <point x="346" y="648"/>
      <point x="340" y="618"/>
      <point x="331" y="570" type="curve"/>
      <point x="242" y="540"/>
      <point x="176" y="459"/>
      <point x="176" y="381" type="curve" smooth="yes"/>
      <point x="176" y="354"/>
      <point x="188" y="328"/>
      <point x="209" y="306" type="curve" smooth="yes"/>
      <point x="221" y="294"/>
      <point x="228" y="288"/>
      <point x="259" y="263" type="curve"/>
      <point x="240" y="189"/>
      <point x="234" y="164"/>
      <point x="205" y="41" type="curve"/>
      <point x="167" y="43"/>
      <point x="139" y="50"/>
      <point x="107" y="67" type="curve"/>
    </contour>
    <contour>
      <point x="276" y="208" type="line"/>
      <point x="285" y="245" type="line"/>
      <point x="332" y="210"/>
      <point x="342" y="195"/>
      <point x="342" y="162" type="curve" smooth="yes"/>
      <point x="342" y="131"/>
      <point x="328" y="100"/>
      <point x="303" y="77" type="curve" smooth="yes"/>
      <point x="285" y="59"/>
      <point x="270" y="52"/>
      <point x="237" y="42" type="curve"/>
      <point x="262" y="148" type="line"/>
    </contour>
    <contour>
      <point x="280" y="348" type="curve"/>
      <point x="247" y="373"/>
      <point x="233" y="398"/>
      <point x="233" y="431" type="curve" smooth="yes"/>
      <point x="233" y="458"/>
      <point x="247" y="489"/>
      <point x="268" y="508" type="curve" smooth="yes"/>
      <point x="282" y="521"/>
      <point x="295" y="527"/>
      <point x="324" y="536" type="curve"/>
      <point x="321" y="521"/>
      <point x="318" y="511"/>
      <point x="318" y="508" type="curve"/>
      <point x="297" y="420" type="line" smooth="yes"/>
      <point x="291" y="396"/>
      <point x="286" y="373"/>
    </contour>
  </outline>
</glyph>
<glyph name="percent" format="1">
  <advance width="680"/>
  <unicode hex="0025"/>
  <outline>
    <contour>
      <point x="631" y="349" type="curve" smooth="yes"/>
      <point x="584" y="349"/>
      <point x="531" y="321"/>
      <point x="501" y="280" type="curve" smooth="yes"/>
      <point x="467" y="233"/>
      <point x="445" y="164"/>
      <point x="445" y="102" type="curve" smooth="yes"/>
      <point x="445" y="29"/>
      <point x="471" y="-7"/>
      <point x="523" y="-7" type="curve" smooth="yes"/>
      <point x="575" y="-7"/>
      <point x="621" y="22"/>
      <point x="651" y="73" type="curve" smooth="yes"/>
      <point x="680" y="123"/>
      <point x="701" y="201"/>
      <point x="701" y="262" type="curve" smooth="yes"/>
      <point x="701" y="318"/>
      <point x="676" y="349"/>
    </contour>
    <contour>
      <point x="598" y="317" type="curve" smooth="yes"/>
      <point x="627" y="317"/>
      <point x="644" y="289"/>
      <point x="644" y="241" type="curve" smooth="yes"/>
      <point x="644" y="130"/>
      <point x="599" y="20"/>
      <point x="553" y="20" type="curve" smooth="yes"/>
      <point x="522" y="20"/>
      <point x="502" y="55"/>
      <point x="502" y="108" type="curve" smooth="yes"/>
      <point x="502" y="147"/>
      <point x="511" y="198"/>
      <point x="524" y="237" type="curve" smooth="yes"/>
      <point x="542" y="291"/>
      <point x="566" y="317"/>
    </contour>
    <contour>
      <point x="231" y="0" type="curve"/>
      <point x="255" y="-1"/>
      <point x="261" y="-2"/>
      <point x="276" y="-4" type="curve"/>
      <point x="361" y="145"/>
      <point x="563" y="474"/>
      <point x="634" y="577" type="curve"/>
      <point x="617" y="579"/>
      <point x="610" y="580"/>
      <point x="591" y="584" type="curve"/>
      <point x="484" y="400"/>
      <point x="374" y="222"/>
    </contour>
    <contour>
      <point x="348" y="584" type="curve" smooth="yes"/>
      <point x="301" y="584"/>
      <point x="248" y="555"/>
      <point x="218" y="514" type="curve" smooth="yes"/>
      <point x="184" y="468"/>
      <point x="162" y="398"/>
      <point x="162" y="336" type="curve" smooth="yes"/>
      <point x="162" y="263"/>
      <point x="188" y="227"/>
      <point x="240" y="227" type="curve" smooth="yes"/>
      <point x="291" y="227"/>
      <point x="337" y="256"/>
      <point x="367" y="307" type="curve" smooth="yes"/>
      <point x="397" y="358"/>
      <point x="417" y="435"/>
      <point x="417" y="497" type="curve" smooth="yes"/>
      <point x="417" y="553"/>
      <point x="392" y="584"/>
    </contour>
    <contour>
      <point x="315" y="552" type="curve" smooth="yes"/>
      <point x="343" y="552"/>
      <point x="360" y="524"/>
      <point x="360" y="477" type="curve" smooth="yes"/>
      <point x="360" y="365"/>
      <point x="315" y="254"/>
      <point x="269" y="254" type="curve" smooth="yes"/>
      <point x="239" y="254"/>
      <point x="219" y="289"/>
      <point x="219" y="342" type="curve" smooth="yes"/>
      <point x="219" y="380"/>
      <point x="228" y="433"/>
      <point x="241" y="472" type="curve" smooth="yes"/>
      <point x="258" y="525"/>
      <point x="283" y="552"/>
    </contour>
  </outline>
</glyph>
<glyph name="ampersand" format="1">
  <advance width="780"/>
  <unicode hex="0026"/>
  <outline>
    <contour>
      <point x="836" y="499" type="line"/>
      <point x="829" y="468"/>
      <point x="812" y="423"/>
      <point x="802" y="406" type="curve" smooth="yes"/>
      <point x="788" y="383"/>
      <point x="784" y="382"/>
      <point x="702" y="379" type="curve"/>
      <point x="710" y="412" type="line"/>
      <point x="683" y="400"/>
      <point x="673" y="394"/>
      <point x="647" y="379" type="curve"/>
      <point x="638" y="378"/>
      <point x="633" y="378"/>
      <point x="630" y="378" type="curve"/>
      <point x="630" y="378"/>
      <point x="583" y="379"/>
      <point x="583" y="379" type="curve"/>
      <point x="500" y="379"/>
      <point x="477" y="348"/>
      <point x="423" y="166" type="curve"/>
      <point x="446" y="160" type="line"/>
      <point x="485" y="279"/>
      <point x="520" y="317"/>
      <point x="594" y="317" type="curve" smooth="yes"/>
      <point x="601" y="317"/>
      <point x="613" y="317"/>
      <point x="624" y="316" type="curve"/>
      <point x="607" y="231"/>
      <point x="591" y="184"/>
      <point x="563" y="141" type="curve" smooth="yes"/>
      <point x="521" y="75"/>
      <point x="443" y="35"/>
      <point x="354" y="35" type="curve" smooth="yes"/>
      <point x="261" y="35"/>
      <point x="198" y="83"/>
      <point x="198" y="154" type="curve" smooth="yes"/>
      <point x="198" y="190"/>
      <point x="214" y="211"/>
      <point x="267" y="244" type="curve" smooth="yes"/>
      <point x="402" y="329"/>
      <point x="471" y="372"/>
      <point x="474" y="375" type="curve"/>
      <point x="545" y="424"/>
      <point x="576" y="465"/>
      <point x="576" y="511" type="curve" smooth="yes"/>
      <point x="576" y="528"/>
      <point x="572" y="539"/>
      <point x="558" y="557" type="curve"/>
      <point x="487" y="515" type="line"/>
      <point x="496" y="493"/>
      <point x="499" y="482"/>
      <point x="499" y="468" type="curve" smooth="yes"/>
      <point x="499" y="427"/>
      <point x="479" y="403"/>
      <point x="417" y="367" type="curve"/>
      <point x="405" y="403"/>
      <point x="385" y="421"/>
      <point x="353" y="421" type="curve" smooth="yes"/>
      <point x="328" y="421"/>
      <point x="300" y="410"/>
      <point x="264" y="384" type="curve" smooth="yes"/>
      <point x="214" y="350"/>
      <point x="190" y="325"/>
      <point x="170" y="289" type="curve" smooth="yes"/>
      <point x="140" y="233"/>
      <point x="121" y="167"/>
      <point x="121" y="117" type="curve" smooth="yes"/>
      <point x="121" y="32"/>
      <point x="186" y="-17"/>
      <point x="299" y="-17" type="curve" smooth="yes"/>
      <point x="406" y="-17"/>
      <point x="505" y="28"/>
      <point x="589" y="116" type="curve" smooth="yes"/>
      <point x="644" y="173"/>
      <point x="662" y="208"/>
      <point x="692" y="316" type="curve"/>
      <point x="769" y="318"/>
      <point x="782" y="320"/>
      <point x="795" y="332" type="curve" smooth="yes"/>
      <point x="813" y="348"/>
      <point x="840" y="413"/>
      <point x="855" y="477" type="curve"/>
    </contour>
    <contour>
      <point x="200" y="238" type="line"/>
      <point x="214" y="286"/>
      <point x="219" y="299"/>
      <point x="232" y="320" type="curve" smooth="yes"/>
      <point x="253" y="353"/>
      <point x="282" y="374"/>
      <point x="305" y="374" type="curve" smooth="yes"/>
      <point x="328" y="374"/>
      <point x="341" y="359"/>
      <point x="348" y="324" type="curve"/>
    </contour>
  </outline>
</glyph>
<glyph name="quotesingle" format="1">
  <advance width="160"/>
  <unicode hex="0027"/>
  <outline>
    <contour>
      <point x="170" y="405" type="line"/>
      <point x="199" y="417" type="line"/>
      <point x="259" y="591" type="line"/>
      <point x="218" y="591" type="line"/>
    </contour>
  </outline>
</glyph>
<glyph name="parenleft" format="1">
  <advance width="260"/>
  <unicode hex="0028"/>
  <outline>
    <contour>
      <point x="404" y="663" type="line"/>
      <point x="401" y="665"/>
      <point x="400" y="666"/>
      <point x="395" y="668" type="curve"/>
      <point x="385" y="668" type="line"/>
      <point x="314" y="602"/>
      <point x="270" y="542"/>
      <point x="223" y="448" type="curve" smooth="yes"/>
      <point x="156" y="314"/>
      <point x="116" y="148"/>
      <point x="116" y="2" type="curve" smooth="yes"/>
      <point x="116" y="-60"/>
      <point x="126" y="-104"/>
      <point x="153" y="-165" type="curve"/>
      <point x="191" y="-157"/>
      <point x="197" y="-156"/>
      <point x="216" y="-148" type="curve"/>
      <point x="190" y="-70"/>
      <point x="182" y="-17"/>
      <point x="182" y="66" type="curve" smooth="yes"/>
      <point x="182" y="181"/>
      <point x="205" y="304"/>
      <point x="248" y="411" type="curve" smooth="yes"/>
      <point x="291" y="520"/>
      <point x="334" y="585"/>
      <point x="412" y="659" type="curve"/>
    </contour>
  </outline>
</glyph>
<glyph name="parenright" format="1">
  <advance width="220"/>
  <unicode hex="0029"/>
  <outline>
    <contour>
      <point x="28" y="-163" type="line"/>
      <point x="29" y="-164"/>
      <point x="31" y="-165"/>
      <point x="34" y="-166" type="curve"/>
      <point x="44" y="-166" type="line"/>
      <point x="114" y="-101"/>
      <point x="158" y="-41"/>
      <point x="206" y="54" type="curve" smooth="yes"/>
      <point x="273" y="187"/>
      <point x="313" y="355"/>
      <point x="313" y="499" type="curve" smooth="yes"/>
      <point x="313" y="559"/>
      <point x="303" y="604"/>
      <point x="277" y="667" type="curve"/>
      <point x="239" y="659"/>
      <point x="233" y="657"/>
      <point x="213" y="650" type="curve"/>
      <point x="239" y="571"/>
      <point x="247" y="520"/>
      <point x="247" y="438" type="curve" smooth="yes"/>
      <point x="247" y="321"/>
      <point x="224" y="198"/>
      <point x="181" y="91" type="curve" smooth="yes"/>
      <point x="137" y="-19"/>
      <point x="94" y="-84"/>
      <point x="17" y="-157" type="curve"/>
      <point x="20" y="-158"/>
      <point x="22" y="-160"/>
      <point x="23" y="-160" type="curve"/>
    </contour>
  </outline>
</glyph>
<glyph name="asterisk" format="1">
  <advance width="420"/>
  <unicode hex="002A"/>
  <outline>
    <contour>
      <point x="220" y="471" type="line"/>
      <point x="239" y="441" type="line"/>
      <point x="337" y="496" type="line"/>
      <point x="343" y="490" type="line"/>
      <point x="304" y="377" type="line"/>
      <point x="348" y="377" type="line"/>
      <point x="375" y="489" type="line"/>
      <point x="386" y="493" type="line"/>
      <point x="446" y="423" type="line"/>
      <point x="480" y="452" type="line"/>
      <point x="406" y="519" type="line"/>
      <point x="409" y="532" type="line"/>
      <point x="512" y="579" type="line"/>
      <point x="498" y="612" type="line"/>
      <point x="404" y="562" type="line"/>
      <point x="397" y="569" type="line"/>
      <point x="432" y="677" type="line"/>
      <point x="389" y="677" type="line"/>
      <point x="364" y="568" type="line"/>
      <point x="355" y="565" type="line"/>
      <point x="295" y="633" type="line"/>
      <point x="263" y="603" type="line"/>
      <point x="332" y="541" type="line"/>
      <point x="325" y="519" type="line"/>
    </contour>
  </outline>
</glyph>
<glyph name="plus" format="1">
  <advance width="520"/>
  <unicode hex="002B"/>
  <outline>
    <contour>
      <point x="335" y="192" type="line"/>
      <point x="513" y="192" type="line"/>
      <point x="513" y="246" type="line"/>
      <point x="335" y="246" type="line"/>
      <point x="335" y="424" type="line"/>
      <point x="281" y="424" type="line"/>
      <point x="281" y="246" type="line"/>
      <point x="103" y="246" type="line"/>
      <point x="103" y="192" type="line"/>
      <point x="281" y="192" type="line"/>
      <point x="281" y="14" type="line"/>
      <point x="335" y="14" type="line"/>
    </contour>
  </outline>
</glyph>
<glyph name="comma" format="1">
  <advance width="220"/>
  <unicode hex="002C"/>
  <outline>
    <contour>
      <point x="57" y="-98" type="line"/>
      <point x="174" y="3"/>
      <point x="192" y="33"/>
      <point x="215" y="173" type="curve"/>
      <point x="179" y="162"/>
      <point x="178" y="161"/>
      <point x="143" y="151" type="curve"/>
      <point x="134" y="39"/>
      <point x="106" y="-19"/>
      <point x="30" y="-87" type="curve"/>
    </contour>
  </outline>
</glyph>
<glyph name="hyphen" format="1">
  <advance width="280"/>
  <unicode hex="002D"/>
  <outline>
    <contour>
      <point x="124" y="173" type="line"/>
      <point x="124" y="173"/>
      <point x="212" y="175"/>
      <point x="212" y="175" type="curve"/>
      <point x="221" y="175"/>
      <point x="229" y="175"/>
      <point x="255" y="173" type="curve"/>
      <point x="269" y="196"/>
      <point x="284" y="217"/>
      <point x="300" y="236" type="curve"/>
      <point x="300" y="236"/>
      <point x="209" y="237"/>
      <point x="209" y="237" type="curve"/>
      <point x="195" y="237"/>
      <point x="186" y="237"/>
      <point x="163" y="236" type="curve"/>
      <point x="149" y="222"/>
      <point x="132" y="200"/>
      <point x="115" y="173" type="curve"/>
    </contour>
  </outline>
</glyph>
<glyph name="period" format="1">
  <advance width="220"/>
  <unicode hex="002E"/>
  <outline>
    <contour>
      <point x="134" y="89" type="line"/>
      <point x="107" y="68" type="line"/>
      <point x="115" y="46"/>
      <point x="135" y="14"/>
      <point x="154" y="-9" type="curve"/>
      <point x="192" y="19"/>
      <point x="201" y="26"/>
      <point x="228" y="54" type="curve"/>
      <point x="216" y="71"/>
      <point x="206" y="87"/>
      <point x="205" y="88" type="curve"/>
      <point x="198" y="99"/>
      <point x="193" y="107"/>
      <point x="181" y="128" type="curve"/>
      <point x="178" y="125"/>
      <point x="173" y="121"/>
      <point x="167" y="116" type="curve"/>
      <point x="159" y="110"/>
      <point x="151" y="103"/>
      <point x="143" y="96" type="curve"/>
    </contour>
  </outline>
</glyph>
<glyph name="slash" format="1">
  <advance width="340"/>
  <unicode hex="002F"/>
  <outline>
    <contour>
      <point x="18" y="-169" type="line"/>
      <point x="27" y="-169"/>
      <point x="28" y="-169"/>
      <point x="39" y="-170" type="curve"/>
      <point x="371" y="407"/>
      <point x="501" y="629"/>
      <point x="535" y="675" type="curve"/>
      <point x="529" y="675"/>
      <point x="522" y="676"/>
      <point x="522" y="676" type="curve"/>
      <point x="505" y="677" type="line"/>
      <point x="503" y="677"/>
      <point x="499" y="678"/>
      <point x="492" y="679" type="curve"/>
      <point x="432" y="568"/>
      <point x="421" y="549"/>
      <point x="109" y="19" type="curve" smooth="yes"/>
      <point x="-6" y="-167" type="line"/>
    </contour>
  </outline>
</glyph>
<glyph name="zero" format="1">
  <advance width="440"/>
  <unicode hex="0030"/>
  <outline>
    <contour>
      <point x="380" y="576" type="curve" smooth="yes"/>
      <point x="308" y="576"/>
      <point x="227" y="526"/>
      <point x="178" y="452" type="curve" smooth="yes"/>
      <point x="131" y="380"/>
      <point x="94" y="251"/>
      <point x="94" y="157" type="curve" smooth="yes"/>
      <point x="94" y="49"/>
      <point x="134" y="-7"/>
      <point x="210" y="-7" type="curve" smooth="yes"/>
      <point x="296" y="-7"/>
      <point x="374" y="46"/>
      <point x="420" y="136" type="curve" smooth="yes"/>
      <point x="460" y="212"/>
      <point x="489" y="332"/>
      <point x="489" y="416" type="curve" smooth="yes"/>
      <point x="489" y="522"/>
      <point x="452" y="576"/>
    </contour>
    <contour>
      <point x="331" y="534" type="curve" smooth="yes"/>
      <point x="376" y="534"/>
      <point x="402" y="481"/>
      <point x="402" y="385" type="curve" smooth="yes"/>
      <point x="402" y="305"/>
      <point x="381" y="202"/>
      <point x="349" y="125" type="curve" smooth="yes"/>
      <point x="324" y="64"/>
      <point x="291" y="30"/>
      <point x="257" y="30" type="curve" smooth="yes"/>
      <point x="213" y="30"/>
      <point x="181" y="87"/>
      <point x="181" y="167" type="curve" smooth="yes"/>
      <point x="181" y="222"/>
      <point x="200" y="334"/>
      <point x="220" y="399" type="curve" smooth="yes"/>
      <point x="247" y="489"/>
      <point x="285" y="534"/>
    </contour>
  </outline>
</glyph>
<glyph name="one" format="1">
  <advance width="440"/>
  <unicode hex="0031"/>
  <outline>
    <contour>
      <point x="82" y="0" type="line"/>
      <point x="145" y="0" type="line"/>
      <point x="145" y="0"/>
      <point x="254" y="1"/>
      <point x="254" y="1" type="curve"/>
      <point x="254" y="1"/>
      <point x="369" y="0"/>
      <point x="369" y="0" type="curve"/>
      <point x="410" y="0" type="line"/>
      <point x="434" y="27" type="line"/>
      <point x="404" y="28"/>
      <point x="350" y="34"/>
      <point x="331" y="38" type="curve" smooth="yes"/>
      <point x="315" y="42"/>
      <point x="305" y="53"/>
      <point x="305" y="68" type="curve" smooth="yes"/>
      <point x="305" y="79"/>
      <point x="307" y="94"/>
      <point x="312" y="110" type="curve"/>
      <point x="315" y="122"/>
      <point x="325" y="168"/>
      <point x="340" y="238" type="curve" smooth="yes"/>
      <point x="383" y="427"/>
      <point x="406" y="522"/>
      <point x="422" y="582" type="curve"/>
      <point x="388" y="564" type="line" smooth="yes"/>
      <point x="319" y="527"/>
      <point x="317" y="526"/>
      <point x="285" y="511" type="curve" smooth="yes"/>
      <point x="266" y="502"/>
      <point x="233" y="488"/>
      <point x="187" y="467" type="curve"/>
      <point x="217" y="452" type="line"/>
      <point x="241" y="460"/>
      <point x="253" y="465"/>
      <point x="271" y="472" type="curve" smooth="yes"/>
      <point x="301" y="484" type="line"/>
      <point x="305" y="486"/>
      <point x="314" y="489"/>
      <point x="329" y="494" type="curve"/>
      <point x="234" y="85" type="line" smooth="yes"/>
      <point x="224" y="43"/>
      <point x="223" y="41"/>
      <point x="191" y="37" type="curve" smooth="yes"/>
      <point x="149" y="32"/>
      <point x="122" y="29"/>
      <point x="111" y="27" type="curve"/>
    </contour>
  </outline>
</glyph>
<glyph name="two" format="1">
  <advance width="440"/>
  <unicode hex="0032"/>
  <outline>
    <contour>
      <point x="51" y="-17" type="line"/>
      <point x="94" y="30"/>
      <point x="106" y="38"/>
      <point x="131" y="38" type="curve" smooth="yes"/>
      <point x="141" y="38"/>
      <point x="154" y="36"/>
      <point x="170" y="32" type="curve" smooth="yes"/>
      <point x="244" y="15"/>
      <point x="342" y="-3"/>
      <point x="358" y="-3" type="curve" smooth="yes"/>
      <point x="366" y="-3"/>
      <point x="371" y="-2"/>
      <point x="381" y="2" type="curve"/>
      <point x="469" y="134" type="line"/>
      <point x="461" y="157" type="line"/>
      <point x="397" y="76"/>
      <point x="390" y="69"/>
      <point x="363" y="69" type="curve" smooth="yes"/>
      <point x="358" y="69"/>
      <point x="351" y="70"/>
      <point x="342" y="72" type="curve" smooth="yes"/>
      <point x="273" y="84"/>
      <point x="213" y="93"/>
      <point x="163" y="101" type="curve"/>
      <point x="286" y="215" type="line"/>
      <point x="375" y="298" type="line"/>
      <point x="425" y="345" type="line"/>
      <point x="454" y="389"/>
      <point x="466" y="423"/>
      <point x="466" y="467" type="curve" smooth="yes"/>
      <point x="466" y="531"/>
      <point x="425" y="572"/>
      <point x="363" y="572" type="curve" smooth="yes"/>
      <point x="312" y="572"/>
      <point x="259" y="553"/>
      <point x="218" y="519" type="curve" smooth="yes"/>
      <point x="182" y="491"/>
      <point x="163" y="455"/>
      <point x="163" y="414" type="curve" smooth="yes"/>
      <point x="163" y="406"/>
      <point x="164" y="401"/>
      <point x="166" y="390" type="curve"/>
      <point x="237" y="382" type="line"/>
      <point x="228" y="409"/>
      <point x="225" y="423"/>
      <point x="225" y="441" type="curve" smooth="yes"/>
      <point x="225" y="496"/>
      <point x="258" y="532"/>
      <point x="308" y="532" type="curve" smooth="yes"/>
      <point x="355" y="532"/>
      <point x="389" y="491"/>
      <point x="389" y="434" type="curve" smooth="yes"/>
      <point x="389" y="403"/>
      <point x="379" y="368"/>
      <point x="363" y="343" type="curve" smooth="yes"/>
      <point x="342" y="309"/>
      <point x="317" y="282"/>
      <point x="240" y="210" type="curve" smooth="yes"/>
      <point x="111" y="89"/>
      <point x="96" y="74"/>
      <point x="47" y="12" type="curve"/>
    </contour>
  </outline>
</glyph>
<glyph name="three" format="1">
  <advance width="440"/>
  <unicode hex="0033"/>
  <outline>
    <contour>
      <point x="36" y="26" type="line"/>
      <point x="78" y="3"/>
      <point x="111" y="-6"/>
      <point x="154" y="-6" type="curve" smooth="yes"/>
      <point x="297" y="-6"/>
      <point x="445" y="130"/>
      <point x="445" y="260" type="curve" smooth="yes"/>
      <point x="445" y="291"/>
      <point x="431" y="319"/>
      <point x="408" y="335" type="curve" smooth="yes"/>
      <point x="392" y="346"/>
      <point x="377" y="351"/>
      <point x="342" y="356" type="curve"/>
      <point x="420" y="414" type="line"/>
      <point x="447" y="447"/>
      <point x="458" y="473"/>
      <point x="458" y="503" type="curve" smooth="yes"/>
      <point x="458" y="546"/>
      <point x="424" y="575"/>
      <point x="374" y="575" type="curve" smooth="yes"/>
      <point x="360" y="575"/>
      <point x="348" y="573"/>
      <point x="322" y="566" type="curve"/>
      <point x="310" y="559"/>
      <point x="298" y="552"/>
      <point x="294" y="550" type="curve"/>
      <point x="252" y="521" type="line" smooth="yes"/>
      <point x="248" y="518"/>
      <point x="236" y="510"/>
      <point x="223" y="501" type="curve"/>
      <point x="223" y="476" type="line"/>
      <point x="261" y="502"/>
      <point x="301" y="518"/>
      <point x="325" y="518" type="curve" smooth="yes"/>
      <point x="357" y="518"/>
      <point x="381" y="493"/>
      <point x="381" y="459" type="curve" smooth="yes"/>
      <point x="381" y="398"/>
      <point x="322" y="350"/>
      <point x="183" y="297" type="curve"/>
      <point x="180" y="271" type="line"/>
      <point x="259" y="301"/>
      <point x="263" y="302"/>
      <point x="284" y="302" type="curve" smooth="yes"/>
      <point x="333" y="302"/>
      <point x="368" y="262"/>
      <point x="368" y="206" type="curve" smooth="yes"/>
      <point x="368" y="114"/>
      <point x="298" y="38"/>
      <point x="212" y="38" type="curve" smooth="yes"/>
      <point x="176" y="38"/>
      <point x="157" y="44"/>
      <point x="82" y="77" type="curve"/>
    </contour>
  </outline>
</glyph>
<glyph name="four" format="1">
  <advance width="440"/>
  <unicode hex="0034"/>
  <outline>
    <contour>
      <point x="243" y="-14" type="line"/>
      <point x="252" y="-21"/>
      <point x="254" y="-23"/>
      <point x="264" y="-25" type="curve"/>
      <point x="292" y="-13"/>
      <point x="325" y="-1"/>
      <point x="347" y="5" type="curve"/>
      <point x="349" y="12" type="line"/>
      <point x="340" y="27"/>
      <point x="338" y="35"/>
      <point x="338" y="49" type="curve" smooth="yes"/>
      <point x="338" y="70"/>
      <point x="342" y="92"/>
      <point x="355" y="152" type="curve"/>
      <point x="373" y="152" type="line"/>
      <point x="397" y="152" type="line"/>
      <point x="413" y="152" type="line"/>
      <point x="450" y="204" type="line"/>
      <point x="434" y="203"/>
      <point x="422" y="203"/>
      <point x="414" y="203" type="curve" smooth="yes"/>
      <point x="409" y="203"/>
      <point x="409" y="203"/>
      <point x="367" y="204" type="curve"/>
      <point x="377" y="246"/>
      <point x="394" y="323"/>
      <point x="419" y="434" type="curve" smooth="yes"/>
      <point x="439" y="526"/>
      <point x="442" y="539"/>
      <point x="455" y="585" type="curve"/>
      <point x="437" y="577"/>
      <point x="414" y="566"/>
      <point x="385" y="551" type="curve"/>
      <point x="377" y="541"/>
      <point x="369" y="532"/>
      <point x="361" y="523" type="curve" smooth="yes"/>
      <point x="283" y="435" type="line" smooth="yes"/>
      <point x="259" y="408"/>
      <point x="231" y="375"/>
      <point x="200" y="336" type="curve" smooth="yes"/>
      <point x="117" y="234" type="line" smooth="yes"/>
      <point x="90" y="200"/>
      <point x="87" y="195"/>
      <point x="69" y="155" type="curve"/>
      <point x="95" y="154"/>
      <point x="224" y="151"/>
      <point x="250" y="151" type="curve" smooth="yes"/>
      <point x="256" y="151"/>
      <point x="266" y="151"/>
      <point x="285" y="152" type="curve"/>
    </contour>
    <contour>
      <point x="271" y="204" type="line"/>
      <point x="222" y="205" type="line" smooth="yes"/>
      <point x="213" y="205"/>
      <point x="194" y="206"/>
      <point x="171" y="207" type="curve" smooth="yes"/>
      <point x="139" y="208" type="line"/>
      <point x="176" y="260"/>
      <point x="193" y="280"/>
      <point x="365" y="488" type="curve"/>
      <point x="298" y="204" type="line"/>
    </contour>
  </outline>
</glyph>
<glyph name="five" format="1">
  <advance width="440"/>
  <unicode hex="0035"/>
  <outline>
    <contour>
      <point x="67" y="10" type="line"/>
      <point x="101" y="-2"/>
      <point x="132" y="-8"/>
      <point x="165" y="-8" type="curve" smooth="yes"/>
      <point x="224" y="-8"/>
      <point x="283" y="18"/>
      <point x="346" y="71" type="curve" smooth="yes"/>
      <point x="410" y="125"/>
      <point x="442" y="181"/>
      <point x="442" y="240" type="curve" smooth="yes"/>
      <point x="442" y="320"/>
      <point x="386" y="370"/>
      <point x="298" y="370" type="curve" smooth="yes"/>
      <point x="278" y="370"/>
      <point x="264" y="368"/>
      <point x="236" y="362" type="curve"/>
      <point x="252" y="396"/>
      <point x="261" y="417"/>
      <point x="266" y="430" type="curve"/>
      <point x="272" y="443"/>
      <point x="277" y="455"/>
      <point x="282" y="468" type="curve" smooth="yes"/>
      <point x="283" y="471"/>
      <point x="289" y="485"/>
      <point x="292" y="492" type="curve"/>
      <point x="324" y="489"/>
      <point x="338" y="488"/>
      <point x="364" y="488" type="curve" smooth="yes"/>
      <point x="430" y="488"/>
      <point x="455" y="496"/>
      <point x="486" y="528" type="curve" smooth="yes"/>
      <point x="508" y="550"/>
      <point x="539" y="584"/>
      <point x="556" y="603" type="curve"/>
      <point x="565" y="640" type="line"/>
      <point x="495" y="575"/>
      <point x="464" y="560"/>
      <point x="394" y="560" type="curve" smooth="yes"/>
      <point x="363" y="560"/>
      <point x="320" y="563"/>
      <point x="274" y="569" type="curve"/>
      <point x="251" y="497"/>
      <point x="244" y="479"/>
      <point x="170" y="293" type="curve"/>
      <point x="180" y="283" type="line"/>
      <point x="213" y="301"/>
      <point x="235" y="308"/>
      <point x="261" y="308" type="curve" smooth="yes"/>
      <point x="320" y="308"/>
      <point x="365" y="263"/>
      <point x="365" y="204" type="curve" smooth="yes"/>
      <point x="365" y="111"/>
      <point x="300" y="44"/>
      <point x="211" y="44" type="curve" smooth="yes"/>
      <point x="179" y="44"/>
      <point x="155" y="50"/>
      <point x="116" y="69" type="curve"/>
    </contour>
  </outline>
</glyph>
<glyph name="six" format="1">
  <advance width="440"/>
  <unicode hex="0036"/>
  <outline>
    <contour>
      <point x="532" y="571" type="line"/>
      <point x="504" y="582"/>
      <point x="490" y="585"/>
      <point x="466" y="585" type="curve" smooth="yes"/>
      <point x="386" y="585"/>
      <point x="307" y="545"/>
      <point x="236" y="470" type="curve" smooth="yes"/>
      <point x="152" y="380"/>
      <point x="95" y="246"/>
      <point x="95" y="138" type="curve" smooth="yes"/>
      <point x="95" y="46"/>
      <point x="139" y="-8"/>
      <point x="213" y="-8" type="curve" smooth="yes"/>
      <point x="339" y="-8"/>
      <point x="458" y="90"/>
      <point x="458" y="194" type="curve" smooth="yes"/>
      <point x="458" y="265"/>
      <point x="409" y="314"/>
      <point x="340" y="314" type="curve" smooth="yes"/>
      <point x="316" y="314"/>
      <point x="296" y="310"/>
      <point x="269" y="299" type="curve"/>
      <point x="240" y="282" type="line"/>
      <point x="211" y="264" type="line" smooth="yes"/>
      <point x="206" y="261"/>
      <point x="195" y="255"/>
      <point x="179" y="246" type="curve"/>
      <point x="195" y="324"/>
      <point x="212" y="370"/>
      <point x="240" y="418" type="curve" smooth="yes"/>
      <point x="286" y="495"/>
      <point x="352" y="543"/>
      <point x="413" y="543" type="curve" smooth="yes"/>
      <point x="440" y="543"/>
      <point x="462" y="535"/>
      <point x="489" y="515" type="curve"/>
    </contour>
    <contour>
      <point x="176" y="212" type="curve"/>
      <point x="223" y="245"/>
      <point x="252" y="257"/>
      <point x="288" y="257" type="curve" smooth="yes"/>
      <point x="342" y="257"/>
      <point x="381" y="213"/>
      <point x="381" y="153" type="curve" smooth="yes"/>
      <point x="381" y="88"/>
      <point x="330" y="31"/>
      <point x="272" y="31" type="curve" smooth="yes"/>
      <point x="210" y="31"/>
      <point x="172" y="83"/>
      <point x="172" y="167" type="curve" smooth="yes"/>
      <point x="172" y="181"/>
      <point x="173" y="192"/>
    </contour>
  </outline>
</glyph>
<glyph name="seven" format="1">
  <advance width="440"/>
  <unicode hex="0037"/>
  <outline>
    <contour>
      <point x="259" y="10" type="line"/>
      <point x="254" y="42"/>
      <point x="252" y="57"/>
      <point x="252" y="76" type="curve" smooth="yes"/>
      <point x="252" y="158"/>
      <point x="279" y="205"/>
      <point x="462" y="445" type="curve" smooth="yes"/>
      <point x="505" y="502"/>
      <point x="510" y="510"/>
      <point x="541" y="557" type="curve"/>
      <point x="490" y="553"/>
      <point x="434" y="552"/>
      <point x="365" y="552" type="curve" smooth="yes"/>
      <point x="256" y="552"/>
      <point x="255" y="552"/>
      <point x="250" y="611" type="curve"/>
      <point x="235" y="611" type="line"/>
      <point x="225" y="585" type="line" smooth="yes"/>
      <point x="206" y="533"/>
      <point x="205" y="532"/>
      <point x="192" y="492" type="curve"/>
      <point x="195" y="486" type="line"/>
      <point x="229" y="484"/>
      <point x="245" y="483"/>
      <point x="271" y="483" type="curve" smooth="yes"/>
      <point x="321" y="483"/>
      <point x="385" y="486"/>
      <point x="467" y="492" type="curve"/>
      <point x="273" y="253"/>
      <point x="232" y="197"/>
      <point x="172" y="89" type="curve"/>
      <point x="166" y="68"/>
      <point x="165" y="57"/>
      <point x="165" y="38" type="curve" smooth="yes"/>
      <point x="165" y="23"/>
      <point x="166" y="10"/>
      <point x="169" y="-18" type="curve"/>
    </contour>
  </outline>
</glyph>
<glyph name="eight" format="1">
  <advance width="440"/>
  <unicode hex="0038"/>
  <outline>
    <contour>
      <point x="251" y="298" type="curve"/>
      <point x="211" y="273"/>
      <point x="210" y="272"/>
      <point x="140" y="233" type="curve"/>
      <point x="95" y="188"/>
      <point x="75" y="144"/>
      <point x="75" y="92" type="curve" smooth="yes"/>
      <point x="75" y="32"/>
      <point x="120" y="-10"/>
      <point x="183" y="-10" type="curve" smooth="yes"/>
      <point x="233" y="-10"/>
      <point x="304" y="14"/>
      <point x="354" y="48" type="curve" smooth="yes"/>
      <point x="405" y="83"/>
      <point x="438" y="141"/>
      <point x="438" y="197" type="curve" smooth="yes"/>
      <point x="438" y="217"/>
      <point x="432" y="235"/>
      <point x="420" y="253" type="curve" smooth="yes"/>
      <point x="410" y="269"/>
      <point x="407" y="271"/>
      <point x="362" y="307" type="curve"/>
      <point x="359" y="309"/>
      <point x="350" y="317"/>
      <point x="340" y="325" type="curve"/>
      <point x="379" y="347"/>
      <point x="389" y="352"/>
      <point x="441" y="388" type="curve"/>
      <point x="481" y="432"/>
      <point x="494" y="459"/>
      <point x="494" y="494" type="curve" smooth="yes"/>
      <point x="494" y="540"/>
      <point x="458" y="572"/>
      <point x="406" y="572" type="curve" smooth="yes"/>
      <point x="300" y="572"/>
      <point x="202" y="492"/>
      <point x="202" y="406" type="curve" smooth="yes"/>
      <point x="202" y="369"/>
      <point x="215" y="340"/>
    </contour>
    <contour>
      <point x="271" y="280" type="curve"/>
      <point x="301" y="251"/>
      <point x="305" y="247"/>
      <point x="315" y="236" type="curve" smooth="yes"/>
      <point x="341" y="210"/>
      <point x="351" y="186"/>
      <point x="351" y="153" type="curve" smooth="yes"/>
      <point x="351" y="89"/>
      <point x="295" y="27"/>
      <point x="237" y="27" type="curve" smooth="yes"/>
      <point x="191" y="27"/>
      <point x="162" y="65"/>
      <point x="162" y="124" type="curve" smooth="yes"/>
      <point x="162" y="184"/>
      <point x="192" y="233"/>
      <point x="248" y="267" type="curve"/>
      <point x="254" y="270"/>
      <point x="260" y="273"/>
    </contour>
    <contour>
      <point x="320" y="341" type="curve"/>
      <point x="293" y="371"/>
      <point x="279" y="402"/>
      <point x="279" y="436" type="curve" smooth="yes"/>
      <point x="279" y="492"/>
      <point x="319" y="540"/>
      <point x="365" y="540" type="curve" smooth="yes"/>
      <point x="396" y="540"/>
      <point x="417" y="514"/>
      <point x="417" y="478" type="curve" smooth="yes"/>
      <point x="417" y="423"/>
      <point x="381" y="373"/>
    </contour>
  </outline>
</glyph>
<glyph name="nine" format="1">
  <advance width="440"/>
  <unicode hex="0039"/>
  <outline>
    <contour>
      <point x="42" y="15" type="line"/>
      <point x="78" y="-2"/>
      <point x="104" y="-8"/>
      <point x="138" y="-8" type="curve" smooth="yes"/>
      <point x="228" y="-8"/>
      <point x="335" y="55"/>
      <point x="396" y="144" type="curve" smooth="yes"/>
      <point x="444" y="213"/>
      <point x="480" y="334"/>
      <point x="480" y="426" type="curve" smooth="yes"/>
      <point x="480" y="521"/>
      <point x="441" y="576"/>
      <point x="374" y="576" type="curve" smooth="yes"/>
      <point x="324" y="576"/>
      <point x="263" y="553"/>
      <point x="211" y="515" type="curve" smooth="yes"/>
      <point x="154" y="472"/>
      <point x="124" y="420"/>
      <point x="124" y="364" type="curve" smooth="yes"/>
      <point x="124" y="292"/>
      <point x="172" y="242"/>
      <point x="239" y="242" type="curve" smooth="yes"/>
      <point x="275" y="242"/>
      <point x="296" y="251"/>
      <point x="396" y="312" type="curve"/>
      <point x="383" y="236"/>
      <point x="372" y="198"/>
      <point x="352" y="158" type="curve" smooth="yes"/>
      <point x="312" y="81"/>
      <point x="254" y="36"/>
      <point x="193" y="36" type="curve" smooth="yes"/>
      <point x="162" y="36"/>
      <point x="135" y="44"/>
      <point x="90" y="68" type="curve"/>
    </contour>
    <contour>
      <point x="400" y="349" type="curve"/>
      <point x="360" y="317"/>
      <point x="319" y="299"/>
      <point x="285" y="299" type="curve" smooth="yes"/>
      <point x="237" y="299"/>
      <point x="201" y="343"/>
      <point x="201" y="402" type="curve" smooth="yes"/>
      <point x="201" y="476"/>
      <point x="245" y="529"/>
      <point x="308" y="529" type="curve" smooth="yes"/>
      <point x="366" y="529"/>
      <point x="403" y="479"/>
      <point x="403" y="400" type="curve" smooth="yes"/>
      <point x="403" y="388"/>
      <point x="402" y="374"/>
    </contour>
  </outline>
</glyph>
<glyph name="colon" format="1">
  <advance width="260"/>
  <unicode hex="003A"/>
  <outline>
    <contour>
      <point x="215" y="272" type="line"/>
      <point x="221" y="277"/>
      <point x="226" y="281"/>
      <point x="229" y="283" type="curve"/>
      <point x="247" y="298"/>
      <point x="258" y="307"/>
      <point x="262" y="310" type="curve" smooth="yes"/>
      <point x="289" y="331" type="line"/>
      <point x="280" y="355"/>
      <point x="262" y="384"/>
      <point x="242" y="408" type="curve"/>
      <point x="208" y="385"/>
      <point x="193" y="373"/>
      <point x="165" y="346" type="curve"/>
      <point x="169" y="340"/>
      <point x="175" y="331"/>
      <point x="176" y="330" type="curve"/>
      <point x="181" y="324"/>
      <point x="185" y="318"/>
      <point x="189" y="312" type="curve"/>
      <point x="190" y="311"/>
      <point x="196" y="301"/>
      <point x="203" y="292" type="curve"/>
    </contour>
    <contour>
      <point x="98" y="68" type="curve"/>
      <point x="106" y="46"/>
      <point x="126" y="14"/>
      <point x="145" y="-9" type="curve"/>
      <point x="183" y="18"/>
      <point x="193" y="26"/>
      <point x="222" y="54" type="curve"/>
      <point x="219" y="59"/>
      <point x="215" y="64"/>
      <point x="211" y="69" type="curve" smooth="yes"/>
      <point x="208" y="73"/>
      <point x="206" y="77"/>
      <point x="203" y="80" type="curve"/>
      <point x="198" y="88"/>
      <point x="197" y="89"/>
      <point x="192" y="96" type="curve"/>
      <point x="172" y="128" type="line"/>
      <point x="165" y="122"/>
      <point x="160" y="118"/>
      <point x="158" y="116" type="curve"/>
      <point x="140" y="102"/>
      <point x="129" y="93"/>
      <point x="125" y="89" type="curve"/>
      <point x="117" y="83"/>
      <point x="104" y="73"/>
    </contour>
  </outline>
</glyph>
<glyph name="semicolon" format="1">
  <advance width="240"/>
  <unicode hex="003B"/>
  <outline>
    <contour>
      <point x="277" y="331" type="curve"/>
      <point x="268" y="355"/>
      <point x="250" y="385"/>
      <point x="230" y="408" type="curve"/>
      <point x="197" y="385"/>
      <point x="184" y="374"/>
      <point x="156" y="346" type="curve"/>
      <point x="161" y="339"/>
      <point x="164" y="334"/>
      <point x="167" y="330" type="curve"/>
      <point x="184" y="304" type="line"/>
      <point x="187" y="298"/>
      <point x="187" y="298"/>
      <point x="203" y="272" type="curve"/>
      <point x="207" y="276"/>
      <point x="212" y="279"/>
      <point x="217" y="283" type="curve" smooth="yes"/>
      <point x="235" y="298"/>
      <point x="246" y="307"/>
      <point x="250" y="310" type="curve"/>
      <point x="259" y="318"/>
      <point x="263" y="321"/>
    </contour>
    <contour>
      <point x="56" y="-98" type="line"/>
      <point x="173" y="3"/>
      <point x="191" y="33"/>
      <point x="214" y="173" type="curve"/>
      <point x="203" y="169"/>
      <point x="192" y="166"/>
      <point x="181" y="163" type="curve" smooth="yes"/>
      <point x="171" y="160"/>
      <point x="154" y="154"/>
      <point x="142" y="151" type="curve"/>
      <point x="133" y="39"/>
      <point x="105" y="-19"/>
      <point x="29" y="-87" type="curve"/>
    </contour>
  </outline>
</glyph>
<glyph name="less" format="1">
  <advance width="520"/>
  <unicode hex="003C"/>
  <outline>
    <contour>
      <point x="557" y="55" type="line"/>
      <point x="190" y="225" type="line"/>
      <point x="557" y="396" type="line"/>
      <point x="557" y="449" type="line"/>
      <point x="120" y="249" type="line"/>
      <point x="120" y="202" type="line"/>
      <point x="557" y="2" type="line"/>
    </contour>
  </outline>
</glyph>
<glyph name="equal" format="1">
  <advance width="520"/>
  <unicode hex="003D"/>
  <outline>
    <contour>
      <point x="518" y="162" type="line"/>
      <point x="108" y="162" type="line"/>
      <point x="108" y="108" type="line"/>
      <point x="518" y="108" type="line"/>
    </contour>
    <contour>
      <point x="518" y="330" type="line"/>
      <point x="108" y="330" type="line"/>
      <point x="108" y="276" type="line"/>
      <point x="518" y="276" type="line"/>
    </contour>
  </outline>
</glyph>
<glyph name="greater" format="1">
  <advance width="520"/>
  <unicode hex="003E"/>
  <outline>
    <contour>
      <point x="119" y="55" type="line"/>
      <point x="119" y="2" type="line"/>
      <point x="556" y="202" type="line"/>
      <point x="556" y="249" type="line"/>
      <point x="119" y="449" type="line"/>
      <point x="119" y="396" type="line"/>
      <point x="485" y="225" type="line"/>
    </contour>
  </outline>
</glyph>
<glyph name="question" format="1">
  <advance width="380"/>
  <unicode hex="003F"/>
  <outline>
    <contour>
      <point x="190" y="116" type="line" smooth="yes"/>
      <point x="172" y="101"/>
      <point x="161" y="92"/>
      <point x="157" y="89" type="curve" smooth="yes"/>
      <point x="130" y="68" type="line"/>
      <point x="139" y="45"/>
      <point x="158" y="14"/>
      <point x="177" y="-9" type="curve"/>
      <point x="213" y="17"/>
      <point x="223" y="25"/>
      <point x="251" y="54" type="curve"/>
      <point x="248" y="59"/>
      <point x="244" y="64"/>
      <point x="240" y="69" type="curve"/>
      <point x="223" y="96" type="line" smooth="yes"/>
      <point x="217" y="106"/>
      <point x="209" y="118"/>
      <point x="204" y="128" type="curve"/>
    </contour>
    <contour>
      <point x="219" y="175" type="line"/>
      <point x="226" y="259"/>
      <point x="242" y="293"/>
      <point x="275" y="292" type="curve"/>
      <point x="345" y="298"/>
      <point x="364" y="303"/>
      <point x="401" y="325" type="curve" smooth="yes"/>
      <point x="459" y="358"/>
      <point x="497" y="423"/>
      <point x="497" y="489" type="curve" smooth="yes"/>
      <point x="497" y="546"/>
      <point x="452" y="582"/>
      <point x="380" y="582" type="curve" smooth="yes"/>
      <point x="315" y="582"/>
      <point x="271" y="566"/>
      <point x="226" y="525" type="curve"/>
      <point x="233" y="501"/>
      <point x="237" y="492"/>
      <point x="247" y="464" type="curve"/>
      <point x="277" y="520"/>
      <point x="316" y="550"/>
      <point x="359" y="550" type="curve" smooth="yes"/>
      <point x="392" y="550"/>
      <point x="415" y="523"/>
      <point x="415" y="484" type="curve" smooth="yes"/>
      <point x="415" y="449"/>
      <point x="400" y="412"/>
      <point x="375" y="382" type="curve" smooth="yes"/>
      <point x="346" y="349"/>
      <point x="313" y="334"/>
      <point x="266" y="334" type="curve" smooth="yes"/>
      <point x="252" y="334"/>
      <point x="242" y="335"/>
      <point x="220" y="340" type="curve"/>
      <point x="202" y="325" type="line"/>
      <point x="193" y="252"/>
      <point x="191" y="237"/>
      <point x="185" y="164" type="curve"/>
    </contour>
  </outline>
</glyph>
<glyph name="at" format="1">
  <advance width="700"/>
  <unicode hex="0040"/>
  <outline>
    <contour>
      <point x="566" y="55" type="line"/>
      <point x="479" y="23"/>
      <point x="381" y="4"/>
      <point x="297" y="4" type="curve" smooth="yes"/>
      <point x="212" y="4"/>
      <point x="168" y="49"/>
      <point x="168" y="133" type="curve" smooth="yes"/>
      <point x="168" y="201"/>
      <point x="181" y="276"/>
      <point x="203" y="341" type="curve" smooth="yes"/>
      <point x="235" y="436"/>
      <point x="283" y="491"/>
      <point x="358" y="523" type="curve" smooth="yes"/>
      <point x="415" y="546"/>
      <point x="489" y="560"/>
      <point x="562" y="560" type="curve" smooth="yes"/>
      <point x="653" y="560"/>
      <point x="699" y="524"/>
      <point x="699" y="450" type="curve" smooth="yes"/>
      <point x="699" y="404"/>
      <point x="683" y="340"/>
      <point x="652" y="268" type="curve" smooth="yes"/>
      <point x="624" y="201"/>
      <point x="588" y="165"/>
      <point x="549" y="165" type="curve" smooth="yes"/>
      <point x="538" y="165"/>
      <point x="533" y="172"/>
      <point x="533" y="187" type="curve" smooth="yes"/>
      <point x="533" y="207"/>
      <point x="554" y="312"/>
      <point x="583" y="431" type="curve"/>
      <point x="598" y="449"/>
      <point x="601" y="452"/>
      <point x="611" y="463" type="curve"/>
      <point x="570" y="472"/>
      <point x="537" y="476"/>
      <point x="499" y="476" type="curve" smooth="yes"/>
      <point x="461" y="476"/>
      <point x="447" y="472"/>
      <point x="422" y="457" type="curve" smooth="yes"/>
      <point x="392" y="437"/>
      <point x="349" y="406"/>
      <point x="341" y="397" type="curve" smooth="yes"/>
      <point x="306" y="360"/>
      <point x="271" y="243"/>
      <point x="271" y="165" type="curve" smooth="yes"/>
      <point x="271" y="122"/>
      <point x="287" y="93"/>
      <point x="310" y="93" type="curve" smooth="yes"/>
      <point x="330" y="93"/>
      <point x="356" y="109"/>
      <point x="471" y="193" type="curve"/>
      <point x="468" y="172"/>
      <point x="461" y="119"/>
      <point x="461" y="113" type="curve" smooth="yes"/>
      <point x="461" y="100"/>
      <point x="466" y="94"/>
      <point x="477" y="94" type="curve" smooth="yes"/>
      <point x="523" y="94"/>
      <point x="623" y="157"/>
      <point x="665" y="212" type="curve" smooth="yes"/>
      <point x="726" y="294"/>
      <point x="765" y="394"/>
      <point x="765" y="471" type="curve" smooth="yes"/>
      <point x="765" y="519"/>
      <point x="741" y="558"/>
      <point x="701" y="574" type="curve" smooth="yes"/>
      <point x="671" y="586"/>
      <point x="632" y="592"/>
      <point x="576" y="592" type="curve" smooth="yes"/>
      <point x="412" y="592"/>
      <point x="285" y="543"/>
      <point x="211" y="451" type="curve" smooth="yes"/>
      <point x="149" y="373"/>
      <point x="102" y="222"/>
      <point x="102" y="102" type="curve" smooth="yes"/>
      <point x="102" y="55"/>
      <point x="117" y="16"/>
      <point x="143" y="-5" type="curve" smooth="yes"/>
      <point x="166" y="-24"/>
      <point x="198" y="-31"/>
      <point x="255" y="-31" type="curve" smooth="yes"/>
      <point x="369" y="-31"/>
      <point x="460" y="-12"/>
      <point x="577" y="35" type="curve"/>
    </contour>
    <contour>
      <point x="477" y="228" type="curve"/>
      <point x="410" y="178"/>
      <point x="380" y="160"/>
      <point x="363" y="160" type="curve" smooth="yes"/>
      <point x="347" y="160"/>
      <point x="338" y="178"/>
      <point x="338" y="209" type="curve" smooth="yes"/>
      <point x="338" y="256"/>
      <point x="351" y="313"/>
      <point x="373" y="365" type="curve" smooth="yes"/>
      <point x="394" y="413"/>
      <point x="414" y="434"/>
      <point x="443" y="434" type="curve" smooth="yes"/>
      <point x="458" y="434"/>
      <point x="497" y="429"/>
      <point x="522" y="423" type="curve"/>
      <point x="508" y="366"/>
      <point x="503" y="347"/>
      <point x="498" y="329" type="curve"/>
      <point x="497" y="322"/>
      <point x="491" y="296"/>
      <point x="484" y="260" type="curve"/>
      <point x="481" y="249"/>
      <point x="479" y="238"/>
    </contour>
  </outline>
</glyph>
<glyph name="A" format="1">
  <advance width="620"/>
  <unicode hex="0041"/>
  <outline>
    <contour>
      <point x="23" y="9" type="line"/>
      <point x="46" y="2"/>
      <point x="58" y="0"/>
      <point x="76" y="0" type="curve" smooth="yes"/>
      <point x="144" y="0"/>
      <point x="190" y="35"/>
      <point x="322" y="186" type="curve"/>
      <point x="401" y="186"/>
      <point x="460" y="185"/>
      <point x="499" y="182" type="curve"/>
      <point x="497" y="170"/>
      <point x="495" y="158"/>
      <point x="494" y="146" type="curve"/>
      <point x="492" y="133"/>
      <point x="489" y="114"/>
      <point x="486" y="93" type="curve" smooth="yes"/>
      <point x="484" y="74"/>
      <point x="481" y="55"/>
      <point x="480" y="52" type="curve"/>
      <point x="477" y="35"/>
      <point x="475" y="19"/>
      <point x="475" y="9" type="curve" smooth="yes"/>
      <point x="475" y="-3"/>
      <point x="485" y="-13"/>
      <point x="498" y="-13" type="curve" smooth="yes"/>
      <point x="505" y="-13"/>
      <point x="515" y="-12"/>
      <point x="527" y="-9" type="curve"/>
      <point x="575" y="0"/>
      <point x="623" y="9"/>
      <point x="671" y="17" type="curve"/>
      <point x="687" y="41" type="line"/>
      <point x="677" y="40"/>
      <point x="667" y="39"/>
      <point x="664" y="39" type="curve"/>
      <point x="633" y="36"/>
      <point x="628" y="36"/>
      <point x="613" y="36" type="curve" smooth="yes"/>
      <point x="574" y="36"/>
      <point x="562" y="46"/>
      <point x="562" y="81" type="curve" smooth="yes"/>
      <point x="562" y="144"/>
      <point x="602" y="428"/>
      <point x="633" y="584" type="curve"/>
      <point x="619" y="594" type="line"/>
      <point x="615" y="590"/>
      <point x="611" y="586"/>
      <point x="608" y="582" type="curve"/>
      <point x="592" y="566"/>
      <point x="583" y="562"/>
      <point x="566" y="562" type="curve" smooth="yes"/>
      <point x="554" y="562"/>
      <point x="550" y="562"/>
      <point x="509" y="569" type="curve" smooth="yes"/>
      <point x="463" y="576"/>
      <point x="438" y="579"/>
      <point x="418" y="579" type="curve" smooth="yes"/>
      <point x="372" y="579"/>
      <point x="324" y="556"/>
      <point x="277" y="510" type="curve" smooth="yes"/>
      <point x="224" y="459"/>
      <point x="201" y="414"/>
      <point x="201" y="361" type="curve" smooth="yes"/>
      <point x="201" y="338"/>
      <point x="204" y="322"/>
      <point x="215" y="293" type="curve"/>
      <point x="289" y="333" type="line"/>
      <point x="273" y="380"/>
      <point x="268" y="403"/>
      <point x="268" y="426" type="curve" smooth="yes"/>
      <point x="268" y="483"/>
      <point x="311" y="517"/>
      <point x="384" y="517" type="curve" smooth="yes"/>
      <point x="395" y="517"/>
      <point x="407" y="516"/>
      <point x="421" y="515" type="curve"/>
      <point x="461" y="510" type="line"/>
      <point x="476" y="509" type="line"/>
      <point x="493" y="507"/>
      <point x="501" y="507"/>
      <point x="528" y="505" type="curve"/>
      <point x="355" y="281" type="line" smooth="yes"/>
      <point x="313" y="227"/>
      <point x="247" y="150"/>
      <point x="221" y="125" type="curve" smooth="yes"/>
      <point x="181" y="86"/>
      <point x="151" y="72"/>
      <point x="105" y="72" type="curve" smooth="yes"/>
      <point x="88" y="72"/>
      <point x="79" y="73"/>
      <point x="61" y="79" type="curve"/>
    </contour>
    <contour>
      <point x="353" y="227" type="line"/>
      <point x="546" y="480" type="line"/>
      <point x="505" y="227" type="line"/>
    </contour>
  </outline>
</glyph>
<glyph name="D" format="1">
  <advance width="700"/>
  <unicode hex="0044"/>
  <outline>
    <contour>
      <point x="86" y="0" type="line"/>
      <point x="213" y="0" type="line" smooth="yes"/>
      <point x="378" y="0"/>
      <point x="418" y="3"/>
      <point x="471" y="22" type="curve" smooth="yes"/>
      <point x="551" y="49"/>
      <point x="633" y="101"/>
      <point x="672" y="149" type="curve" smooth="yes"/>
      <point x="723" y="212"/>
      <point x="759" y="317"/>
      <point x="759" y="402" type="curve" smooth="yes"/>
      <point x="759" y="471"/>
      <point x="723" y="523"/>
      <point x="655" y="553" type="curve" smooth="yes"/>
      <point x="612" y="572"/>
      <point x="561" y="580"/>
      <point x="464" y="586" type="curve"/>
      <point x="471" y="614" type="line"/>
      <point x="399" y="584" type="line"/>
      <point x="317" y="570"/>
      <point x="265" y="552"/>
      <point x="212" y="518" type="curve" smooth="yes"/>
      <point x="127" y="463"/>
      <point x="86" y="396"/>
      <point x="86" y="311" type="curve" smooth="yes"/>
      <point x="86" y="292"/>
      <point x="87" y="280"/>
      <point x="93" y="254" type="curve"/>
      <point x="175" y="291" type="line"/>
      <point x="169" y="317"/>
      <point x="168" y="329"/>
      <point x="168" y="347" type="curve" smooth="yes"/>
      <point x="168" y="466"/>
      <point x="242" y="536"/>
      <point x="382" y="550" type="curve"/>
      <point x="307" y="252" type="line" smooth="yes"/>
      <point x="268" y="85"/>
      <point x="242" y="54"/>
      <point x="134" y="46" type="curve"/>
    </contour>
    <contour>
      <point x="456" y="555" type="line"/>
      <point x="529" y="552"/>
      <point x="563" y="546"/>
      <point x="594" y="530" type="curve" smooth="yes"/>
      <point x="643" y="504"/>
      <point x="672" y="449"/>
      <point x="672" y="382" type="curve" smooth="yes"/>
      <point x="672" y="296"/>
      <point x="639" y="189"/>
      <point x="594" y="132" type="curve" smooth="yes"/>
      <point x="545" y="69"/>
      <point x="486" y="45"/>
      <point x="383" y="45" type="curve" smooth="yes"/>
      <point x="368" y="45" type="line"/>
      <point x="240" y="49" type="line"/>
      <point x="356" y="157"/>
      <point x="356" y="157"/>
      <point x="401" y="338" type="curve" smooth="yes"/>
    </contour>
  </outline>
</glyph>
<glyph name="I" format="1">
  <advance width="380"/>
  <unicode hex="0049"/>
  <outline>
    <contour>
      <point x="81" y="0" type="line"/>
      <point x="146" y="1"/>
      <point x="146" y="1"/>
      <point x="160" y="1" type="curve"/>
      <point x="160" y="1"/>
      <point x="316" y="0"/>
      <point x="316" y="0" type="curve"/>
      <point x="352" y="25" type="line"/>
      <point x="259" y="32" type="line"/>
      <point x="278" y="120"/>
      <point x="341" y="370"/>
      <point x="388" y="542" type="curve"/>
      <point x="446" y="548" type="line"/>
      <point x="481" y="573" type="line"/>
      <point x="447" y="573" type="line" smooth="yes"/>
      <point x="345" y="572"/>
      <point x="345" y="572"/>
      <point x="328" y="572" type="curve" smooth="yes"/>
      <point x="312" y="572"/>
      <point x="308" y="572"/>
      <point x="251" y="573" type="curve"/>
      <point x="216" y="548" type="line"/>
      <point x="306" y="542" type="line"/>
      <point x="298" y="505"/>
      <point x="292" y="480"/>
      <point x="291" y="475" type="curve"/>
      <point x="270" y="393" type="line" smooth="yes"/>
      <point x="207" y="146"/>
      <point x="196" y="102"/>
      <point x="191" y="85" type="curve" smooth="yes"/>
      <point x="189" y="79"/>
      <point x="183" y="56"/>
      <point x="176" y="32" type="curve"/>
      <point x="117" y="25" type="line"/>
    </contour>
  </outline>
</glyph>
<glyph name="O" format="1">
  <advance width="600"/>
  <unicode hex="004F"/>
  <outline>
    <contour>
      <point x="487" y="591" type="curve" smooth="yes"/>
      <point x="404" y="591"/>
      <point x="298" y="549"/>
      <point x="229" y="490" type="curve" smooth="yes"/>
      <point x="149" y="420"/>
      <point x="104" y="309"/>
      <point x="104" y="183" type="curve" smooth="yes"/>
      <point x="104" y="55"/>
      <point x="163" y="-13"/>
      <point x="274" y="-13" type="curve" smooth="yes"/>
      <point x="365" y="-13"/>
      <point x="465" y="30"/>
      <point x="540" y="102" type="curve" smooth="yes"/>
      <point x="612" y="172"/>
      <point x="652" y="276"/>
      <point x="652" y="396" type="curve" smooth="yes"/>
      <point x="652" y="522"/>
      <point x="594" y="591"/>
    </contour>
    <contour>
      <point x="429" y="552" type="curve" smooth="yes"/>
      <point x="518" y="552"/>
      <point x="570" y="482"/>
      <point x="570" y="366" type="curve" smooth="yes"/>
      <point x="570" y="290"/>
      <point x="549" y="204"/>
      <point x="517" y="147" type="curve" smooth="yes"/>
      <point x="474" y="71"/>
      <point x="406" y="27"/>
      <point x="332" y="27" type="curve" smooth="yes"/>
      <point x="240" y="27"/>
      <point x="186" y="99"/>
      <point x="186" y="222" type="curve" smooth="yes"/>
      <point x="186" y="407"/>
      <point x="293" y="552"/>
    </contour>
  </outline>
</glyph>
<glyph name="P" format="1">
  <advance width="540"/>
  <unicode hex="0050"/>
  <outline>
    <contour>
      <point x="78" y="42" type="line"/>
      <point x="37" y="1" type="line"/>
      <point x="107" y="1" type="line" smooth="yes"/>
      <point x="379" y="1"/>
      <point x="382" y="1"/>
      <point x="465" y="41" type="curve"/>
      <point x="467" y="50" type="line"/>
      <point x="411" y="44"/>
      <point x="387" y="43"/>
      <point x="299" y="42" type="curve"/>
      <point x="302" y="55"/>
      <point x="305" y="68"/>
      <point x="308" y="80" type="curve" smooth="yes"/>
      <point x="312" y="97"/>
      <point x="316" y="114"/>
      <point x="321" y="139" type="curve" smooth="yes"/>
      <point x="334" y="193"/>
      <point x="335" y="199"/>
      <point x="346" y="240" type="curve"/>
      <point x="412" y="244"/>
      <point x="467" y="260"/>
      <point x="528" y="293" type="curve" smooth="yes"/>
      <point x="600" y="332"/>
      <point x="645" y="402"/>
      <point x="645" y="476" type="curve" smooth="yes"/>
      <point x="645" y="544"/>
      <point x="589" y="577"/>
      <point x="474" y="577" type="curve" smooth="yes"/>
      <point x="464" y="577"/>
      <point x="453" y="577"/>
      <point x="430" y="576" type="curve"/>
      <point x="436" y="601" type="line"/>
      <point x="369" y="567" type="line"/>
      <point x="290" y="559"/>
      <point x="245" y="545"/>
      <point x="196" y="516" type="curve" smooth="yes"/>
      <point x="117" y="468"/>
      <point x="74" y="400"/>
      <point x="74" y="321" type="curve" smooth="yes"/>
      <point x="74" y="292"/>
      <point x="78" y="272"/>
      <point x="91" y="240" type="curve"/>
      <point x="166" y="285" type="line"/>
      <point x="154" y="320"/>
      <point x="151" y="336"/>
      <point x="151" y="360" type="curve" smooth="yes"/>
      <point x="151" y="413"/>
      <point x="174" y="464"/>
      <point x="211" y="493" type="curve" smooth="yes"/>
      <point x="245" y="519"/>
      <point x="279" y="531"/>
      <point x="345" y="538" type="curve"/>
      <point x="310" y="381"/>
      <point x="259" y="174"/>
      <point x="221" y="42" type="curve"/>
    </contour>
    <contour>
      <point x="422" y="546" type="line"/>
      <point x="437" y="547"/>
      <point x="453" y="548"/>
      <point x="461" y="548" type="curve" smooth="yes"/>
      <point x="524" y="548"/>
      <point x="558" y="517"/>
      <point x="558" y="459" type="curve" smooth="yes"/>
      <point x="558" y="353"/>
      <point x="487" y="275"/>
      <point x="391" y="275" type="curve" smooth="yes"/>
      <point x="380" y="275"/>
      <point x="372" y="276"/>
      <point x="356" y="279" type="curve"/>
    </contour>
  </outline>
</glyph>
<glyph name="Q" format="1">
  <advance width="600"/>
  <unicode hex="0051"/>
  <outline>
    <contour>
      <point x="802" y="-29" type="line"/>
      <point x="792" y="-101"/>
      <point x="755" y="-142"/>
      <point x="701" y="-142" type="curve" smooth="yes"/>
      <point x="636" y="-142"/>
      <point x="550" y="-94"/>
      <point x="416" y="18" type="curve"/>
      <point x="500" y="60"/>
      <point x="537" y="87"/>
      <point x="573" y="135" type="curve" smooth="yes"/>
      <point x="627" y="206"/>
      <point x="654" y="293"/>
      <point x="654" y="392" type="curve" smooth="yes"/>
      <point x="654" y="463"/>
      <point x="641" y="507"/>
      <point x="609" y="543" type="curve" smooth="yes"/>
      <point x="582" y="574"/>
      <point x="543" y="591"/>
      <point x="497" y="591" type="curve" smooth="yes"/>
      <point x="406" y="591"/>
      <point x="299" y="550"/>
      <point x="229" y="489" type="curve" smooth="yes"/>
      <point x="151" y="420"/>
      <point x="104" y="306"/>
      <point x="104" y="187" type="curve" smooth="yes"/>
      <point x="104" y="55"/>
      <point x="164" y="-13"/>
      <point x="280" y="-13" type="curve" smooth="yes"/>
      <point x="298" y="-13"/>
      <point x="311" y="-12"/>
      <point x="338" y="-7" type="curve"/>
      <point x="378" y="-45"/>
      <point x="411" y="-74"/>
      <point x="453" y="-107" type="curve" smooth="yes"/>
      <point x="533" y="-170"/>
      <point x="579" y="-191"/>
      <point x="636" y="-191" type="curve" smooth="yes"/>
      <point x="707" y="-191"/>
      <point x="780" y="-153"/>
      <point x="851" y="-78" type="curve"/>
    </contour>
    <contour>
      <point x="371" y="55" type="line"/>
      <point x="344" y="34"/>
      <point x="332" y="29"/>
      <point x="312" y="29" type="curve" smooth="yes"/>
      <point x="237" y="29"/>
      <point x="186" y="106"/>
      <point x="186" y="218" type="curve" smooth="yes"/>
      <point x="186" y="403"/>
      <point x="294" y="551"/>
      <point x="430" y="551" type="curve" smooth="yes"/>
      <point x="519" y="551"/>
      <point x="572" y="481"/>
      <point x="572" y="364" type="curve" smooth="yes"/>
      <point x="572" y="294"/>
      <point x="552" y="207"/>
      <point x="522" y="152" type="curve" smooth="yes"/>
      <point x="490" y="92"/>
      <point x="458" y="64"/>
      <point x="393" y="36" type="curve"/>
    </contour>
  </outline>
</glyph>
<glyph name="V" format="1">
  <advance width="640"/>
  <unicode hex="0056"/>
  <outline>
    <contour>
      <point x="424" y="539" type="line"/>
      <point x="448" y="550"/>
      <point x="454" y="554"/>
      <point x="469" y="566" type="curve"/>
      <point x="421" y="571"/>
      <point x="398" y="573"/>
      <point x="367" y="573" type="curve" smooth="yes"/>
      <point x="289" y="573"/>
      <point x="240" y="558"/>
      <point x="191" y="521" type="curve" smooth="yes"/>
      <point x="136" y="479"/>
      <point x="104" y="419"/>
      <point x="104" y="360" type="curve" smooth="yes"/>
      <point x="104" y="334"/>
      <point x="109" y="315"/>
      <point x="122" y="283" type="curve"/>
      <point x="198" y="325" type="line"/>
      <point x="185" y="359"/>
      <point x="181" y="377"/>
      <point x="181" y="405" type="curve" smooth="yes"/>
      <point x="181" y="482"/>
      <point x="232" y="537"/>
      <point x="303" y="537" type="curve" smooth="yes"/>
      <point x="315" y="537"/>
      <point x="329" y="536"/>
      <point x="346" y="534" type="curve"/>
      <point x="320" y="332"/>
      <point x="281" y="68"/>
      <point x="265" y="-12" type="curve"/>
      <point x="293" y="-7"/>
      <point x="297" y="-6"/>
      <point x="339" y="4" type="curve"/>
      <point x="375" y="45"/>
      <point x="382" y="52"/>
      <point x="447" y="120" type="curve" smooth="yes"/>
      <point x="603" y="280"/>
      <point x="683" y="368"/>
      <point x="725" y="424" type="curve" smooth="yes"/>
      <point x="781" y="500"/>
      <point x="809" y="566"/>
      <point x="809" y="621" type="curve" smooth="yes"/>
      <point x="809" y="639"/>
      <point x="807" y="648"/>
      <point x="800" y="668" type="curve"/>
      <point x="780" y="680"/>
      <point x="772" y="683"/>
      <point x="748" y="685" type="curve"/>
      <point x="721" y="673"/>
      <point x="710" y="665"/>
      <point x="687" y="645" type="curve"/>
      <point x="713" y="623"/>
      <point x="722" y="603"/>
      <point x="722" y="569" type="curve" smooth="yes"/>
      <point x="722" y="516"/>
      <point x="688" y="442"/>
      <point x="631" y="367" type="curve" smooth="yes"/>
      <point x="577" y="297"/>
      <point x="537" y="255"/>
      <point x="357" y="80" type="curve"/>
    </contour>
  </outline>
</glyph>
<glyph name="W" format="1">
  <advance width="880"/>
  <unicode hex="0057"/>
  <outline>
    <contour>
      <point x="328" y="3" type="line"/>
      <point x="628" y="444" type="line"/>
      <point x="626" y="324"/>
      <point x="615" y="74"/>
      <point x="606" y="-17" type="curve"/>
      <point x="670" y="4" type="line"/>
      <point x="704" y="56"/>
      <point x="716" y="73"/>
      <point x="780" y="152" type="curve" smooth="yes"/>
      <point x="969" y="384"/>
      <point x="1035" y="498"/>
      <point x="1035" y="596" type="curve" smooth="yes"/>
      <point x="1035" y="623"/>
      <point x="1031" y="639"/>
      <point x="1020" y="661" type="curve"/>
      <point x="1006" y="669"/>
      <point x="1003" y="670"/>
      <point x="980" y="677" type="curve"/>
      <point x="952" y="664"/>
      <point x="940" y="657"/>
      <point x="916" y="636" type="curve"/>
      <point x="943" y="608"/>
      <point x="953" y="582"/>
      <point x="953" y="541" type="curve" smooth="yes"/>
      <point x="953" y="497"/>
      <point x="936" y="442"/>
      <point x="905" y="381" type="curve" smooth="yes"/>
      <point x="866" y="306"/>
      <point x="811" y="231"/>
      <point x="690" y="90" type="curve"/>
      <point x="693" y="136"/>
      <point x="695" y="167"/>
      <point x="695" y="178" type="curve" smooth="yes"/>
      <point x="701" y="319" type="line" smooth="yes"/>
      <point x="703" y="367"/>
      <point x="706" y="426"/>
      <point x="710" y="495" type="curve" smooth="yes"/>
      <point x="712" y="521"/>
      <point x="714" y="547"/>
      <point x="715" y="573" type="curve"/>
      <point x="657" y="550" type="line"/>
      <point x="611" y="472"/>
      <point x="437" y="214"/>
      <point x="362" y="112" type="curve"/>
      <point x="373" y="193"/>
      <point x="412" y="413"/>
      <point x="436" y="533" type="curve"/>
      <point x="457" y="540"/>
      <point x="469" y="547"/>
      <point x="488" y="565" type="curve"/>
      <point x="294" y="563"/>
      <point x="282" y="563"/>
      <point x="246" y="551" type="curve" smooth="yes"/>
      <point x="160" y="523"/>
      <point x="104" y="454"/>
      <point x="104" y="375" type="curve" smooth="yes"/>
      <point x="104" y="342"/>
      <point x="112" y="314"/>
      <point x="129" y="285" type="curve"/>
      <point x="204" y="332" type="line"/>
      <point x="181" y="367"/>
      <point x="171" y="396"/>
      <point x="171" y="430" type="curve" smooth="yes"/>
      <point x="171" y="471"/>
      <point x="191" y="502"/>
      <point x="228" y="515" type="curve" smooth="yes"/>
      <point x="252" y="524"/>
      <point x="276" y="526"/>
      <point x="351" y="527" type="curve"/>
      <point x="340" y="442"/>
      <point x="317" y="300"/>
      <point x="263" y="-17" type="curve"/>
    </contour>
  </outline>
</glyph>
<glyph name="X" format="1">
  <advance width="560"/>
  <unicode hex="0058"/>
  <outline>
    <contour>
      <point x="0" y="0" type="line"/>
      <point x="23" y="-3"/>
      <point x="34" y="-4"/>
      <point x="45" y="-4" type="curve" smooth="yes"/>
      <point x="74" y="-4"/>
      <point x="106" y="2"/>
      <point x="127" y="12" type="curve" smooth="yes"/>
      <point x="158" y="27"/>
      <point x="185" y="54"/>
      <point x="242" y="128" type="curve" smooth="yes"/>
      <point x="302" y="205" type="line"/>
      <point x="344" y="258" type="line"/>
      <point x="386" y="52" type="line" smooth="yes"/>
      <point x="396" y="-1"/>
      <point x="402" y="-13"/>
      <point x="418" y="-13" type="curve" smooth="yes"/>
      <point x="426" y="-13"/>
      <point x="438" y="-11"/>
      <point x="452" y="-7" type="curve"/>
      <point x="459" y="-6"/>
      <point x="479" y="-2"/>
      <point x="509" y="3" type="curve" smooth="yes"/>
      <point x="519" y="5"/>
      <point x="546" y="10"/>
      <point x="589" y="18" type="curve"/>
      <point x="606" y="41" type="line"/>
      <point x="595" y="40"/>
      <point x="585" y="39"/>
      <point x="582" y="39" type="curve"/>
      <point x="564" y="37"/>
      <point x="548" y="36"/>
      <point x="538" y="36" type="curve" smooth="yes"/>
      <point x="500" y="36"/>
      <point x="476" y="50"/>
      <point x="463" y="79" type="curve" smooth="yes"/>
      <point x="447" y="117"/>
      <point x="436" y="160"/>
      <point x="409" y="290" type="curve" smooth="yes"/>
      <point x="400" y="335" type="line"/>
      <point x="478" y="429" type="line" smooth="yes"/>
      <point x="522" y="483"/>
      <point x="550" y="503"/>
      <point x="582" y="503" type="curve" smooth="yes"/>
      <point x="596" y="503"/>
      <point x="608" y="499"/>
      <point x="626" y="488" type="curve"/>
      <point x="671" y="559" type="line"/>
      <point x="651" y="575"/>
      <point x="637" y="580"/>
      <point x="615" y="580" type="curve" smooth="yes"/>
      <point x="572" y="580"/>
      <point x="541" y="560"/>
      <point x="495" y="500" type="curve" smooth="yes"/>
      <point x="394" y="374" type="line"/>
      <point x="358" y="556" type="line" smooth="yes"/>
      <point x="355" y="571"/>
      <point x="349" y="577"/>
      <point x="338" y="577" type="curve" smooth="yes"/>
      <point x="323" y="577"/>
      <point x="277" y="566"/>
      <point x="183" y="540" type="curve"/>
      <point x="160" y="511" type="line"/>
      <point x="171" y="513"/>
      <point x="181" y="515"/>
      <point x="184" y="516" type="curve"/>
      <point x="223" y="524"/>
      <point x="225" y="524"/>
      <point x="237" y="524" type="curve" smooth="yes"/>
      <point x="266" y="524"/>
      <point x="281" y="510"/>
      <point x="291" y="477" type="curve" smooth="yes"/>
      <point x="308" y="417"/>
      <point x="322" y="359"/>
      <point x="333" y="298" type="curve"/>
      <point x="255" y="197"/>
      <point x="200" y="129"/>
      <point x="180" y="109" type="curve" smooth="yes"/>
      <point x="153" y="82"/>
      <point x="128" y="73"/>
      <point x="80" y="73" type="curve" smooth="yes"/>
      <point x="71" y="73"/>
      <point x="65" y="73"/>
      <point x="49" y="75" type="curve"/>
    </contour>
  </outline>
</glyph>
<glyph name="bracketleft" format="1">
  <advance width="240"/>
  <unicode hex="005B"/>
  <outline>
    <contour>
      <point x="111" y="-164" type="line" smooth="yes"/>
      <point x="135" y="-165"/>
      <point x="146" y="-165"/>
      <point x="157" y="-165" type="curve" smooth="yes"/>
      <point x="168" y="-165" type="line"/>
      <point x="203" y="-139" type="line"/>
      <point x="120" y="-134" type="line"/>
      <point x="261" y="419" type="line" smooth="yes"/>
      <point x="278" y="487"/>
      <point x="295" y="550"/>
      <point x="320" y="634" type="curve"/>
      <point x="369" y="640" type="line"/>
      <point x="404" y="665" type="line"/>
      <point x="365" y="665" type="line"/>
      <point x="268" y="665" type="line"/>
      <point x="244" y="565"/>
      <point x="227" y="499"/>
      <point x="208" y="430" type="curve" smooth="yes"/>
      <point x="155" y="241" type="line"/>
      <point x="108" y="61" type="line"/>
      <point x="47" y="-165" type="line"/>
      <point x="72" y="-164"/>
      <point x="77" y="-164"/>
      <point x="89" y="-164" type="curve" smooth="yes"/>
    </contour>
  </outline>
</glyph>
<glyph name="backslash" format="1">
  <advance width="480"/>
  <unicode hex="005C"/>
  <outline>
    <contour>
      <point x="484" y="0" type="line"/>
      <point x="243" y="579" type="line"/>
      <point x="185" y="579" type="line"/>
      <point x="426" y="0" type="line"/>
    </contour>
  </outline>
</glyph>
<glyph name="bracketright" format="1">
  <advance width="320"/>
  <unicode hex="005D"/>
  <outline>
    <contour>
      <point x="336" y="665" type="line"/>
      <point x="317" y="665" type="line"/>
      <point x="259" y="665" type="line"/>
      <point x="224" y="640" type="line"/>
      <point x="309" y="635" type="line"/>
      <point x="306" y="626"/>
      <point x="300" y="601"/>
      <point x="289" y="557" type="curve" smooth="yes"/>
      <point x="222" y="290" type="line"/>
      <point x="134" y="-43" type="line" smooth="yes"/>
      <point x="126" y="-74"/>
      <point x="117" y="-104"/>
      <point x="108" y="-134" type="curve"/>
      <point x="57" y="-140" type="line"/>
      <point x="23" y="-165" type="line"/>
      <point x="40" y="-164"/>
      <point x="55" y="-164"/>
      <point x="63" y="-164" type="curve"/>
      <point x="63" y="-164"/>
      <point x="160" y="-165"/>
      <point x="160" y="-165" type="curve"/>
      <point x="184" y="-65"/>
      <point x="200" y="1"/>
      <point x="220" y="71" type="curve" smooth="yes"/>
      <point x="320" y="440" type="line" smooth="yes"/>
      <point x="327" y="469"/>
      <point x="333" y="489"/>
      <point x="381" y="665" type="curve"/>
    </contour>
  </outline>
</glyph>
<glyph name="asciicircum" format="1">
  <advance width="520"/>
  <unicode hex="005E"/>
  <outline>
    <contour>
      <point x="472" y="447" type="line"/>
      <point x="366" y="681" type="line"/>
      <point x="318" y="681" type="line"/>
      <point x="212" y="447" type="line"/>
      <point x="263" y="447" type="line"/>
      <point x="342" y="618" type="line"/>
      <point x="421" y="447" type="line"/>
    </contour>
  </outline>
</glyph>
<glyph name="underscore" format="1">
  <advance width="500"/>
  <unicode hex="005F"/>
  <outline>
    <contour>
      <point x="0" y="-95" type="line"/>
      <point x="0" y="-145" type="line"/>
      <point x="500" y="-145" type="line"/>
      <point x="500" y="-95" type="line"/>
    </contour>
  </outline>
</glyph>
<glyph name="grave" format="1">
  <advance width="220"/>
  <unicode hex="0060"/>
  <outline>
    <contour>
      <point x="203" y="646" type="line"/>
      <point x="186" y="637" type="line"/>
      <point x="173" y="630" type="line"/>
      <point x="193" y="593"/>
      <point x="210" y="560"/>
      <point x="256" y="460" type="curve"/>
      <point x="266" y="462"/>
      <point x="269" y="462"/>
      <point x="281" y="466" type="curve"/>
      <point x="258" y="544"/>
      <point x="251" y="567"/>
      <point x="219" y="655" type="curve"/>
    </contour>
  </outline>
</glyph>
<glyph name="b" format="1">
  <advance width="420"/>
  <unicode hex="0062"/>
  <outline>
    <contour>
      <point x="97" y="-17" type="line"/>
      <point x="129" y="10" type="line"/>
      <point x="157" y="0"/>
      <point x="178" y="-5"/>
      <point x="197" y="-5" type="curve" smooth="yes"/>
      <point x="217" y="-5"/>
      <point x="235" y="1"/>
      <point x="261" y="17" type="curve" smooth="yes"/>
      <point x="282" y="31"/>
      <point x="305" y="44"/>
      <point x="329" y="58" type="curve" smooth="yes"/>
      <point x="364" y="77"/>
      <point x="386" y="99"/>
      <point x="403" y="131" type="curve" smooth="yes"/>
      <point x="435" y="188"/>
      <point x="459" y="276"/>
      <point x="459" y="335" type="curve" smooth="yes"/>
      <point x="459" y="381"/>
      <point x="436" y="411"/>
      <point x="400" y="411" type="curve" smooth="yes"/>
      <point x="367" y="411"/>
      <point x="339" y="396"/>
      <point x="239" y="325" type="curve"/>
      <point x="245" y="348"/>
      <point x="248" y="364"/>
      <point x="250" y="371" type="curve"/>
      <point x="272" y="479"/>
      <point x="272" y="479"/>
      <point x="275" y="488" type="curve"/>
      <point x="283" y="520"/>
      <point x="298" y="559"/>
      <point x="309" y="578" type="curve" smooth="yes"/>
      <point x="326" y="607"/>
      <point x="344" y="616"/>
      <point x="382" y="616" type="curve" smooth="yes"/>
      <point x="410" y="616" type="line"/>
      <point x="425" y="616" type="line"/>
      <point x="466" y="674" type="line"/>
      <point x="452" y="676"/>
      <point x="431" y="677"/>
      <point x="421" y="677" type="curve" smooth="yes"/>
      <point x="385" y="677"/>
      <point x="367" y="666"/>
      <point x="283" y="597" type="curve" smooth="yes"/>
      <point x="215" y="542"/>
      <point x="215" y="542"/>
      <point x="180" y="386" type="curve" smooth="yes"/>
      <point x="123" y="139" type="line" smooth="yes"/>
      <point x="105" y="61"/>
      <point x="103" y="51"/>
      <point x="87" y="-13" type="curve"/>
    </contour>
    <contour>
      <point x="229" y="284" type="line"/>
      <point x="286" y="326"/>
      <point x="321" y="344"/>
      <point x="344" y="344" type="curve" smooth="yes"/>
      <point x="364" y="344"/>
      <point x="377" y="325"/>
      <point x="377" y="295" type="curve" smooth="yes"/>
      <point x="377" y="255"/>
      <point x="365" y="195"/>
      <point x="348" y="152" type="curve" smooth="yes"/>
      <point x="321" y="85"/>
      <point x="286" y="52"/>
      <point x="242" y="52" type="curve" smooth="yes"/>
      <point x="222" y="52"/>
      <point x="202" y="58"/>
      <point x="176" y="71" type="curve"/>
    </contour>
  </outline>
</glyph>
<glyph name="i" format="1">
  <advance width="240"/>
  <unicode hex="0069"/>
  <outline>
    <contour>
      <point x="242" y="494" type="curve"/>
      <point x="271" y="520"/>
      <point x="273" y="522"/>
      <point x="307" y="548" type="curve"/>
      <point x="301" y="560"/>
      <point x="296" y="568"/>
      <point x="294" y="571" type="curve"/>
      <point x="288" y="583"/>
      <point x="287" y="584"/>
      <point x="279" y="603" type="curve"/>
      <point x="277" y="607"/>
      <point x="275" y="611"/>
      <point x="273" y="616" type="curve"/>
      <point x="268" y="612"/>
      <point x="262" y="608"/>
      <point x="259" y="605" type="curve" smooth="yes"/>
      <point x="255" y="601"/>
      <point x="247" y="595"/>
      <point x="237" y="587" type="curve" smooth="yes"/>
      <point x="232" y="583"/>
      <point x="225" y="578"/>
      <point x="216" y="572" type="curve"/>
      <point x="212" y="569"/>
      <point x="208" y="566"/>
      <point x="204" y="564" type="curve"/>
      <point x="211" y="542"/>
      <point x="220" y="526"/>
    </contour>
    <contour>
      <point x="311" y="116" type="line"/>
      <point x="216" y="65"/>
      <point x="214" y="64"/>
      <point x="201" y="64" type="curve" smooth="yes"/>
      <point x="190" y="64"/>
      <point x="183" y="75"/>
      <point x="183" y="92" type="curve" smooth="yes"/>
      <point x="183" y="102"/>
      <point x="186" y="121"/>
      <point x="192" y="143" type="curve" smooth="yes"/>
      <point x="243" y="353"/>
      <point x="253" y="393"/>
      <point x="253" y="401" type="curve" smooth="yes"/>
      <point x="253" y="407"/>
      <point x="248" y="411"/>
      <point x="241" y="411" type="curve" smooth="yes"/>
      <point x="224" y="411"/>
      <point x="165" y="378"/>
      <point x="83" y="323" type="curve"/>
      <point x="81" y="295" type="line"/>
      <point x="140" y="327"/>
      <point x="145" y="329"/>
      <point x="154" y="329" type="curve" smooth="yes"/>
      <point x="162" y="329"/>
      <point x="166" y="323"/>
      <point x="166" y="311" type="curve" smooth="yes"/>
      <point x="166" y="298"/>
      <point x="163" y="284"/>
      <point x="148" y="227" type="curve" smooth="yes"/>
      <point x="101" y="52"/>
      <point x="101" y="52"/>
      <point x="101" y="27" type="curve" smooth="yes"/>
      <point x="101" y="3"/>
      <point x="111" y="-13"/>
      <point x="125" y="-13" type="curve" smooth="yes"/>
      <point x="142" y="-13"/>
      <point x="169" y="0"/>
      <point x="222" y="34" type="curve" smooth="yes"/>
      <point x="241" y="46"/>
      <point x="260" y="58"/>
      <point x="279" y="71" type="curve"/>
      <point x="288" y="76"/>
      <point x="297" y="82"/>
      <point x="307" y="88" type="curve"/>
    </contour>
  </outline>
</glyph>
<glyph name="k" format="1">
  <advance width="440"/>
  <unicode hex="006B"/>
  <outline>
    <contour>
      <point x="87" y="-11" type="line"/>
      <point x="98" y="-7"/>
      <point x="108" y="-3"/>
      <point x="111" y="-2" type="curve" smooth="yes"/>
      <point x="117" y="0"/>
      <point x="127" y="3"/>
      <point x="138" y="7" type="curve" smooth="yes"/>
      <point x="141" y="8"/>
      <point x="150" y="11"/>
      <point x="160" y="14" type="curve"/>
      <point x="199" y="192" type="line"/>
      <point x="222" y="206" type="line"/>
      <point x="278" y="76" type="line" smooth="yes"/>
      <point x="321" y="-26"/>
      <point x="347" y="-67"/>
      <point x="388" y="-99" type="curve" smooth="yes"/>
      <point x="431" y="-132"/>
      <point x="493" y="-153"/>
      <point x="546" y="-153" type="curve" smooth="yes"/>
      <point x="592" y="-153"/>
      <point x="625" y="-143"/>
      <point x="655" y="-118" type="curve"/>
      <point x="635" y="-46" type="line"/>
      <point x="603" y="-100"/>
      <point x="574" y="-121"/>
      <point x="532" y="-121" type="curve" smooth="yes"/>
      <point x="489" y="-121"/>
      <point x="446" y="-87"/>
      <point x="412" y="-26" type="curve" smooth="yes"/>
      <point x="392" y="12"/>
      <point x="392" y="12"/>
      <point x="278" y="253" type="curve"/>
      <point x="345" y="314" type="line" smooth="yes"/>
      <point x="384" y="349"/>
      <point x="396" y="356"/>
      <point x="415" y="356" type="curve" smooth="yes"/>
      <point x="432" y="356"/>
      <point x="444" y="348"/>
      <point x="460" y="327" type="curve"/>
      <point x="511" y="403" type="line"/>
      <point x="492" y="418"/>
      <point x="477" y="423"/>
      <point x="455" y="423" type="curve" smooth="yes"/>
      <point x="429" y="423"/>
      <point x="411" y="414"/>
      <point x="381" y="386" type="curve" smooth="yes"/>
      <point x="349" y="356"/>
      <point x="348" y="354"/>
      <point x="338" y="345" type="curve" smooth="yes"/>
      <point x="209" y="230" type="line"/>
      <point x="247" y="383" type="line" smooth="yes"/>
      <point x="279" y="515"/>
      <point x="290" y="547"/>
      <point x="307" y="575" type="curve" smooth="yes"/>
      <point x="325" y="604"/>
      <point x="351" y="618"/>
      <point x="385" y="618" type="curve" smooth="yes"/>
      <point x="395" y="618"/>
      <point x="402" y="617"/>
      <point x="420" y="614" type="curve"/>
      <point x="460" y="672" type="line"/>
      <point x="447" y="674"/>
      <point x="440" y="675"/>
      <point x="431" y="675" type="curve" smooth="yes"/>
      <point x="395" y="675"/>
      <point x="371" y="667"/>
      <point x="340" y="644" type="curve" smooth="yes"/>
      <point x="276" y="599"/>
      <point x="231" y="555"/>
      <point x="218" y="526" type="curve" smooth="yes"/>
      <point x="208" y="504"/>
      <point x="189" y="438"/>
      <point x="176" y="380" type="curve" smooth="yes"/>
    </contour>
  </outline>
</glyph>
<glyph name="q" format="1">
  <advance width="400"/>
  <unicode hex="0071"/>
  <outline>
    <contour>
      <point x="163" y="-211" type="line"/>
      <point x="130" y="-244" type="line"/>
      <point x="179" y="-247"/>
      <point x="249" y="-249"/>
      <point x="300" y="-249" type="curve" smooth="yes"/>
      <point x="314" y="-249"/>
      <point x="339" y="-248"/>
      <point x="370" y="-247" type="curve"/>
      <point x="401" y="-223" type="line"/>
      <point x="303" y="-217" type="line"/>
      <point x="306" y="-200"/>
      <point x="310" y="-184"/>
      <point x="313" y="-168" type="curve" smooth="yes"/>
      <point x="338" y="-61" type="line"/>
      <point x="417" y="280" type="line"/>
      <point x="438" y="357" type="line"/>
      <point x="485" y="401" type="line"/>
      <point x="480" y="402"/>
      <point x="475" y="404"/>
      <point x="474" y="404" type="curve"/>
      <point x="461" y="408" type="line"/>
      <point x="460" y="408"/>
      <point x="456" y="409"/>
      <point x="451" y="410" type="curve"/>
      <point x="471" y="476" type="line"/>
      <point x="461" y="479" type="line"/>
      <point x="432" y="448"/>
      <point x="415" y="431"/>
      <point x="390" y="410" type="curve"/>
      <point x="380" y="411"/>
      <point x="370" y="411"/>
      <point x="366" y="411" type="curve" smooth="yes"/>
      <point x="333" y="411"/>
      <point x="296" y="406"/>
      <point x="279" y="400" type="curve" smooth="yes"/>
      <point x="254" y="390"/>
      <point x="197" y="350"/>
      <point x="167" y="321" type="curve" smooth="yes"/>
      <point x="130" y="285"/>
      <point x="87" y="149"/>
      <point x="87" y="68" type="curve" smooth="yes"/>
      <point x="87" y="30"/>
      <point x="111" y="-13"/>
      <point x="132" y="-13" type="curve" smooth="yes"/>
      <point x="147" y="-13"/>
      <point x="193" y="14"/>
      <point x="274" y="73" type="curve" smooth="yes"/>
      <point x="292" y="86"/>
      <point x="303" y="94"/>
      <point x="307" y="96" type="curve"/>
      <point x="302" y="78"/>
      <point x="299" y="65"/>
      <point x="298" y="63" type="curve"/>
      <point x="277" y="-31"/>
      <point x="263" y="-89"/>
      <point x="257" y="-113" type="curve" smooth="yes"/>
      <point x="232" y="-211" type="line"/>
      <point x="208" y="-211" type="line"/>
      <point x="183" y="-211" type="line"/>
    </contour>
    <contour>
      <point x="317" y="137" type="line"/>
      <point x="221" y="75"/>
      <point x="203" y="64"/>
      <point x="190" y="64" type="curve" smooth="yes"/>
      <point x="172" y="64"/>
      <point x="159" y="87"/>
      <point x="159" y="117" type="curve" smooth="yes"/>
      <point x="159" y="156"/>
      <point x="170" y="207"/>
      <point x="190" y="270" type="curve" smooth="yes"/>
      <point x="214" y="340"/>
      <point x="234" y="355"/>
      <point x="311" y="355" type="curve" smooth="yes"/>
      <point x="332" y="355"/>
      <point x="344" y="354"/>
      <point x="370" y="351" type="curve"/>
    </contour>
  </outline>
</glyph>
<glyph name="r" format="1">
  <advance width="300"/>
  <unicode hex="0072"/>
  <outline>
    <contour>
      <point x="90" y="-10" type="line"/>
      <point x="167" y="19" type="line"/>
      <point x="242" y="304" type="line"/>
      <point x="276" y="329"/>
      <point x="299" y="339"/>
      <point x="326" y="339" type="curve" smooth="yes"/>
      <point x="348" y="339"/>
      <point x="361" y="331"/>
      <point x="379" y="308" type="curve"/>
      <point x="409" y="403" type="line"/>
      <point x="390" y="409"/>
      <point x="382" y="411"/>
      <point x="372" y="411" type="curve" smooth="yes"/>
      <point x="354" y="411"/>
      <point x="333" y="402"/>
      <point x="306" y="383" type="curve" smooth="yes"/>
      <point x="247" y="340" type="line"/>
      <point x="248" y="348"/>
      <point x="250" y="353"/>
      <point x="250" y="356" type="curve"/>
      <point x="258" y="389"/>
      <point x="259" y="395"/>
      <point x="259" y="400" type="curve" smooth="yes"/>
      <point x="259" y="406"/>
      <point x="253" y="411"/>
      <point x="246" y="411" type="curve" smooth="yes"/>
      <point x="233" y="411"/>
      <point x="145" y="368"/>
      <point x="84" y="331" type="curve"/>
      <point x="81" y="304" type="line"/>
      <point x="135" y="332"/>
      <point x="141" y="334"/>
      <point x="153" y="334" type="curve" smooth="yes"/>
      <point x="166" y="334"/>
      <point x="172" y="327"/>
      <point x="172" y="313" type="curve" smooth="yes"/>
      <point x="172" y="299"/>
      <point x="162" y="252"/>
      <point x="150" y="209" type="curve" smooth="yes"/>
    </contour>
  </outline>
</glyph>
<glyph name="t" format="1">
  <advance width="320"/>
  <unicode hex="0074"/>
  <outline>
    <contour>
      <point x="363" y="126" type="line"/>
      <point x="287" y="81"/>
      <point x="255" y="64"/>
      <point x="241" y="64" type="curve" smooth="yes"/>
      <point x="228" y="64"/>
      <point x="212" y="90"/>
      <point x="212" y="111" type="curve" smooth="yes"/>
      <point x="212" y="125"/>
      <point x="229" y="202"/>
      <point x="255" y="307" type="curve"/>
      <point x="269" y="308"/>
      <point x="279" y="308"/>
      <point x="284" y="308" type="curve" smooth="yes"/>
      <point x="324" y="309" type="line" smooth="yes"/>
      <point x="328" y="309"/>
      <point x="338" y="310"/>
      <point x="354" y="312" type="curve"/>
      <point x="392" y="341" type="line"/>
      <point x="264" y="341" type="line"/>
      <point x="304" y="503" type="line"/>
      <point x="285" y="493"/>
      <point x="277" y="490"/>
      <point x="262" y="483" type="curve"/>
      <point x="255" y="479"/>
      <point x="247" y="476"/>
      <point x="239" y="472" type="curve" smooth="yes"/>
      <point x="235" y="470"/>
      <point x="230" y="468"/>
      <point x="225" y="466" type="curve"/>
      <point x="197" y="341" type="line"/>
      <point x="188" y="340"/>
      <point x="182" y="340"/>
      <point x="179" y="340" type="curve" smooth="yes"/>
      <point x="155" y="340" type="line" smooth="yes"/>
      <point x="153" y="340"/>
      <point x="148" y="340"/>
      <point x="140" y="339" type="curve"/>
      <point x="129" y="332"/>
      <point x="128" y="332"/>
      <point x="111" y="318" type="curve"/>
      <point x="108" y="316"/>
      <point x="103" y="312"/>
      <point x="96" y="307" type="curve"/>
      <point x="120" y="307" type="line"/>
      <point x="166" y="307" type="line"/>
      <point x="188" y="307" type="line"/>
      <point x="135" y="85"/>
      <point x="135" y="85"/>
      <point x="135" y="54" type="curve" smooth="yes"/>
      <point x="135" y="22"/>
      <point x="156" y="-13"/>
      <point x="175" y="-13" type="curve" smooth="yes"/>
      <point x="197" y="-13"/>
      <point x="265" y="29"/>
      <point x="361" y="101" type="curve"/>
    </contour>
  </outline>
</glyph>
<glyph name="v" format="1">
  <advance width="440"/>
  <unicode hex="0076"/>
  <outline>
    <contour>
      <point x="104" y="215" type="line"/>
      <point x="109" y="230"/>
      <point x="114" y="244"/>
      <point x="115" y="249" type="curve"/>
      <point x="137" y="312"/>
      <point x="144" y="318"/>
      <point x="198" y="317" type="curve" smooth="yes"/>
      <point x="238" y="318"/>
      <point x="249" y="319"/>
      <point x="273" y="324" type="curve"/>
      <point x="215" y="259"/>
      <point x="198" y="238"/>
      <point x="184" y="215" type="curve" smooth="yes"/>
      <point x="155" y="167"/>
      <point x="138" y="110"/>
      <point x="138" y="61" type="curve" smooth="yes"/>
      <point x="138" y="15"/>
      <point x="159" y="-13"/>
      <point x="192" y="-13" type="curve" smooth="yes"/>
      <point x="271" y="-13"/>
      <point x="375" y="70"/>
      <point x="444" y="188" type="curve" smooth="yes"/>
      <point x="483" y="254"/>
      <point x="510" y="334"/>
      <point x="510" y="383" type="curve" smooth="yes"/>
      <point x="510" y="406"/>
      <point x="503" y="421"/>
      <point x="484" y="437" type="curve"/>
      <point x="460" y="430"/>
      <point x="448" y="425"/>
      <point x="417" y="410" type="curve"/>
      <point x="429" y="383"/>
      <point x="433" y="367"/>
      <point x="433" y="341" type="curve" smooth="yes"/>
      <point x="433" y="280"/>
      <point x="415" y="216"/>
      <point x="381" y="158" type="curve" smooth="yes"/>
      <point x="342" y="92"/>
      <point x="287" y="44"/>
      <point x="250" y="44" type="curve" smooth="yes"/>
      <point x="228" y="44"/>
      <point x="210" y="70"/>
      <point x="210" y="104" type="curve" smooth="yes"/>
      <point x="210" y="150"/>
      <point x="226" y="205"/>
      <point x="254" y="256" type="curve" smooth="yes"/>
      <point x="274" y="291"/>
      <point x="293" y="317"/>
      <point x="340" y="371" type="curve"/>
      <point x="341" y="374"/>
      <point x="341" y="377"/>
      <point x="341" y="378" type="curve" smooth="yes"/>
      <point x="341" y="381"/>
      <point x="341" y="382"/>
      <point x="339" y="389" type="curve"/>
      <point x="329" y="389" type="line"/>
      <point x="318" y="376"/>
      <point x="307" y="373"/>
      <point x="275" y="373" type="curve" smooth="yes"/>
      <point x="251" y="373" type="line" smooth="yes"/>
      <point x="189" y="376"/>
      <point x="179" y="376"/>
      <point x="171" y="376" type="curve" smooth="yes"/>
      <point x="152" y="376"/>
      <point x="142" y="373"/>
      <point x="136" y="365" type="curve" smooth="yes"/>
      <point x="123" y="349"/>
      <point x="107" y="307"/>
      <point x="87" y="236" type="curve"/>
    </contour>
  </outline>
</glyph>
<glyph name="w" format="1">
  <advance width="680"/>
  <unicode hex="0077"/>
  <outline>
    <contour>
      <point x="104" y="208" type="line"/>
      <point x="123" y="256"/>
      <point x="128" y="269"/>
      <point x="135" y="282" type="curve"/>
      <point x="151" y="308"/>
      <point x="169" y="320"/>
      <point x="194" y="320" type="curve" smooth="yes"/>
      <point x="199" y="320"/>
      <point x="212" y="320"/>
      <point x="227" y="319" type="curve"/>
      <point x="235" y="318"/>
      <point x="244" y="318"/>
      <point x="253" y="318" type="curve" smooth="yes"/>
      <point x="274" y="318"/>
      <point x="281" y="319"/>
      <point x="299" y="326" type="curve"/>
      <point x="265" y="288" type="line" smooth="yes"/>
      <point x="222" y="241"/>
      <point x="208" y="223"/>
      <point x="190" y="190" type="curve" smooth="yes"/>
      <point x="164" y="143"/>
      <point x="148" y="90"/>
      <point x="148" y="48" type="curve" smooth="yes"/>
      <point x="148" y="12"/>
      <point x="170" y="-13"/>
      <point x="202" y="-13" type="curve" smooth="yes"/>
      <point x="254" y="-13"/>
      <point x="313" y="29"/>
      <point x="396" y="123" type="curve"/>
      <point x="385" y="90"/>
      <point x="381" y="70"/>
      <point x="381" y="44" type="curve" smooth="yes"/>
      <point x="381" y="8"/>
      <point x="401" y="-13"/>
      <point x="435" y="-13" type="curve" smooth="yes"/>
      <point x="561" y="-13"/>
      <point x="757" y="231"/>
      <point x="757" y="389" type="curve" smooth="yes"/>
      <point x="757" y="416"/>
      <point x="749" y="433"/>
      <point x="732" y="444" type="curve"/>
      <point x="707" y="437"/>
      <point x="698" y="434"/>
      <point x="662" y="418" type="curve"/>
      <point x="672" y="392"/>
      <point x="675" y="375"/>
      <point x="675" y="348" type="curve" smooth="yes"/>
      <point x="675" y="282"/>
      <point x="650" y="204"/>
      <point x="609" y="140" type="curve" smooth="yes"/>
      <point x="574" y="86"/>
      <point x="523" y="44"/>
      <point x="492" y="44" type="curve" smooth="yes"/>
      <point x="472" y="44"/>
      <point x="458" y="63"/>
      <point x="458" y="90" type="curve" smooth="yes"/>
      <point x="458" y="133"/>
      <point x="473" y="185"/>
      <point x="539" y="383" type="curve"/>
      <point x="512" y="374"/>
      <point x="501" y="371"/>
      <point x="465" y="362" type="curve"/>
      <point x="459" y="343"/>
      <point x="455" y="329"/>
      <point x="452" y="320" type="curve" smooth="yes"/>
      <point x="416" y="200"/>
      <point x="406" y="178"/>
      <point x="375" y="138" type="curve" smooth="yes"/>
      <point x="337" y="88"/>
      <point x="283" y="49"/>
      <point x="252" y="49" type="curve" smooth="yes"/>
      <point x="235" y="49"/>
      <point x="225" y="66"/>
      <point x="225" y="93" type="curve" smooth="yes"/>
      <point x="225" y="136"/>
      <point x="242" y="192"/>
      <point x="270" y="243" type="curve" smooth="yes"/>
      <point x="295" y="286"/>
      <point x="317" y="314"/>
      <point x="373" y="370" type="curve"/>
      <point x="373" y="380" type="line" smooth="yes"/>
      <point x="373" y="382"/>
      <point x="373" y="384"/>
      <point x="372" y="388" type="curve"/>
      <point x="361" y="388" type="line"/>
      <point x="345" y="376"/>
      <point x="337" y="374"/>
      <point x="320" y="374" type="curve" smooth="yes"/>
      <point x="291" y="374"/>
      <point x="231" y="375"/>
      <point x="206" y="376" type="curve"/>
      <point x="195" y="377"/>
      <point x="186" y="377"/>
      <point x="179" y="377" type="curve" smooth="yes"/>
      <point x="162" y="377"/>
      <point x="151" y="374"/>
      <point x="145" y="367" type="curve"/>
      <point x="130" y="352"/>
      <point x="110" y="306"/>
      <point x="87" y="232" type="curve"/>
    </contour>
  </outline>
</glyph>
<glyph name="x" format="1">
  <advance width="420"/>
  <unicode hex="0078"/>
  <outline>
    <contour>
      <point x="103" y="-25" type="line"/>
      <point x="105" y="-26"/>
      <point x="107" y="-26"/>
      <point x="108" y="-26" type="curve"/>
      <point x="110" y="-27"/>
      <point x="112" y="-27"/>
      <point x="112" y="-27" type="curve"/>
      <point x="114" y="-27"/>
      <point x="117" y="-26"/>
      <point x="120" y="-25" type="curve"/>
      <point x="141" y="63"/>
      <point x="184" y="129"/>
      <point x="257" y="188" type="curve"/>
      <point x="269" y="33"/>
      <point x="274" y="-5"/>
      <point x="289" y="-51" type="curve" smooth="yes"/>
      <point x="311" y="-118"/>
      <point x="376" y="-160"/>
      <point x="459" y="-160" type="curve" smooth="yes"/>
      <point x="515" y="-160"/>
      <point x="550" y="-146"/>
      <point x="583" y="-112" type="curve"/>
      <point x="544" y="-65" type="line"/>
      <point x="517" y="-113"/>
      <point x="490" y="-133"/>
      <point x="454" y="-133" type="curve" smooth="yes"/>
      <point x="406" y="-133"/>
      <point x="373" y="-93"/>
      <point x="352" y="-10" type="curve" smooth="yes"/>
      <point x="342" y="29"/>
      <point x="334" y="80"/>
      <point x="312" y="237" type="curve"/>
      <point x="396" y="315"/>
      <point x="430" y="339"/>
      <point x="457" y="339" type="curve" smooth="yes"/>
      <point x="468" y="339"/>
      <point x="478" y="337"/>
      <point x="499" y="328" type="curve"/>
      <point x="521" y="398" type="line"/>
      <point x="506" y="408"/>
      <point x="499" y="411"/>
      <point x="486" y="411" type="curve" smooth="yes"/>
      <point x="474" y="411"/>
      <point x="465" y="409"/>
      <point x="448" y="401" type="curve"/>
      <point x="420" y="376"/>
      <point x="415" y="371"/>
      <point x="377" y="334" type="curve" smooth="yes"/>
      <point x="307" y="267" type="line"/>
      <point x="303" y="304"/>
      <point x="297" y="341"/>
      <point x="294" y="355" type="curve" smooth="yes"/>
      <point x="285" y="396"/>
      <point x="271" y="411"/>
      <point x="239" y="411" type="curve" smooth="yes"/>
      <point x="208" y="411"/>
      <point x="179" y="394"/>
      <point x="110" y="334" type="curve"/>
      <point x="108" y="307" type="line"/>
      <point x="168" y="347"/>
      <point x="173" y="349"/>
      <point x="193" y="349" type="curve" smooth="yes"/>
      <point x="226" y="349"/>
      <point x="238" y="323"/>
      <point x="253" y="218" type="curve"/>
      <point x="216" y="188" type="line" smooth="yes"/>
      <point x="132" y="124"/>
      <point x="131" y="124"/>
      <point x="112" y="106" type="curve"/>
      <point x="94" y="87"/>
      <point x="87" y="73"/>
      <point x="70" y="27" type="curve"/>
    </contour>
  </outline>
</glyph>
<glyph name="z" format="1">
  <advance width="440"/>
  <unicode hex="007A"/>
  <outline>
    <contour>
      <point x="46" y="37" type="line" smooth="yes"/>
      <point x="46" y="32"/>
      <point x="47" y="27"/>
      <point x="49" y="18" type="curve"/>
      <point x="68" y="30"/>
      <point x="76" y="35"/>
      <point x="97" y="47" type="curve"/>
      <point x="111" y="42"/>
      <point x="124" y="38"/>
      <point x="129" y="37" type="curve"/>
      <point x="130" y="37"/>
      <point x="176" y="21"/>
      <point x="196" y="13" type="curve" smooth="yes"/>
      <point x="250" y="-6"/>
      <point x="280" y="-13"/>
      <point x="304" y="-13" type="curve" smooth="yes"/>
      <point x="339" y="-13"/>
      <point x="364" y="1"/>
      <point x="412" y="48" type="curve" smooth="yes"/>
      <point x="453" y="87"/>
      <point x="468" y="111"/>
      <point x="468" y="136" type="curve" smooth="yes"/>
      <point x="468" y="149"/>
      <point x="465" y="159"/>
      <point x="454" y="181" type="curve"/>
      <point x="445" y="175"/>
      <point x="436" y="169"/>
      <point x="426" y="163" type="curve" smooth="yes"/>
      <point x="413" y="155"/>
      <point x="411" y="154"/>
      <point x="395" y="142" type="curve"/>
      <point x="404" y="122"/>
      <point x="406" y="113"/>
      <point x="406" y="101" type="curve" smooth="yes"/>
      <point x="406" y="69"/>
      <point x="380" y="44"/>
      <point x="348" y="44" type="curve" smooth="yes"/>
      <point x="313" y="44"/>
      <point x="285" y="53"/>
      <point x="168" y="105" type="curve"/>
      <point x="211" y="147" type="line"/>
      <point x="438" y="365" type="line"/>
      <point x="474" y="402" type="line"/>
      <point x="474" y="409" type="line"/>
      <point x="475" y="415"/>
      <point x="475" y="420"/>
      <point x="475" y="422" type="curve" smooth="yes"/>
      <point x="475" y="426" type="line"/>
      <point x="434" y="398"/>
      <point x="427" y="396"/>
      <point x="375" y="396" type="curve" smooth="yes"/>
      <point x="351" y="396"/>
      <point x="253" y="398"/>
      <point x="238" y="399" type="curve"/>
      <point x="230" y="399" type="line" smooth="yes"/>
      <point x="202" y="399"/>
      <point x="200" y="397"/>
      <point x="152" y="269" type="curve"/>
      <point x="170" y="250" type="line"/>
      <point x="184" y="279" type="line" smooth="yes"/>
      <point x="205" y="326"/>
      <point x="215" y="334"/>
      <point x="258" y="336" type="curve" smooth="yes"/>
      <point x="327" y="337" type="line" smooth="yes"/>
      <point x="353" y="338"/>
      <point x="354" y="338"/>
      <point x="375" y="343" type="curve"/>
      <point x="287" y="258"/>
      <point x="183" y="163"/>
      <point x="46" y="43" type="curve"/>
    </contour>
  </outline>
</glyph>
<glyph name="braceleft" format="1">
  <advance width="240"/>
  <unicode hex="007B"/>
  <outline>
    <contour>
      <point x="330" y="546" type="line" smooth="yes"/>
      <point x="344" y="604"/>
      <point x="364" y="632"/>
      <point x="400" y="641" type="curve"/>
      <point x="405" y="661" type="line"/>
      <point x="329" y="661"/>
      <point x="296" y="633"/>
      <point x="274" y="550" type="curve" smooth="yes"/>
      <point x="219" y="344" type="line" smooth="yes"/>
      <point x="207" y="297"/>
      <point x="182" y="274"/>
      <point x="131" y="262" type="curve"/>
      <point x="126" y="242" type="line"/>
      <point x="156" y="232"/>
      <point x="174" y="209"/>
      <point x="174" y="181" type="curve" smooth="yes"/>
      <point x="174" y="175"/>
      <point x="173" y="171"/>
      <point x="168" y="152" type="curve" smooth="yes"/>
      <point x="113" y="-54" type="line" smooth="yes"/>
      <point x="109" y="-69"/>
      <point x="105" y="-97"/>
      <point x="105" y="-110" type="curve" smooth="yes"/>
      <point x="105" y="-128"/>
      <point x="114" y="-144"/>
      <point x="130" y="-154" type="curve" smooth="yes"/>
      <point x="144" y="-162"/>
      <point x="159" y="-165"/>
      <point x="194" y="-165" type="curve"/>
      <point x="199" y="-145" type="line"/>
      <point x="170" y="-136"/>
      <point x="162" y="-124"/>
      <point x="162" y="-93" type="curve" smooth="yes"/>
      <point x="162" y="-77"/>
      <point x="162" y="-77"/>
      <point x="171" y="-51" type="curve"/>
      <point x="224" y="150" type="line" smooth="yes"/>
      <point x="229" y="166"/>
      <point x="231" y="180"/>
      <point x="231" y="190" type="curve" smooth="yes"/>
      <point x="231" y="222"/>
      <point x="219" y="238"/>
      <point x="187" y="251" type="curve"/>
      <point x="240" y="268"/>
      <point x="265" y="294"/>
      <point x="277" y="346" type="curve" smooth="yes"/>
    </contour>
  </outline>
</glyph>
<glyph name="braceright" format="1">
  <advance width="240"/>
  <unicode hex="007D"/>
  <outline>
    <contour>
      <point x="83" y="-51" type="line" smooth="yes"/>
      <point x="70" y="-109"/>
      <point x="50" y="-137"/>
      <point x="15" y="-145" type="curve"/>
      <point x="10" y="-165" type="line"/>
      <point x="85" y="-166"/>
      <point x="117" y="-138"/>
      <point x="139" y="-54" type="curve" smooth="yes"/>
      <point x="194" y="152" type="line" smooth="yes"/>
      <point x="206" y="199"/>
      <point x="231" y="222"/>
      <point x="282" y="233" type="curve"/>
      <point x="287" y="253" type="line"/>
      <point x="257" y="264"/>
      <point x="239" y="286"/>
      <point x="239" y="314" type="curve" smooth="yes"/>
      <point x="239" y="321"/>
      <point x="240" y="325"/>
      <point x="245" y="344" type="curve" smooth="yes"/>
      <point x="300" y="550" type="line" smooth="yes"/>
      <point x="304" y="565"/>
      <point x="308" y="592"/>
      <point x="308" y="605" type="curve" smooth="yes"/>
      <point x="308" y="624"/>
      <point x="299" y="640"/>
      <point x="283" y="649" type="curve"/>
      <point x="269" y="658"/>
      <point x="254" y="660"/>
      <point x="219" y="661" type="curve"/>
      <point x="214" y="641" type="line"/>
      <point x="243" y="631"/>
      <point x="251" y="620"/>
      <point x="251" y="589" type="curve" smooth="yes"/>
      <point x="251" y="573"/>
      <point x="251" y="573"/>
      <point x="242" y="546" type="curve"/>
      <point x="189" y="346" type="line" smooth="yes"/>
      <point x="184" y="329"/>
      <point x="182" y="316"/>
      <point x="182" y="306" type="curve" smooth="yes"/>
      <point x="182" y="274"/>
      <point x="194" y="258"/>
      <point x="226" y="244" type="curve"/>
      <point x="173" y="228"/>
      <point x="148" y="201"/>
      <point x="136" y="150" type="curve" smooth="yes"/>
    </contour>
  </outline>
</glyph>
<glyph name="asciitilde" format="1">
  <advance width="520"/>
  <unicode hex="007E"/>
  <outline>
    <contour>
      <point x="492" y="278" type="line"/>
      <point x="461" y="236"/>
      <point x="436" y="218"/>
      <point x="407" y="218" type="curve" smooth="yes"/>
      <point x="390" y="218"/>
      <point x="370" y="224"/>
      <point x="335" y="238" type="curve" smooth="yes"/>
      <point x="278" y="262" type="line" smooth="yes"/>
      <point x="255" y="272"/>
      <point x="229" y="278"/>
      <point x="211" y="278" type="curve" smooth="yes"/>
      <point x="162" y="278"/>
      <point x="128" y="253"/>
      <point x="86" y="187" type="curve"/>
      <point x="122" y="165" type="line"/>
      <point x="160" y="215"/>
      <point x="176" y="226"/>
      <point x="209" y="226" type="curve" smooth="yes"/>
      <point x="227" y="226"/>
      <point x="245" y="221"/>
      <point x="275" y="209" type="curve" smooth="yes"/>
      <point x="322" y="189" type="line" smooth="yes"/>
      <point x="347" y="179"/>
      <point x="385" y="171"/>
      <point x="408" y="171" type="curve" smooth="yes"/>
      <point x="450" y="171"/>
      <point x="498" y="205"/>
      <point x="526" y="254" type="curve"/>
    </contour>
  </outline>
</glyph>
<glyph name="exclamdown" format="1">
  <advance width="280"/>
  <unicode hex="00A1"/>
  <outline>
    <contour>
      <point x="295" y="332" type="curve"/>
      <point x="286" y="355"/>
      <point x="267" y="386"/>
      <point x="248" y="409" type="curve"/>
      <point x="211" y="383"/>
      <point x="202" y="375"/>
      <point x="174" y="347" type="curve"/>
      <point x="177" y="341"/>
      <point x="181" y="336"/>
      <point x="184" y="331" type="curve"/>
      <point x="197" y="313"/>
      <point x="197" y="313"/>
      <point x="202" y="305" type="curve"/>
      <point x="206" y="297"/>
      <point x="208" y="295"/>
      <point x="221" y="273" type="curve"/>
      <point x="228" y="279"/>
      <point x="233" y="282"/>
      <point x="235" y="284" type="curve"/>
      <point x="253" y="299"/>
      <point x="264" y="308"/>
      <point x="268" y="311" type="curve" smooth="yes"/>
      <point x="277" y="318"/>
      <point x="281" y="322"/>
    </contour>
    <contour>
      <point x="168" y="153" type="line" smooth="yes"/>
      <point x="158" y="124"/>
      <point x="149" y="95"/>
      <point x="140" y="66" type="curve" smooth="yes"/>
      <point x="134" y="49"/>
      <point x="84" y="-104"/>
      <point x="57" y="-186" type="curve"/>
      <point x="146" y="-144" type="line"/>
      <point x="168" y="-61"/>
      <point x="185" y="5"/>
      <point x="243" y="245" type="curve"/>
      <point x="188" y="212" type="line"/>
    </contour>
  </outline>
</glyph>
<glyph name="cent" format="1">
  <advance width="440"/>
  <unicode hex="00A2"/>
  <outline>
    <contour>
      <point x="416" y="194" type="line"/>
      <point x="343" y="135"/>
      <point x="314" y="120"/>
      <point x="266" y="116" type="curve"/>
      <point x="291" y="232"/>
      <point x="330" y="389"/>
      <point x="350" y="461" type="curve"/>
      <point x="372" y="454"/>
      <point x="381" y="432"/>
      <point x="381" y="391" type="curve"/>
      <point x="453" y="437" type="line"/>
      <point x="441" y="477"/>
      <point x="416" y="498"/>
      <point x="380" y="498" type="curve" smooth="yes"/>
      <point x="375" y="498"/>
      <point x="365" y="497"/>
      <point x="356" y="496" type="curve"/>
      <point x="380" y="595"/>
      <point x="382" y="599"/>
      <point x="397" y="651" type="curve"/>
      <point x="377" y="642" type="line"/>
      <point x="370" y="640"/>
      <point x="367" y="638"/>
      <point x="357" y="635" type="curve"/>
      <point x="354" y="618"/>
      <point x="351" y="603"/>
      <point x="350" y="598" type="curve" smooth="yes"/>
      <point x="349" y="592"/>
      <point x="344" y="568"/>
      <point x="336" y="534" type="curve" smooth="yes"/>
      <point x="334" y="527"/>
      <point x="330" y="510"/>
      <point x="326" y="490" type="curve"/>
      <point x="274" y="469"/>
      <point x="246" y="449"/>
      <point x="214" y="411" type="curve" smooth="yes"/>
      <point x="161" y="351"/>
      <point x="127" y="260"/>
      <point x="127" y="182" type="curve" smooth="yes"/>
      <point x="127" y="105"/>
      <point x="156" y="70"/>
      <point x="222" y="68" type="curve"/>
      <point x="216" y="46"/>
      <point x="212" y="32"/>
      <point x="210" y="26" type="curve" smooth="yes"/>
      <point x="180" y="-76" type="line"/>
      <point x="186" y="-73"/>
      <point x="191" y="-70"/>
      <point x="197" y="-66" type="curve"/>
      <point x="204" y="-63"/>
      <point x="210" y="-59"/>
      <point x="216" y="-56" type="curve" smooth="yes"/>
      <point x="218" y="-55"/>
      <point x="224" y="-51"/>
      <point x="231" y="-47" type="curve"/>
      <point x="235" y="-27"/>
      <point x="237" y="-14"/>
      <point x="239" y="-8" type="curve"/>
      <point x="242" y="7"/>
      <point x="245" y="22"/>
      <point x="249" y="37" type="curve"/>
      <point x="250" y="43"/>
      <point x="252" y="56"/>
      <point x="256" y="74" type="curve"/>
      <point x="301" y="83"/>
      <point x="366" y="116"/>
      <point x="413" y="154" type="curve"/>
    </contour>
    <contour>
      <point x="235" y="121" type="curve"/>
      <point x="211" y="136"/>
      <point x="199" y="167"/>
      <point x="199" y="212" type="curve" smooth="yes"/>
      <point x="199" y="271"/>
      <point x="217" y="346"/>
      <point x="241" y="389" type="curve" smooth="yes"/>
      <point x="264" y="429"/>
      <point x="286" y="449"/>
      <point x="319" y="462" type="curve"/>
      <point x="277" y="294" type="line" smooth="yes"/>
      <point x="255" y="198"/>
      <point x="253" y="188"/>
    </contour>
  </outline>
</glyph>
<glyph name="sterling" format="1">
  <advance width="440"/>
  <unicode hex="00A3"/>
  <outline>
    <contour>
      <point x="200" y="297" type="line"/>
      <point x="164" y="127"/>
      <point x="163" y="122"/>
      <point x="142" y="86" type="curve"/>
      <point x="126" y="63"/>
      <point x="102" y="50"/>
      <point x="73" y="50" type="curve"/>
      <point x="45" y="21"/>
      <point x="28" y="0"/>
      <point x="4" y="-33" type="curve"/>
      <point x="15" y="-53" type="line"/>
      <point x="52" y="-6"/>
      <point x="71" y="3"/>
      <point x="129" y="3" type="curve"/>
      <point x="129" y="3"/>
      <point x="290" y="-2"/>
      <point x="290" y="-2" type="curve"/>
      <point x="305" y="-2"/>
      <point x="328" y="0"/>
      <point x="353" y="3" type="curve"/>
      <point x="383" y="48"/>
      <point x="409" y="103"/>
      <point x="427" y="160" type="curve"/>
      <point x="408" y="168" type="line"/>
      <point x="395" y="134"/>
      <point x="368" y="91"/>
      <point x="350" y="76" type="curve"/>
      <point x="328" y="61"/>
      <point x="318" y="60"/>
      <point x="221" y="60" type="curve" smooth="yes"/>
      <point x="179" y="59"/>
      <point x="166" y="58"/>
      <point x="138" y="54" type="curve"/>
      <point x="216" y="108"/>
      <point x="247" y="163"/>
      <point x="275" y="297" type="curve"/>
      <point x="386" y="297" type="line"/>
      <point x="416" y="333" type="line"/>
      <point x="388" y="332"/>
      <point x="366" y="332"/>
      <point x="353" y="332" type="curve" smooth="yes"/>
      <point x="336" y="332"/>
      <point x="315" y="332"/>
      <point x="284" y="333" type="curve"/>
      <point x="295" y="380"/>
      <point x="302" y="407"/>
      <point x="320" y="473" type="curve" smooth="yes"/>
      <point x="332" y="515"/>
      <point x="340" y="526"/>
      <point x="359" y="526" type="curve" smooth="yes"/>
      <point x="373" y="526"/>
      <point x="383" y="524"/>
      <point x="403" y="515" type="curve"/>
      <point x="436" y="572" type="line"/>
      <point x="419" y="577"/>
      <point x="410" y="578"/>
      <point x="393" y="578" type="curve" smooth="yes"/>
      <point x="351" y="578"/>
      <point x="338" y="568"/>
      <point x="284" y="498" type="curve" smooth="yes"/>
      <point x="242" y="444"/>
      <point x="234" y="426"/>
      <point x="209" y="333" type="curve"/>
      <point x="200" y="333"/>
      <point x="191" y="333"/>
      <point x="189" y="332" type="curve"/>
      <point x="164" y="332" type="line" smooth="yes"/>
      <point x="159" y="332"/>
      <point x="149" y="332"/>
      <point x="138" y="333" type="curve"/>
      <point x="112" y="297" type="line"/>
    </contour>
  </outline>
</glyph>
<glyph name="currency" format="1">
  <advance width="440"/>
  <unicode hex="00A4"/>
  <outline>
    <contour>
      <point x="432" y="157" type="line"/>
      <point x="466" y="199"/>
      <point x="478" y="233"/>
      <point x="478" y="286" type="curve" smooth="yes"/>
      <point x="478" y="339"/>
      <point x="466" y="373"/>
      <point x="432" y="415" type="curve"/>
      <point x="480" y="462" type="line"/>
      <point x="444" y="499" type="line"/>
      <point x="396" y="452" type="line"/>
      <point x="353" y="487"/>
      <point x="316" y="500"/>
      <point x="265" y="500" type="curve" smooth="yes"/>
      <point x="214" y="500"/>
      <point x="177" y="487"/>
      <point x="134" y="452" type="curve"/>
      <point x="86" y="499" type="line"/>
      <point x="50" y="462" type="line"/>
      <point x="98" y="415" type="line"/>
      <point x="65" y="374"/>
      <point x="52" y="338"/>
      <point x="52" y="286" type="curve" smooth="yes"/>
      <point x="52" y="234"/>
      <point x="65" y="198"/>
      <point x="98" y="157" type="curve"/>
      <point x="50" y="110" type="line"/>
      <point x="86" y="73" type="line"/>
      <point x="134" y="120" type="line"/>
      <point x="177" y="85"/>
      <point x="214" y="72"/>
      <point x="265" y="72" type="curve" smooth="yes"/>
      <point x="316" y="72"/>
      <point x="353" y="85"/>
      <point x="396" y="120" type="curve"/>
      <point x="444" y="73" type="line"/>
      <point x="480" y="110" type="line"/>
    </contour>
    <contour>
      <point x="265" y="446" type="curve" smooth="yes"/>
      <point x="354" y="446"/>
      <point x="425" y="375"/>
      <point x="425" y="286" type="curve" smooth="yes"/>
      <point x="425" y="197"/>
      <point x="354" y="126"/>
      <point x="264" y="126" type="curve" smooth="yes"/>
      <point x="176" y="126"/>
      <point x="106" y="198"/>
      <point x="106" y="289" type="curve" smooth="yes"/>
      <point x="106" y="375"/>
      <point x="178" y="446"/>
    </contour>
  </outline>
</glyph>
<glyph name="yen" format="1">
  <advance width="440"/>
  <unicode hex="00A5"/>
  <outline>
    <contour>
      <point x="253" y="186" type="line"/>
      <point x="246" y="123"/>
      <point x="228" y="56"/>
      <point x="201" y="-7" type="curve" smooth="yes"/>
      <point x="178" y="-58"/>
      <point x="146" y="-80"/>
      <point x="93" y="-80" type="curve" smooth="yes"/>
      <point x="77" y="-80"/>
      <point x="75" y="-80"/>
      <point x="24" y="-75" type="curve"/>
      <point x="-11" y="-150" type="line"/>
      <point x="7" y="-152"/>
      <point x="15" y="-152"/>
      <point x="30" y="-152" type="curve" smooth="yes"/>
      <point x="120" y="-152"/>
      <point x="161" y="-133"/>
      <point x="196" y="-76" type="curve" smooth="yes"/>
      <point x="228" y="-21"/>
      <point x="228" y="-21"/>
      <point x="310" y="189" type="curve"/>
      <point x="464" y="199" type="line"/>
      <point x="498" y="224" type="line"/>
      <point x="328" y="224" type="line"/>
      <point x="362" y="293" type="line"/>
      <point x="512" y="302" type="line"/>
      <point x="541" y="329" type="line"/>
      <point x="380" y="329" type="line"/>
      <point x="406" y="382"/>
      <point x="439" y="442"/>
      <point x="462" y="474" type="curve" smooth="yes"/>
      <point x="491" y="515"/>
      <point x="514" y="531"/>
      <point x="546" y="531" type="curve" smooth="yes"/>
      <point x="561" y="531"/>
      <point x="572" y="528"/>
      <point x="595" y="519" type="curve"/>
      <point x="623" y="592" type="line"/>
      <point x="608" y="605"/>
      <point x="600" y="608"/>
      <point x="583" y="608" type="curve" smooth="yes"/>
      <point x="503" y="608"/>
      <point x="443" y="531"/>
      <point x="310" y="253" type="curve"/>
      <point x="319" y="306"/>
      <point x="321" y="330"/>
      <point x="321" y="365" type="curve" smooth="yes"/>
      <point x="321" y="495"/>
      <point x="279" y="576"/>
      <point x="212" y="576" type="curve" smooth="yes"/>
      <point x="108" y="576"/>
      <point x="-11" y="449"/>
      <point x="-11" y="337" type="curve" smooth="yes"/>
      <point x="-11" y="306"/>
      <point x="-4" y="276"/>
      <point x="10" y="245" type="curve"/>
      <point x="86" y="293" type="line"/>
      <point x="71" y="341"/>
      <point x="66" y="364"/>
      <point x="66" y="395" type="curve" smooth="yes"/>
      <point x="66" y="464"/>
      <point x="101" y="519"/>
      <point x="145" y="519" type="curve" smooth="yes"/>
      <point x="202" y="519"/>
      <point x="243" y="447"/>
      <point x="254" y="326" type="curve"/>
      <point x="156" y="326" type="line"/>
      <point x="141" y="308"/>
      <point x="135" y="300"/>
      <point x="119" y="277" type="curve"/>
      <point x="257" y="287" type="line"/>
      <point x="258" y="270"/>
      <point x="258" y="265"/>
      <point x="258" y="256" type="curve" smooth="yes"/>
      <point x="258" y="248"/>
      <point x="258" y="244"/>
      <point x="257" y="224" type="curve"/>
      <point x="117" y="224" type="line"/>
      <point x="107" y="213"/>
      <point x="105" y="209"/>
      <point x="99" y="202" type="curve"/>
      <point x="93" y="194"/>
      <point x="92" y="193"/>
      <point x="80" y="175" type="curve"/>
    </contour>
  </outline>
</glyph>
<glyph name="brokenbar" format="1">
  <advance width="520"/>
  <unicode hex="00A6"/>
  <outline>
    <contour>
      <point x="363" y="722" type="line"/>
      <point x="314" y="722" type="line"/>
      <point x="314" y="428" type="line"/>
      <point x="363" y="428" type="line"/>
    </contour>
    <contour>
      <point x="363" y="294" type="line"/>
      <point x="314" y="294" type="line"/>
      <point x="314" y="0" type="line"/>
      <point x="363" y="0" type="line"/>
    </contour>
  </outline>
</glyph>
<glyph name="section" format="1">
  <advance width="420"/>
  <unicode hex="00A7"/>
  <outline>
    <contour>
      <point x="63" y="-148" type="line"/>
      <point x="97" y="-160"/>
      <point x="115" y="-164"/>
      <point x="140" y="-164" type="curve" smooth="yes"/>
      <point x="189" y="-164"/>
      <point x="221" y="-148"/>
      <point x="261" y="-102" type="curve" smooth="yes"/>
      <point x="298" y="-60"/>
      <point x="318" y="-22"/>
      <point x="327" y="23" type="curve"/>
      <point x="382" y="80"/>
      <point x="409" y="137"/>
      <point x="409" y="193" type="curve" smooth="yes"/>
      <point x="409" y="237"/>
      <point x="391" y="277"/>
      <point x="346" y="333" type="curve" smooth="yes"/>
      <point x="290" y="403"/>
      <point x="286" y="410"/>
      <point x="286" y="436" type="curve" smooth="yes"/>
      <point x="286" y="479"/>
      <point x="325" y="524"/>
      <point x="362" y="524" type="curve" smooth="yes"/>
      <point x="385" y="524"/>
      <point x="398" y="513"/>
      <point x="409" y="481" type="curve"/>
      <point x="464" y="553" type="line"/>
      <point x="443" y="570"/>
      <point x="426" y="576"/>
      <point x="402" y="576" type="curve" smooth="yes"/>
      <point x="342" y="576"/>
      <point x="274" y="521"/>
      <point x="238" y="442" type="curve"/>
      <point x="160" y="367"/>
      <point x="122" y="303"/>
      <point x="122" y="243" type="curve" smooth="yes"/>
      <point x="122" y="201"/>
      <point x="144" y="152"/>
      <point x="184" y="100" type="curve" smooth="yes"/>
      <point x="259" y="7"/>
      <point x="265" y="-3"/>
      <point x="265" y="-26" type="curve" smooth="yes"/>
      <point x="265" y="-44"/>
      <point x="252" y="-70"/>
      <point x="235" y="-87" type="curve" smooth="yes"/>
      <point x="221" y="-100"/>
      <point x="203" y="-107"/>
      <point x="180" y="-107" type="curve" smooth="yes"/>
      <point x="160" y="-107"/>
      <point x="149" y="-104"/>
      <point x="106" y="-87" type="curve"/>
    </contour>
    <contour>
      <point x="323" y="45" type="curve"/>
      <point x="312" y="81"/>
      <point x="302" y="97"/>
      <point x="266" y="142" type="curve" smooth="yes"/>
      <point x="198" y="226"/>
      <point x="184" y="252"/>
      <point x="184" y="297" type="curve" smooth="yes"/>
      <point x="184" y="336"/>
      <point x="197" y="368"/>
      <point x="229" y="409" type="curve"/>
      <point x="228" y="401"/>
      <point x="228" y="394"/>
      <point x="228" y="391" type="curve" smooth="yes"/>
      <point x="228" y="349"/>
      <point x="234" y="337"/>
      <point x="300" y="249" type="curve" smooth="yes"/>
      <point x="342" y="193"/>
      <point x="354" y="166"/>
      <point x="354" y="132" type="curve" smooth="yes"/>
      <point x="354" y="103"/>
      <point x="345" y="78"/>
    </contour>
  </outline>
</glyph>
<glyph name="dieresis" format="1">
  <advance width="360"/>
  <unicode hex="00A8"/>
  <outline>
    <contour>
      <point x="354" y="489" type="curve"/>
      <point x="376" y="510"/>
      <point x="379" y="513"/>
      <point x="387" y="519" type="curve" smooth="yes"/>
      <point x="419" y="544" type="line"/>
      <point x="407" y="563"/>
      <point x="403" y="570"/>
      <point x="399" y="578" type="curve" smooth="yes"/>
      <point x="396" y="584"/>
      <point x="395" y="587"/>
      <point x="385" y="612" type="curve"/>
      <point x="381" y="609"/>
      <point x="377" y="606"/>
      <point x="371" y="601" type="curve" smooth="yes"/>
      <point x="354" y="587"/>
      <point x="344" y="579"/>
      <point x="340" y="576" type="curve" smooth="yes"/>
      <point x="333" y="571"/>
      <point x="328" y="568"/>
      <point x="316" y="559" type="curve"/>
      <point x="324" y="536"/>
      <point x="332" y="520"/>
    </contour>
    <contour>
      <point x="221" y="489" type="curve"/>
      <point x="254" y="519" type="line"/>
      <point x="260" y="523"/>
      <point x="264" y="526"/>
      <point x="286" y="544" type="curve"/>
      <point x="275" y="563"/>
      <point x="271" y="570"/>
      <point x="267" y="578" type="curve" smooth="yes"/>
      <point x="264" y="584"/>
      <point x="263" y="587"/>
      <point x="252" y="612" type="curve"/>
      <point x="247" y="608"/>
      <point x="243" y="604"/>
      <point x="238" y="601" type="curve"/>
      <point x="212" y="579"/>
      <point x="209" y="577"/>
      <point x="183" y="559" type="curve"/>
      <point x="191" y="536"/>
      <point x="199" y="522"/>
    </contour>
  </outline>
</glyph>
<glyph name="copyright" format="1">
  <advance width="740"/>
  <unicode hex="00A9"/>
  <outline>
    <contour>
      <point x="651" y="211" type="line"/>
      <point x="581" y="182"/>
      <point x="538" y="171"/>
      <point x="491" y="171" type="curve" smooth="yes"/>
      <point x="448" y="171"/>
      <point x="420" y="185"/>
      <point x="399" y="215" type="curve" smooth="yes"/>
      <point x="377" y="246"/>
      <point x="365" y="286"/>
      <point x="365" y="328" type="curve" smooth="yes"/>
      <point x="365" y="373"/>
      <point x="379" y="421"/>
      <point x="402" y="453" type="curve" smooth="yes"/>
      <point x="423" y="482"/>
      <point x="459" y="499"/>
      <point x="497" y="499" type="curve" smooth="yes"/>
      <point x="553" y="499"/>
      <point x="591" y="465"/>
      <point x="591" y="415" type="curve" smooth="yes"/>
      <point x="591" y="409"/>
      <point x="591" y="400"/>
      <point x="590" y="392" type="curve"/>
      <point x="597" y="388" type="line"/>
      <point x="652" y="453" type="line"/>
      <point x="638" y="499"/>
      <point x="587" y="526"/>
      <point x="514" y="526" type="curve" smooth="yes"/>
      <point x="446" y="526"/>
      <point x="387" y="505"/>
      <point x="352" y="468" type="curve" smooth="yes"/>
      <point x="315" y="430"/>
      <point x="293" y="367"/>
      <point x="293" y="302" type="curve" smooth="yes"/>
      <point x="293" y="198"/>
      <point x="354" y="129"/>
      <point x="447" y="129" type="curve" smooth="yes"/>
      <point x="495" y="129"/>
      <point x="567" y="147"/>
      <point x="633" y="175" type="curve"/>
    </contour>
    <contour>
      <point x="489" y="668" type="curve" smooth="yes"/>
      <point x="293" y="668"/>
      <point x="136" y="515"/>
      <point x="136" y="324" type="curve" smooth="yes"/>
      <point x="136" y="130"/>
      <point x="291" y="-26"/>
      <point x="483" y="-26" type="curve" smooth="yes"/>
      <point x="674" y="-26"/>
      <point x="830" y="130"/>
      <point x="830" y="321" type="curve" smooth="yes"/>
      <point x="830" y="510"/>
      <point x="675" y="668"/>
    </contour>
    <contour>
      <point x="490" y="626" type="curve" smooth="yes"/>
      <point x="651" y="626"/>
      <point x="787" y="487"/>
      <point x="787" y="321" type="curve" smooth="yes"/>
      <point x="787" y="153"/>
      <point x="651" y="16"/>
      <point x="485" y="16" type="curve" smooth="yes"/>
      <point x="317" y="16"/>
      <point x="183" y="153"/>
      <point x="183" y="324" type="curve" smooth="yes"/>
      <point x="183" y="397"/>
      <point x="211" y="470"/>
      <point x="261" y="525" type="curve" smooth="yes"/>
      <point x="321" y="592"/>
      <point x="398" y="626"/>
    </contour>
  </outline>
</glyph>
<glyph name="ordfeminine" format="1">
  <advance width="260"/>
  <unicode hex="00AA"/>
  <outline>
    <contour>
      <point x="324" y="427" type="line"/>
      <point x="307" y="412"/>
      <point x="274" y="390"/>
      <point x="269" y="390" type="curve" smooth="yes"/>
      <point x="266" y="390"/>
      <point x="262" y="395"/>
      <point x="262" y="400" type="curve" smooth="yes"/>
      <point x="262" y="413"/>
      <point x="281" y="495"/>
      <point x="295" y="548" type="curve"/>
      <point x="298" y="552"/>
      <point x="300" y="555"/>
      <point x="301" y="556" type="curve" smooth="yes"/>
      <point x="306" y="561" type="line" smooth="yes"/>
      <point x="307" y="562"/>
      <point x="309" y="564"/>
      <point x="311" y="567" type="curve"/>
      <point x="292" y="573"/>
      <point x="264" y="576"/>
      <point x="235" y="576" type="curve" smooth="yes"/>
      <point x="218" y="576"/>
      <point x="211" y="574"/>
      <point x="197" y="564" type="curve"/>
      <point x="178" y="552"/>
      <point x="150" y="532"/>
      <point x="146" y="528" type="curve" smooth="yes"/>
      <point x="125" y="507"/>
      <point x="101" y="432"/>
      <point x="101" y="389" type="curve" smooth="yes"/>
      <point x="101" y="361"/>
      <point x="110" y="344"/>
      <point x="124" y="344" type="curve" smooth="yes"/>
      <point x="134" y="344"/>
      <point x="152" y="355"/>
      <point x="199" y="388" type="curve" smooth="yes"/>
      <point x="205" y="392"/>
      <point x="211" y="396"/>
      <point x="217" y="401" type="curve"/>
      <point x="217" y="396"/>
      <point x="216" y="391"/>
      <point x="215" y="390" type="curve"/>
      <point x="214" y="380"/>
      <point x="213" y="374"/>
      <point x="212" y="373" type="curve"/>
      <point x="211" y="366"/>
      <point x="210" y="360"/>
      <point x="210" y="357" type="curve" smooth="yes"/>
      <point x="210" y="348"/>
      <point x="213" y="344"/>
      <point x="219" y="344" type="curve" smooth="yes"/>
      <point x="234" y="344"/>
      <point x="261" y="360"/>
      <point x="324" y="405" type="curve"/>
    </contour>
    <contour>
      <point x="224" y="427" type="curve"/>
      <point x="184" y="400"/>
      <point x="167" y="390"/>
      <point x="160" y="390" type="curve" smooth="yes"/>
      <point x="154" y="390"/>
      <point x="148" y="400"/>
      <point x="148" y="411" type="curve" smooth="yes"/>
      <point x="148" y="436"/>
      <point x="154" y="464"/>
      <point x="164" y="493" type="curve" smooth="yes"/>
      <point x="178" y="531"/>
      <point x="190" y="544"/>
      <point x="211" y="544" type="curve" smooth="yes"/>
      <point x="222" y="544"/>
      <point x="243" y="541"/>
      <point x="250" y="538" type="curve"/>
      <point x="227" y="444" type="line"/>
      <point x="227" y="442"/>
      <point x="226" y="436"/>
    </contour>
    <contour>
      <point x="81" y="253" type="line"/>
      <point x="267" y="253" type="line"/>
      <point x="276" y="288" type="line"/>
      <point x="92" y="288" type="line"/>
    </contour>
  </outline>
</glyph>
<glyph name="guillemotleft" format="1">
  <advance width="340"/>
  <unicode hex="00AB"/>
  <outline>
    <contour>
      <point x="393" y="413" type="line"/>
      <point x="298" y="302" type="line"/>
      <point x="249" y="242" type="line" smooth="yes"/>
      <point x="245" y="237"/>
      <point x="233" y="224"/>
      <point x="216" y="205" type="curve"/>
      <point x="221" y="185" type="line" smooth="yes"/>
      <point x="223" y="178"/>
      <point x="227" y="165"/>
      <point x="232" y="144" type="curve" smooth="yes"/>
      <point x="260" y="36" type="line" smooth="yes"/>
      <point x="262" y="28"/>
      <point x="266" y="13"/>
      <point x="271" y="-9" type="curve"/>
      <point x="277" y="-4"/>
      <point x="283" y="1"/>
      <point x="285" y="2" type="curve"/>
      <point x="287" y="4"/>
      <point x="293" y="8"/>
      <point x="301" y="14" type="curve"/>
      <point x="303" y="15"/>
      <point x="308" y="19"/>
      <point x="313" y="22" type="curve"/>
      <point x="305" y="81"/>
      <point x="289" y="161"/>
      <point x="275" y="213" type="curve"/>
      <point x="368" y="334"/>
      <point x="375" y="344"/>
      <point x="404" y="387" type="curve"/>
    </contour>
    <contour>
      <point x="188" y="17" type="line"/>
      <point x="195" y="22" type="line"/>
      <point x="186" y="89"/>
      <point x="172" y="157"/>
      <point x="157" y="213" type="curve"/>
      <point x="224" y="300" type="line" smooth="yes"/>
      <point x="254" y="339"/>
      <point x="263" y="352"/>
      <point x="286" y="387" type="curve"/>
      <point x="275" y="413" type="line"/>
      <point x="131" y="242" type="line" smooth="yes"/>
      <point x="127" y="237"/>
      <point x="115" y="224"/>
      <point x="98" y="205" type="curve"/>
      <point x="154" y="-9" type="line"/>
      <point x="160" y="-4"/>
      <point x="165" y="1"/>
      <point x="167" y="2" type="curve"/>
      <point x="170" y="4"/>
      <point x="175" y="8"/>
      <point x="183" y="14" type="curve"/>
    </contour>
  </outline>
</glyph>
<glyph name="logicalnot" format="1">
  <advance width="520"/>
  <unicode hex="00AC"/>
  <outline>
    <contour>
      <point x="55" y="314" type="line"/>
      <point x="55" y="259" type="line"/>
      <point x="504" y="259" type="line"/>
      <point x="504" y="25" type="line"/>
      <point x="559" y="25" type="line"/>
      <point x="559" y="314" type="line"/>
    </contour>
  </outline>
</glyph>
<glyph name="registered" format="1">
  <advance width="740"/>
  <unicode hex="00AE"/>
  <outline>
    <contour>
      <point x="413" y="311" type="line"/>
      <point x="434" y="307"/>
      <point x="439" y="307"/>
      <point x="454" y="307" type="curve"/>
      <point x="565" y="164" type="line" smooth="yes"/>
      <point x="584" y="139"/>
      <point x="597" y="130"/>
      <point x="614" y="130" type="curve" smooth="yes"/>
      <point x="618" y="130"/>
      <point x="623" y="130"/>
      <point x="629" y="131" type="curve"/>
      <point x="705" y="139" type="line"/>
      <point x="721" y="159" type="line"/>
      <point x="656" y="163"/>
      <point x="654" y="165"/>
      <point x="594" y="234" type="curve" smooth="yes"/>
      <point x="515" y="327" type="line"/>
      <point x="585" y="347"/>
      <point x="627" y="389"/>
      <point x="627" y="438" type="curve" smooth="yes"/>
      <point x="627" y="489"/>
      <point x="596" y="512"/>
      <point x="524" y="513" type="curve" smooth="yes"/>
      <point x="316" y="514" type="line"/>
      <point x="291" y="486" type="line"/>
      <point x="361" y="482" type="line"/>
      <point x="353" y="362"/>
      <point x="344" y="259"/>
      <point x="334" y="173" type="curve"/>
      <point x="288" y="171" type="line"/>
      <point x="269" y="141" type="line"/>
      <point x="330" y="140"/>
      <point x="364" y="139"/>
      <point x="413" y="138" type="curve" smooth="yes"/>
      <point x="445" y="138" type="line"/>
      <point x="471" y="167" type="line"/>
      <point x="403" y="171" type="line"/>
    </contour>
    <contour>
      <point x="427" y="480" type="line"/>
      <point x="435" y="481"/>
      <point x="435" y="481"/>
      <point x="448" y="481" type="curve" smooth="yes"/>
      <point x="462" y="481" type="line" smooth="yes"/>
      <point x="531" y="481"/>
      <point x="560" y="464"/>
      <point x="560" y="423" type="curve" smooth="yes"/>
      <point x="560" y="373"/>
      <point x="512" y="336"/>
      <point x="449" y="336" type="curve" smooth="yes"/>
      <point x="441" y="336"/>
      <point x="428" y="337"/>
      <point x="416" y="338" type="curve"/>
    </contour>
    <contour>
      <point x="487" y="668" type="curve" smooth="yes"/>
      <point x="291" y="668"/>
      <point x="135" y="515"/>
      <point x="135" y="324" type="curve" smooth="yes"/>
      <point x="135" y="130"/>
      <point x="289" y="-26"/>
      <point x="481" y="-26" type="curve" smooth="yes"/>
      <point x="673" y="-26"/>
      <point x="828" y="130"/>
      <point x="828" y="321" type="curve" smooth="yes"/>
      <point x="828" y="510"/>
      <point x="673" y="668"/>
    </contour>
    <contour>
      <point x="488" y="626" type="curve" smooth="yes"/>
      <point x="649" y="626"/>
      <point x="785" y="487"/>
      <point x="785" y="321" type="curve" smooth="yes"/>
      <point x="785" y="153"/>
      <point x="650" y="16"/>
      <point x="483" y="16" type="curve" smooth="yes"/>
      <point x="316" y="16"/>
      <point x="182" y="153"/>
      <point x="182" y="324" type="curve" smooth="yes"/>
      <point x="182" y="397"/>
      <point x="210" y="470"/>
      <point x="259" y="525" type="curve" smooth="yes"/>
      <point x="320" y="592"/>
      <point x="396" y="626"/>
    </contour>
  </outline>
</glyph>
<glyph name="macron" format="1">
  <advance width="440"/>
  <unicode hex="00AF"/>
  <outline>
    <contour>
      <point x="183" y="520" type="line"/>
      <point x="475" y="520" type="line"/>
      <point x="490" y="540"/>
      <point x="503" y="556"/>
      <point x="515" y="568" type="curve"/>
      <point x="226" y="568" type="line"/>
      <point x="221" y="562"/>
      <point x="216" y="557"/>
      <point x="215" y="555" type="curve"/>
      <point x="211" y="552"/>
      <point x="208" y="548"/>
      <point x="204" y="544" type="curve"/>
      <point x="192" y="529" type="line"/>
    </contour>
  </outline>
</glyph>
<glyph name="degree" format="1">
  <advance width="400"/>
  <unicode hex="00B0"/>
  <outline>
    <contour>
      <point x="313" y="576" type="curve" smooth="yes"/>
      <point x="244" y="576"/>
      <point x="190" y="522"/>
      <point x="190" y="454" type="curve" smooth="yes"/>
      <point x="190" y="384"/>
      <point x="243" y="330"/>
      <point x="310" y="330" type="curve" smooth="yes"/>
      <point x="377" y="330"/>
      <point x="430" y="384"/>
      <point x="430" y="453" type="curve" smooth="yes"/>
      <point x="430" y="522"/>
      <point x="379" y="576"/>
    </contour>
    <contour>
      <point x="311" y="530" type="curve" smooth="yes"/>
      <point x="351" y="530"/>
      <point x="384" y="495"/>
      <point x="384" y="453" type="curve" smooth="yes"/>
      <point x="384" y="410"/>
      <point x="351" y="376"/>
      <point x="310" y="376" type="curve" smooth="yes"/>
      <point x="269" y="376"/>
      <point x="235" y="411"/>
      <point x="235" y="453" type="curve" smooth="yes"/>
      <point x="235" y="496"/>
      <point x="269" y="530"/>
    </contour>
  </outline>
</glyph>
<glyph name="plusminus" format="1">
  <advance width="520"/>
  <unicode hex="00B1"/>
  <outline>
    <contour>
      <point x="335" y="276" type="line"/>
      <point x="513" y="276" type="line"/>
      <point x="513" y="330" type="line"/>
      <point x="335" y="330" type="line"/>
      <point x="335" y="508" type="line"/>
      <point x="281" y="508" type="line"/>
      <point x="281" y="330" type="line"/>
      <point x="103" y="330" type="line"/>
      <point x="103" y="276" type="line"/>
      <point x="281" y="276" type="line"/>
      <point x="281" y="98" type="line"/>
      <point x="335" y="98" type="line"/>
    </contour>
    <contour>
      <point x="103" y="0" type="line"/>
      <point x="513" y="0" type="line"/>
      <point x="513" y="54" type="line"/>
      <point x="103" y="54" type="line"/>
    </contour>
  </outline>
</glyph>
<glyph name="acute" format="1">
  <advance width="300"/>
  <unicode hex="00B4"/>
  <outline>
    <contour>
      <point x="229" y="460" type="line"/>
      <point x="291" y="533"/>
      <point x="311" y="555"/>
      <point x="388" y="633" type="curve"/>
      <point x="343" y="655" type="line"/>
      <point x="205" y="466" type="line"/>
    </contour>
  </outline>
</glyph>
<glyph name="paragraph" format="1">
  <advance width="500"/>
  <unicode hex="00B6"/>
  <outline>
    <contour>
      <point x="491" y="530" type="line"/>
      <point x="624" y="551" type="line"/>
      <point x="650" y="586" type="line"/>
      <point x="528" y="581" type="line" smooth="yes"/>
      <point x="439" y="577"/>
      <point x="390" y="575"/>
      <point x="384" y="575" type="curve"/>
      <point x="344" y="571"/>
      <point x="300" y="561"/>
      <point x="273" y="549" type="curve" smooth="yes"/>
      <point x="198" y="515"/>
      <point x="157" y="455"/>
      <point x="157" y="377" type="curve" smooth="yes"/>
      <point x="157" y="280"/>
      <point x="213" y="225"/>
      <point x="340" y="196" type="curve"/>
      <point x="312" y="81" type="line" smooth="yes"/>
      <point x="278" y="-68"/>
      <point x="272" y="-88"/>
      <point x="244" y="-136" type="curve" smooth="yes"/>
      <point x="225" y="-169"/>
      <point x="195" y="-190"/>
      <point x="166" y="-190" type="curve" smooth="yes"/>
      <point x="138" y="-190"/>
      <point x="112" y="-175"/>
      <point x="78" y="-141" type="curve"/>
      <point x="29" y="-204" type="line"/>
      <point x="56" y="-232"/>
      <point x="89" y="-247"/>
      <point x="124" y="-247" type="curve" smooth="yes"/>
      <point x="194" y="-247"/>
      <point x="285" y="-165"/>
      <point x="337" y="-56" type="curve" smooth="yes"/>
      <point x="360" y="-7"/>
      <point x="360" y="-7"/>
      <point x="408" y="199" type="curve" smooth="yes"/>
    </contour>
  </outline>
</glyph>
<glyph name="periodcentered" format="1">
  <advance width="220"/>
  <unicode hex="00B7"/>
  <outline>
    <contour>
      <point x="169" y="277" type="curve" smooth="yes"/>
      <point x="135" y="277"/>
      <point x="108" y="250"/>
      <point x="108" y="217" type="curve" smooth="yes"/>
      <point x="108" y="184"/>
      <point x="135" y="156"/>
      <point x="168" y="156" type="curve" smooth="yes"/>
      <point x="202" y="156"/>
      <point x="229" y="183"/>
      <point x="229" y="217" type="curve" smooth="yes"/>
      <point x="229" y="250"/>
      <point x="202" y="277"/>
    </contour>
  </outline>
</glyph>
<glyph name="cedilla" format="1">
  <advance width="300"/>
  <unicode hex="00B8"/>
  <outline>
    <contour>
      <point x="216" y="0" type="line"/>
      <point x="181" y="0" type="line"/>
      <point x="104" y="-92" type="line"/>
      <point x="125" y="-108"/>
      <point x="131" y="-116"/>
      <point x="131" y="-130" type="curve" smooth="yes"/>
      <point x="131" y="-143"/>
      <point x="125" y="-151"/>
      <point x="104" y="-167" type="curve" smooth="yes"/>
      <point x="81" y="-186"/>
      <point x="70" y="-191"/>
      <point x="41" y="-199" type="curve"/>
      <point x="56" y="-212" type="line"/>
      <point x="141" y="-191"/>
      <point x="193" y="-149"/>
      <point x="193" y="-102" type="curve" smooth="yes"/>
      <point x="193" y="-84"/>
      <point x="184" y="-70"/>
      <point x="169" y="-64" type="curve"/>
    </contour>
  </outline>
</glyph>
<glyph name="ordmasculine" format="1">
  <advance width="260"/>
  <unicode hex="00BA"/>
  <outline>
    <contour>
      <point x="273" y="578" type="curve" smooth="yes"/>
      <point x="251" y="578"/>
      <point x="216" y="562"/>
      <point x="183" y="538" type="curve" smooth="yes"/>
      <point x="147" y="511"/>
      <point x="122" y="454"/>
      <point x="122" y="399" type="curve" smooth="yes"/>
      <point x="122" y="366"/>
      <point x="141" y="344"/>
      <point x="170" y="344" type="curve" smooth="yes"/>
      <point x="200" y="344"/>
      <point x="263" y="378"/>
      <point x="283" y="405" type="curve" smooth="yes"/>
      <point x="305" y="435"/>
      <point x="323" y="489"/>
      <point x="323" y="527" type="curve" smooth="yes"/>
      <point x="323" y="557"/>
      <point x="302" y="578"/>
    </contour>
    <contour>
      <point x="244" y="546" type="curve" smooth="yes"/>
      <point x="264" y="546"/>
      <point x="276" y="527"/>
      <point x="276" y="497" type="curve" smooth="yes"/>
      <point x="276" y="440"/>
      <point x="236" y="376"/>
      <point x="202" y="376" type="curve" smooth="yes"/>
      <point x="182" y="376"/>
      <point x="169" y="394"/>
      <point x="169" y="422" type="curve" smooth="yes"/>
      <point x="169" y="483"/>
      <point x="207" y="546"/>
    </contour>
    <contour>
      <point x="98" y="253" type="line"/>
      <point x="268" y="253" type="line"/>
      <point x="280" y="288" type="line"/>
      <point x="108" y="288" type="line"/>
    </contour>
  </outline>
</glyph>
<glyph name="guillemotright" format="1">
  <advance width="380"/>
  <unicode hex="00BB"/>
  <outline>
    <contour>
      <point x="217" y="-3" type="line"/>
      <point x="248" y="32"/>
      <point x="309" y="99"/>
      <point x="316" y="106" type="curve"/>
      <point x="371" y="168" type="line"/>
      <point x="407" y="205" type="line"/>
      <point x="393" y="249" type="line" smooth="yes"/>
      <point x="378" y="299"/>
      <point x="361" y="357"/>
      <point x="339" y="423" type="curve"/>
      <point x="322" y="410"/>
      <point x="318" y="406"/>
      <point x="297" y="383" type="curve"/>
      <point x="314" y="308"/>
      <point x="327" y="257"/>
      <point x="344" y="200" type="curve"/>
      <point x="266" y="102"/>
      <point x="236" y="64"/>
      <point x="208" y="25" type="curve"/>
    </contour>
    <contour>
      <point x="96" y="-3" type="line"/>
      <point x="113" y="17"/>
      <point x="134" y="39"/>
      <point x="159" y="66" type="curve" smooth="yes"/>
      <point x="250" y="168" type="line"/>
      <point x="255" y="172"/>
      <point x="267" y="185"/>
      <point x="286" y="205" type="curve"/>
      <point x="279" y="227"/>
      <point x="274" y="243"/>
      <point x="273" y="249" type="curve"/>
      <point x="258" y="300"/>
      <point x="248" y="332"/>
      <point x="243" y="346" type="curve" smooth="yes"/>
      <point x="219" y="423" type="line"/>
      <point x="202" y="410"/>
      <point x="198" y="406"/>
      <point x="177" y="383" type="curve"/>
      <point x="194" y="306"/>
      <point x="209" y="250"/>
      <point x="224" y="200" type="curve"/>
      <point x="145" y="102"/>
      <point x="112" y="61"/>
      <point x="87" y="25" type="curve"/>
    </contour>
  </outline>
</glyph>
<glyph name="onequarter" format="1">
  <advance width="660"/>
  <unicode hex="00BC"/>
  <outline>
    <contour>
      <point x="522" y="-9" type="line"/>
      <point x="533" y="-15" type="line"/>
      <point x="540" y="-12"/>
      <point x="546" y="-10"/>
      <point x="548" y="-9" type="curve"/>
      <point x="555" y="-6"/>
      <point x="559" y="-4"/>
      <point x="560" y="-4" type="curve"/>
      <point x="573" y="0" type="line" smooth="yes"/>
      <point x="576" y="1"/>
      <point x="581" y="3"/>
      <point x="589" y="7" type="curve"/>
      <point x="584" y="22"/>
      <point x="582" y="28"/>
      <point x="582" y="37" type="curve" smooth="yes"/>
      <point x="582" y="44"/>
      <point x="586" y="68"/>
      <point x="589" y="80" type="curve" smooth="yes"/>
      <point x="591" y="90" type="line"/>
      <point x="602" y="90" type="line"/>
      <point x="626" y="90" type="line"/>
      <point x="652" y="125" type="line"/>
      <point x="641" y="125"/>
      <point x="636" y="125"/>
      <point x="633" y="126" type="curve"/>
      <point x="623" y="126" type="line"/>
      <point x="609" y="125" type="line"/>
      <point x="600" y="125" type="line"/>
      <point x="608" y="160" type="line" smooth="yes"/>
      <point x="620" y="210"/>
      <point x="623" y="227"/>
      <point x="625" y="236" type="curve" smooth="yes"/>
      <point x="630" y="255"/>
      <point x="634" y="274"/>
      <point x="638" y="293" type="curve"/>
      <point x="639" y="296"/>
      <point x="643" y="313"/>
      <point x="647" y="329" type="curve" smooth="yes"/>
      <point x="653" y="352" type="line"/>
      <point x="646" y="350"/>
      <point x="634" y="344"/>
      <point x="619" y="337" type="curve"/>
      <point x="606" y="330" type="line"/>
      <point x="598" y="321"/>
      <point x="592" y="315"/>
      <point x="591" y="313" type="curve"/>
      <point x="574" y="297"/>
      <point x="558" y="280"/>
      <point x="541" y="263" type="curve"/>
      <point x="534" y="257"/>
      <point x="509" y="228"/>
      <point x="480" y="191" type="curve" smooth="yes"/>
      <point x="435" y="135" type="line" smooth="yes"/>
      <point x="424" y="122"/>
      <point x="418" y="111"/>
      <point x="409" y="90" type="curve"/>
      <point x="416" y="91"/>
      <point x="421" y="91"/>
      <point x="424" y="91" type="curve" smooth="yes"/>
      <point x="426" y="91"/>
      <point x="431" y="91"/>
      <point x="439" y="90" type="curve"/>
      <point x="521" y="90" type="line"/>
      <point x="546" y="90" type="line"/>
    </contour>
    <contour>
      <point x="460" y="125" type="line"/>
      <point x="471" y="141" type="line"/>
      <point x="501" y="178"/>
      <point x="521" y="203"/>
      <point x="553" y="238" type="curve" smooth="yes"/>
      <point x="591" y="281" type="line"/>
      <point x="589" y="272" type="line" smooth="yes"/>
      <point x="585" y="257"/>
      <point x="572" y="200"/>
      <point x="554" y="125" type="curve"/>
    </contour>
    <contour>
      <point x="215" y="-4" type="line"/>
      <point x="238" y="-5" type="line"/>
      <point x="249" y="-5" type="line"/>
      <point x="292" y="75"/>
      <point x="299" y="86"/>
      <point x="378" y="217" type="curve" smooth="yes"/>
      <point x="477" y="384" type="line" smooth="yes"/>
      <point x="542" y="494"/>
      <point x="549" y="506"/>
      <point x="599" y="580" type="curve"/>
      <point x="593" y="581"/>
      <point x="588" y="581"/>
      <point x="586" y="581" type="curve"/>
      <point x="577" y="582"/>
      <point x="572" y="583"/>
      <point x="570" y="583" type="curve" smooth="yes"/>
      <point x="568" y="583"/>
      <point x="562" y="584"/>
      <point x="556" y="585" type="curve"/>
      <point x="517" y="514"/>
      <point x="506" y="495"/>
      <point x="407" y="329" type="curve" smooth="yes"/>
      <point x="262" y="86"/>
      <point x="255" y="74"/>
      <point x="204" y="-3" type="curve"/>
    </contour>
    <contour>
      <point x="96" y="217" type="line"/>
      <point x="114" y="217"/>
      <point x="120" y="217"/>
      <point x="204" y="219" type="curve"/>
      <point x="278" y="217" type="line"/>
      <point x="305" y="217" type="line"/>
      <point x="324" y="244" type="line"/>
      <point x="259" y="246"/>
      <point x="243" y="249"/>
      <point x="243" y="262" type="curve" smooth="yes"/>
      <point x="243" y="275"/>
      <point x="295" y="504"/>
      <point x="313" y="568" type="curve"/>
      <point x="302" y="563"/>
      <point x="300" y="562"/>
      <point x="286" y="555" type="curve" smooth="yes"/>
      <point x="229" y="524"/>
      <point x="216" y="518"/>
      <point x="158" y="494" type="curve"/>
      <point x="181" y="478" type="line"/>
      <point x="204" y="489"/>
      <point x="215" y="493"/>
      <point x="247" y="505" type="curve"/>
      <point x="193" y="270" type="line" smooth="yes"/>
      <point x="188" y="251"/>
      <point x="188" y="250"/>
      <point x="170" y="249" type="curve"/>
      <point x="142" y="246"/>
      <point x="139" y="246"/>
      <point x="135" y="246" type="curve"/>
      <point x="124" y="244" type="line"/>
      <point x="120" y="244" type="line"/>
    </contour>
  </outline>
</glyph>
<glyph name="onehalf" format="1">
  <advance width="660"/>
  <unicode hex="00BD"/>
  <outline>
    <contour>
      <point x="207" y="-4" type="line"/>
      <point x="230" y="-5" type="line"/>
      <point x="241" y="-5" type="line"/>
      <point x="284" y="75"/>
      <point x="291" y="86"/>
      <point x="370" y="217" type="curve" smooth="yes"/>
      <point x="469" y="384" type="line" smooth="yes"/>
      <point x="534" y="494"/>
      <point x="541" y="506"/>
      <point x="591" y="580" type="curve"/>
      <point x="585" y="581"/>
      <point x="580" y="581"/>
      <point x="578" y="581" type="curve"/>
      <point x="569" y="582"/>
      <point x="564" y="583"/>
      <point x="562" y="583" type="curve" smooth="yes"/>
      <point x="560" y="583"/>
      <point x="554" y="584"/>
      <point x="548" y="585" type="curve"/>
      <point x="509" y="514"/>
      <point x="498" y="495"/>
      <point x="399" y="329" type="curve" smooth="yes"/>
      <point x="254" y="86"/>
      <point x="247" y="74"/>
      <point x="196" y="-3" type="curve"/>
    </contour>
    <contour>
      <point x="96" y="217" type="line"/>
      <point x="114" y="217"/>
      <point x="120" y="217"/>
      <point x="204" y="219" type="curve"/>
      <point x="278" y="217" type="line"/>
      <point x="305" y="217" type="line"/>
      <point x="324" y="244" type="line"/>
      <point x="259" y="246"/>
      <point x="243" y="249"/>
      <point x="243" y="262" type="curve" smooth="yes"/>
      <point x="243" y="275"/>
      <point x="295" y="504"/>
      <point x="313" y="568" type="curve"/>
      <point x="302" y="563"/>
      <point x="300" y="562"/>
      <point x="286" y="555" type="curve" smooth="yes"/>
      <point x="229" y="524"/>
      <point x="216" y="518"/>
      <point x="158" y="494" type="curve"/>
      <point x="181" y="478" type="line"/>
      <point x="204" y="489"/>
      <point x="215" y="493"/>
      <point x="247" y="505" type="curve"/>
      <point x="193" y="270" type="line" smooth="yes"/>
      <point x="188" y="251"/>
      <point x="188" y="250"/>
      <point x="170" y="249" type="curve"/>
      <point x="142" y="246"/>
      <point x="139" y="246"/>
      <point x="135" y="246" type="curve"/>
      <point x="124" y="244" type="line"/>
      <point x="120" y="244" type="line"/>
    </contour>
    <contour>
      <point x="388" y="-10" type="line"/>
      <point x="417" y="20"/>
      <point x="425" y="26"/>
      <point x="439" y="26" type="curve" smooth="yes"/>
      <point x="445" y="26"/>
      <point x="453" y="25"/>
      <point x="462" y="23" type="curve" smooth="yes"/>
      <point x="508" y="12"/>
      <point x="568" y="1"/>
      <point x="578" y="1" type="curve" smooth="yes"/>
      <point x="583" y="1"/>
      <point x="586" y="2"/>
      <point x="594" y="5" type="curve"/>
      <point x="659" y="87" type="line"/>
      <point x="647" y="104" type="line"/>
      <point x="599" y="52"/>
      <point x="593" y="48"/>
      <point x="578" y="48" type="curve" smooth="yes"/>
      <point x="574" y="48"/>
      <point x="570" y="49"/>
      <point x="564" y="50" type="curve" smooth="yes"/>
      <point x="504" y="63"/>
      <point x="494" y="65"/>
      <point x="471" y="67" type="curve"/>
      <point x="487" y="82" type="line"/>
      <point x="538" y="125" type="line" smooth="yes"/>
      <point x="554" y="139"/>
      <point x="580" y="162"/>
      <point x="581" y="162" type="curve"/>
      <point x="617" y="190"/>
      <point x="624" y="198"/>
      <point x="637" y="221" type="curve" smooth="yes"/>
      <point x="650" y="243"/>
      <point x="655" y="261"/>
      <point x="655" y="281" type="curve" smooth="yes"/>
      <point x="655" y="320"/>
      <point x="627" y="346"/>
      <point x="585" y="346" type="curve" smooth="yes"/>
      <point x="515" y="346"/>
      <point x="455" y="301"/>
      <point x="455" y="250" type="curve" smooth="yes"/>
      <point x="455" y="245"/>
      <point x="455" y="242"/>
      <point x="457" y="234" type="curve"/>
      <point x="506" y="228" type="line"/>
      <point x="500" y="249"/>
      <point x="498" y="257"/>
      <point x="498" y="268" type="curve" smooth="yes"/>
      <point x="498" y="296"/>
      <point x="518" y="314"/>
      <point x="550" y="314" type="curve" smooth="yes"/>
      <point x="581" y="314"/>
      <point x="603" y="292"/>
      <point x="603" y="262" type="curve" smooth="yes"/>
      <point x="603" y="223"/>
      <point x="586" y="199"/>
      <point x="510" y="133" type="curve" smooth="yes"/>
      <point x="431" y="65"/>
      <point x="416" y="50"/>
      <point x="385" y="13" type="curve"/>
    </contour>
  </outline>
</glyph>
<glyph name="threequarters" format="1">
  <advance width="660"/>
  <unicode hex="00BE"/>
  <outline>
    <contour>
      <point x="532" y="-9" type="line"/>
      <point x="543" y="-15" type="line"/>
      <point x="550" y="-12"/>
      <point x="556" y="-10"/>
      <point x="558" y="-9" type="curve"/>
      <point x="565" y="-6"/>
      <point x="569" y="-4"/>
      <point x="570" y="-4" type="curve"/>
      <point x="583" y="0" type="line" smooth="yes"/>
      <point x="586" y="1"/>
      <point x="591" y="3"/>
      <point x="599" y="7" type="curve"/>
      <point x="594" y="22"/>
      <point x="592" y="28"/>
      <point x="592" y="37" type="curve" smooth="yes"/>
      <point x="592" y="44"/>
      <point x="596" y="68"/>
      <point x="599" y="80" type="curve" smooth="yes"/>
      <point x="601" y="90" type="line"/>
      <point x="612" y="90" type="line"/>
      <point x="636" y="90" type="line"/>
      <point x="662" y="125" type="line"/>
      <point x="651" y="125"/>
      <point x="646" y="125"/>
      <point x="643" y="126" type="curve"/>
      <point x="633" y="126" type="line"/>
      <point x="619" y="125" type="line"/>
      <point x="610" y="125" type="line"/>
      <point x="618" y="160" type="line" smooth="yes"/>
      <point x="630" y="210"/>
      <point x="633" y="227"/>
      <point x="635" y="236" type="curve" smooth="yes"/>
      <point x="640" y="255"/>
      <point x="644" y="274"/>
      <point x="648" y="293" type="curve"/>
      <point x="649" y="296"/>
      <point x="653" y="313"/>
      <point x="657" y="329" type="curve" smooth="yes"/>
      <point x="663" y="352" type="line"/>
      <point x="656" y="350"/>
      <point x="644" y="344"/>
      <point x="629" y="337" type="curve"/>
      <point x="616" y="330" type="line"/>
      <point x="608" y="321"/>
      <point x="602" y="315"/>
      <point x="601" y="313" type="curve"/>
      <point x="584" y="297"/>
      <point x="568" y="280"/>
      <point x="551" y="263" type="curve"/>
      <point x="544" y="257"/>
      <point x="519" y="228"/>
      <point x="490" y="191" type="curve" smooth="yes"/>
      <point x="445" y="135" type="line" smooth="yes"/>
      <point x="434" y="122"/>
      <point x="428" y="111"/>
      <point x="419" y="90" type="curve"/>
      <point x="426" y="91"/>
      <point x="431" y="91"/>
      <point x="434" y="91" type="curve" smooth="yes"/>
      <point x="436" y="91"/>
      <point x="441" y="91"/>
      <point x="449" y="90" type="curve"/>
      <point x="531" y="90" type="line"/>
      <point x="556" y="90" type="line"/>
    </contour>
    <contour>
      <point x="470" y="125" type="line"/>
      <point x="481" y="141" type="line"/>
      <point x="511" y="178"/>
      <point x="531" y="203"/>
      <point x="563" y="238" type="curve" smooth="yes"/>
      <point x="601" y="281" type="line"/>
      <point x="599" y="272" type="line" smooth="yes"/>
      <point x="595" y="257"/>
      <point x="582" y="200"/>
      <point x="564" y="125" type="curve"/>
    </contour>
    <contour>
      <point x="225" y="-4" type="line"/>
      <point x="248" y="-5" type="line"/>
      <point x="259" y="-5" type="line"/>
      <point x="302" y="75"/>
      <point x="309" y="86"/>
      <point x="388" y="217" type="curve" smooth="yes"/>
      <point x="487" y="384" type="line" smooth="yes"/>
      <point x="552" y="494"/>
      <point x="559" y="506"/>
      <point x="609" y="580" type="curve"/>
      <point x="603" y="581"/>
      <point x="598" y="581"/>
      <point x="596" y="581" type="curve"/>
      <point x="587" y="582"/>
      <point x="582" y="583"/>
      <point x="580" y="583" type="curve" smooth="yes"/>
      <point x="578" y="583"/>
      <point x="572" y="584"/>
      <point x="566" y="585" type="curve"/>
      <point x="527" y="514"/>
      <point x="516" y="495"/>
      <point x="417" y="329" type="curve" smooth="yes"/>
      <point x="272" y="86"/>
      <point x="265" y="74"/>
      <point x="214" y="-3" type="curve"/>
    </contour>
    <contour>
      <point x="79" y="233" type="line"/>
      <point x="112" y="216"/>
      <point x="128" y="212"/>
      <point x="160" y="212" type="curve" smooth="yes"/>
      <point x="256" y="212"/>
      <point x="346" y="288"/>
      <point x="346" y="370" type="curve" smooth="yes"/>
      <point x="346" y="388"/>
      <point x="340" y="402"/>
      <point x="326" y="413" type="curve"/>
      <point x="317" y="421"/>
      <point x="291" y="431"/>
      <point x="281" y="431" type="curve" smooth="yes"/>
      <point x="277" y="431" type="line"/>
      <point x="282" y="435" type="line"/>
      <point x="291" y="441"/>
      <point x="299" y="446"/>
      <point x="323" y="461" type="curve"/>
      <point x="345" y="482"/>
      <point x="353" y="496"/>
      <point x="353" y="516" type="curve" smooth="yes"/>
      <point x="353" y="543"/>
      <point x="328" y="561"/>
      <point x="292" y="561" type="curve" smooth="yes"/>
      <point x="282" y="561"/>
      <point x="273" y="560"/>
      <point x="256" y="556" type="curve"/>
      <point x="235" y="543"/>
      <point x="214" y="529"/>
      <point x="194" y="515" type="curve"/>
      <point x="194" y="495" type="line"/>
      <point x="209" y="504" type="line" smooth="yes"/>
      <point x="236" y="520"/>
      <point x="248" y="524"/>
      <point x="263" y="524" type="curve" smooth="yes"/>
      <point x="284" y="524"/>
      <point x="301" y="510"/>
      <point x="301" y="492" type="curve" smooth="yes"/>
      <point x="301" y="457"/>
      <point x="259" y="427"/>
      <point x="169" y="396" type="curve"/>
      <point x="164" y="374" type="line"/>
      <point x="168" y="375" type="line" smooth="yes"/>
      <point x="208" y="387"/>
      <point x="218" y="389"/>
      <point x="232" y="389" type="curve" smooth="yes"/>
      <point x="269" y="389"/>
      <point x="294" y="368"/>
      <point x="294" y="339" type="curve" smooth="yes"/>
      <point x="294" y="287"/>
      <point x="251" y="244"/>
      <point x="198" y="244" type="curve" smooth="yes"/>
      <point x="173" y="244"/>
      <point x="154" y="249"/>
      <point x="111" y="268" type="curve"/>
    </contour>
  </outline>
</glyph>
<glyph name="questiondown" format="1">
  <advance width="400"/>
  <unicode hex="00BF"/>
  <outline>
    <contour>
      <point x="365" y="284" type="line"/>
      <point x="389" y="304" type="line"/>
      <point x="398" y="311" type="line"/>
      <point x="425" y="332" type="line"/>
      <point x="416" y="356"/>
      <point x="397" y="387"/>
      <point x="378" y="409" type="curve"/>
      <point x="342" y="383"/>
      <point x="332" y="375"/>
      <point x="304" y="347" type="curve"/>
      <point x="307" y="342"/>
      <point x="311" y="336"/>
      <point x="315" y="331" type="curve"/>
      <point x="332" y="305" type="line"/>
      <point x="338" y="294"/>
      <point x="345" y="283"/>
      <point x="351" y="273" type="curve"/>
    </contour>
    <contour>
      <point x="335" y="226" type="line"/>
      <point x="328" y="142"/>
      <point x="312" y="108"/>
      <point x="279" y="109" type="curve"/>
      <point x="209" y="103"/>
      <point x="190" y="98"/>
      <point x="153" y="76" type="curve" smooth="yes"/>
      <point x="95" y="43"/>
      <point x="57" y="-22"/>
      <point x="57" y="-88" type="curve" smooth="yes"/>
      <point x="57" y="-145"/>
      <point x="102" y="-181"/>
      <point x="174" y="-181" type="curve" smooth="yes"/>
      <point x="239" y="-181"/>
      <point x="283" y="-165"/>
      <point x="328" y="-124" type="curve"/>
      <point x="321" y="-100"/>
      <point x="317" y="-91"/>
      <point x="307" y="-63" type="curve"/>
      <point x="277" y="-119"/>
      <point x="238" y="-149"/>
      <point x="195" y="-149" type="curve" smooth="yes"/>
      <point x="162" y="-149"/>
      <point x="139" y="-122"/>
      <point x="139" y="-83" type="curve" smooth="yes"/>
      <point x="139" y="-48"/>
      <point x="154" y="-11"/>
      <point x="179" y="19" type="curve" smooth="yes"/>
      <point x="208" y="52"/>
      <point x="241" y="67"/>
      <point x="287" y="67" type="curve" smooth="yes"/>
      <point x="301" y="67"/>
      <point x="312" y="66"/>
      <point x="334" y="61" type="curve"/>
      <point x="352" y="76" type="line"/>
      <point x="361" y="148"/>
      <point x="363" y="163"/>
      <point x="369" y="237" type="curve"/>
    </contour>
  </outline>
</glyph>
<glyph name="AE" format="1">
  <advance width="740"/>
  <unicode hex="00C6"/>
  <outline>
    <contour>
      <point x="501" y="271" type="line"/>
      <point x="501" y="271"/>
      <point x="588" y="272"/>
      <point x="588" y="272" type="curve"/>
      <point x="599" y="272"/>
      <point x="610" y="272"/>
      <point x="637" y="271" type="curve"/>
      <point x="656" y="282"/>
      <point x="663" y="287"/>
      <point x="679" y="302" type="curve"/>
      <point x="509" y="302" type="line"/>
      <point x="566" y="532" type="line"/>
      <point x="579" y="533"/>
      <point x="592" y="534"/>
      <point x="596" y="534" type="curve" smooth="yes"/>
      <point x="616" y="535"/>
      <point x="630" y="536"/>
      <point x="634" y="536" type="curve"/>
      <point x="649" y="537"/>
      <point x="662" y="538"/>
      <point x="671" y="538" type="curve" smooth="yes"/>
      <point x="709" y="538"/>
      <point x="719" y="523"/>
      <point x="724" y="461" type="curve"/>
      <point x="795" y="528" type="line"/>
      <point x="794" y="553"/>
      <point x="789" y="563"/>
      <point x="776" y="571" type="curve"/>
      <point x="747" y="570"/>
      <point x="743" y="570"/>
      <point x="706" y="569" type="curve" smooth="yes"/>
      <point x="621" y="566"/>
      <point x="575" y="565"/>
      <point x="523" y="565" type="curve" smooth="yes"/>
      <point x="485" y="565"/>
      <point x="484" y="565"/>
      <point x="390" y="571" type="curve"/>
      <point x="377" y="564"/>
      <point x="374" y="562"/>
      <point x="358" y="548" type="curve"/>
      <point x="411" y="541"/>
      <point x="428" y="538"/>
      <point x="468" y="528" type="curve"/>
      <point x="155" y="178" type="line" smooth="yes"/>
      <point x="113" y="128"/>
      <point x="67" y="72"/>
      <point x="32" y="26" type="curve"/>
      <point x="33" y="13"/>
      <point x="34" y="7"/>
      <point x="39" y="-4" type="curve"/>
      <point x="75" y="-3"/>
      <point x="91" y="-1"/>
      <point x="131" y="6" type="curve"/>
      <point x="128" y="22"/>
      <point x="127" y="30"/>
      <point x="127" y="38" type="curve" smooth="yes"/>
      <point x="127" y="64"/>
      <point x="128" y="65"/>
      <point x="178" y="136" type="curve" smooth="yes"/>
      <point x="226" y="203"/>
      <point x="229" y="206"/>
      <point x="281" y="271" type="curve"/>
      <point x="428" y="271" type="line"/>
      <point x="371" y="41" type="line"/>
      <point x="361" y="39"/>
      <point x="354" y="37"/>
      <point x="351" y="36" type="curve"/>
      <point x="340" y="34"/>
      <point x="330" y="33"/>
      <point x="320" y="31" type="curve"/>
      <point x="317" y="30"/>
      <point x="310" y="28"/>
      <point x="300" y="26" type="curve"/>
      <point x="271" y="2" type="line"/>
      <point x="342" y="4"/>
      <point x="378" y="4"/>
      <point x="447" y="4" type="curve" smooth="yes"/>
      <point x="542" y="4"/>
      <point x="542" y="4"/>
      <point x="707" y="2" type="curve"/>
      <point x="731" y="45"/>
      <point x="742" y="65"/>
      <point x="798" y="179" type="curve"/>
      <point x="784" y="205" type="line"/>
      <point x="675" y="45"/>
      <point x="667" y="40"/>
      <point x="505" y="40" type="curve" smooth="yes"/>
      <point x="490" y="40"/>
      <point x="471" y="40"/>
      <point x="444" y="41" type="curve"/>
    </contour>
    <contour>
      <point x="487" y="507" type="line"/>
      <point x="436" y="303" type="line"/>
      <point x="377" y="304"/>
      <point x="355" y="305"/>
      <point x="312" y="308" type="curve"/>
    </contour>
  </outline>
</glyph>
<glyph name="Ccedilla" format="1">
  <advance width="520"/>
  <unicode hex="00C7"/>
  <outline>
    <contour>
      <point x="276" y="-71" type="line"/>
      <point x="352" y="-63"/>
      <point x="459" y="-18"/>
      <point x="522" y="33" type="curve"/>
      <point x="529" y="63" type="line"/>
      <point x="437" y="0"/>
      <point x="369" y="-26"/>
      <point x="299" y="-26" type="curve" smooth="yes"/>
      <point x="220" y="-26"/>
      <point x="170" y="34"/>
      <point x="170" y="129" type="curve" smooth="yes"/>
      <point x="170" y="337"/>
      <point x="317" y="544"/>
      <point x="465" y="544" type="curve" smooth="yes"/>
      <point x="525" y="544"/>
      <point x="555" y="507"/>
      <point x="561" y="428" type="curve"/>
      <point x="635" y="491" type="line"/>
      <point x="626" y="560"/>
      <point x="590" y="591"/>
      <point x="518" y="591" type="curve" smooth="yes"/>
      <point x="431" y="591"/>
      <point x="330" y="540"/>
      <point x="242" y="452" type="curve" smooth="yes"/>
      <point x="145" y="355"/>
      <point x="88" y="222"/>
      <point x="88" y="92" type="curve" smooth="yes"/>
      <point x="88" y="-10"/>
      <point x="142" y="-70"/>
      <point x="237" y="-73" type="curve"/>
      <point x="177" y="-145" type="line"/>
      <point x="198" y="-161"/>
      <point x="204" y="-170"/>
      <point x="204" y="-184" type="curve" smooth="yes"/>
      <point x="204" y="-196"/>
      <point x="198" y="-204"/>
      <point x="177" y="-221" type="curve" smooth="yes"/>
      <point x="154" y="-239"/>
      <point x="143" y="-244"/>
      <point x="114" y="-252" type="curve"/>
      <point x="129" y="-266" type="line"/>
      <point x="214" y="-244"/>
      <point x="266" y="-203"/>
      <point x="266" y="-156" type="curve" smooth="yes"/>
      <point x="266" y="-137"/>
      <point x="257" y="-123"/>
      <point x="242" y="-118" type="curve"/>
    </contour>
  </outline>
</glyph>
<glyph name="Igrave" format="1">
  <advance width="380"/>
  <unicode hex="00CC"/>
  <outline>
    <contour>
      <point x="81" y="0" type="line"/>
      <point x="146" y="1"/>
      <point x="146" y="1"/>
      <point x="160" y="1" type="curve"/>
      <point x="160" y="1"/>
      <point x="316" y="0"/>
      <point x="316" y="0" type="curve"/>
      <point x="352" y="25" type="line"/>
      <point x="259" y="32" type="line"/>
      <point x="278" y="120"/>
      <point x="341" y="370"/>
      <point x="388" y="542" type="curve"/>
      <point x="446" y="548" type="line"/>
      <point x="481" y="573" type="line"/>
      <point x="447" y="573" type="line" smooth="yes"/>
      <point x="345" y="572"/>
      <point x="345" y="572"/>
      <point x="328" y="572" type="curve" smooth="yes"/>
      <point x="312" y="572"/>
      <point x="308" y="572"/>
      <point x="251" y="573" type="curve"/>
      <point x="216" y="548" type="line"/>
      <point x="306" y="542" type="line"/>
      <point x="298" y="505"/>
      <point x="292" y="480"/>
      <point x="291" y="475" type="curve"/>
      <point x="270" y="393" type="line" smooth="yes"/>
      <point x="207" y="146"/>
      <point x="196" y="102"/>
      <point x="191" y="85" type="curve" smooth="yes"/>
      <point x="189" y="79"/>
      <point x="183" y="56"/>
      <point x="176" y="32" type="curve"/>
      <point x="117" y="25" type="line"/>
    </contour>
    <contour>
      <point x="334" y="812" type="line"/>
      <point x="317" y="803" type="line"/>
      <point x="304" y="796" type="line"/>
      <point x="324" y="759"/>
      <point x="341" y="726"/>
      <point x="387" y="625" type="curve"/>
      <point x="397" y="627"/>
      <point x="400" y="628"/>
      <point x="412" y="631" type="curve"/>
      <point x="389" y="710"/>
      <point x="382" y="733"/>
      <point x="350" y="820" type="curve"/>
    </contour>
  </outline>
</glyph>
<glyph name="Icircumflex" format="1">
  <advance width="380"/>
  <unicode hex="00CE"/>
  <outline>
    <contour>
      <point x="81" y="0" type="line"/>
      <point x="146" y="1"/>
      <point x="146" y="1"/>
      <point x="160" y="1" type="curve"/>
      <point x="160" y="1"/>
      <point x="316" y="0"/>
      <point x="316" y="0" type="curve"/>
      <point x="352" y="25" type="line"/>
      <point x="259" y="32" type="line"/>
      <point x="278" y="120"/>
      <point x="341" y="370"/>
      <point x="388" y="542" type="curve"/>
      <point x="446" y="548" type="line"/>
      <point x="481" y="573" type="line"/>
      <point x="447" y="573" type="line" smooth="yes"/>
      <point x="345" y="572"/>
      <point x="345" y="572"/>
      <point x="328" y="572" type="curve" smooth="yes"/>
      <point x="312" y="572"/>
      <point x="308" y="572"/>
      <point x="251" y="573" type="curve"/>
      <point x="216" y="548" type="line"/>
      <point x="306" y="542" type="line"/>
      <point x="298" y="505"/>
      <point x="292" y="480"/>
      <point x="291" y="475" type="curve"/>
      <point x="270" y="393" type="line" smooth="yes"/>
      <point x="207" y="146"/>
      <point x="196" y="102"/>
      <point x="191" y="85" type="curve" smooth="yes"/>
      <point x="189" y="79"/>
      <point x="183" y="56"/>
      <point x="176" y="32" type="curve"/>
      <point x="117" y="25" type="line"/>
    </contour>
    <contour>
      <point x="276" y="634" type="line"/>
      <point x="277" y="625" type="line"/>
      <point x="358" y="699" type="line" smooth="yes"/>
      <point x="383" y="721"/>
      <point x="398" y="733"/>
      <point x="431" y="759" type="curve"/>
      <point x="442" y="695" type="line"/>
      <point x="448" y="648" type="line" smooth="yes"/>
      <point x="449" y="642"/>
      <point x="450" y="636"/>
      <point x="451" y="625" type="curve"/>
      <point x="470" y="636"/>
      <point x="474" y="639"/>
      <point x="487" y="645" type="curve"/>
      <point x="479" y="734" type="line" smooth="yes"/>
      <point x="478" y="745"/>
      <point x="477" y="766"/>
      <point x="473" y="819" type="curve"/>
      <point x="468" y="820"/>
      <point x="463" y="821"/>
      <point x="460" y="821" type="curve" smooth="yes"/>
      <point x="458" y="821"/>
      <point x="454" y="820"/>
      <point x="446" y="819" type="curve"/>
      <point x="402" y="781"/>
      <point x="381" y="762"/>
      <point x="273" y="653" type="curve"/>
      <point x="274" y="649"/>
      <point x="275" y="645"/>
      <point x="275" y="644" type="curve"/>
    </contour>
  </outline>
</glyph>
<glyph name="Ntilde" format="1">
  <advance width="700"/>
  <unicode hex="00D1"/>
  <outline>
    <contour>
      <point x="40" y="0" type="line"/>
      <point x="67" y="-2"/>
      <point x="81" y="-3"/>
      <point x="95" y="-3" type="curve" smooth="yes"/>
      <point x="138" y="-3"/>
      <point x="165" y="3"/>
      <point x="191" y="19" type="curve" smooth="yes"/>
      <point x="240" y="48"/>
      <point x="290" y="120"/>
      <point x="322" y="204" type="curve" smooth="yes"/>
      <point x="338" y="247"/>
      <point x="344" y="269"/>
      <point x="387" y="442" type="curve"/>
      <point x="424" y="287" type="line" smooth="yes"/>
      <point x="453" y="163"/>
      <point x="477" y="90"/>
      <point x="511" y="22" type="curve" smooth="yes"/>
      <point x="572" y="-102"/>
      <point x="660" y="-163"/>
      <point x="778" y="-163" type="curve" smooth="yes"/>
      <point x="829" y="-163"/>
      <point x="865" y="-154"/>
      <point x="910" y="-128" type="curve"/>
      <point x="886" y="-39" type="line"/>
      <point x="872" y="-72"/>
      <point x="865" y="-86"/>
      <point x="852" y="-101" type="curve" smooth="yes"/>
      <point x="834" y="-123"/>
      <point x="809" y="-136"/>
      <point x="784" y="-136" type="curve" smooth="yes"/>
      <point x="721" y="-136"/>
      <point x="663" y="-87"/>
      <point x="612" y="10" type="curve"/>
      <point x="629" y="96"/>
      <point x="638" y="135"/>
      <point x="663" y="240" type="curve" smooth="yes"/>
      <point x="706" y="414"/>
      <point x="728" y="486"/>
      <point x="760" y="552" type="curve" smooth="yes"/>
      <point x="781" y="594"/>
      <point x="805" y="610"/>
      <point x="851" y="610" type="curve" smooth="yes"/>
      <point x="858" y="610"/>
      <point x="864" y="610"/>
      <point x="878" y="608" type="curve"/>
      <point x="915" y="675" type="line"/>
      <point x="903" y="676"/>
      <point x="892" y="677"/>
      <point x="884" y="677" type="curve" smooth="yes"/>
      <point x="842" y="677"/>
      <point x="797" y="648"/>
      <point x="745" y="587" type="curve" smooth="yes"/>
      <point x="697" y="531"/>
      <point x="679" y="480"/>
      <point x="630" y="264" type="curve" smooth="yes"/>
      <point x="620" y="217"/>
      <point x="609" y="170"/>
      <point x="598" y="122" type="curve" smooth="yes"/>
      <point x="597" y="117"/>
      <point x="592" y="96"/>
      <point x="583" y="65" type="curve"/>
      <point x="535" y="161"/>
      <point x="522" y="200"/>
      <point x="416" y="596" type="curve"/>
      <point x="382" y="565" type="line"/>
      <point x="358" y="567"/>
      <point x="345" y="568"/>
      <point x="327" y="568" type="curve" smooth="yes"/>
      <point x="267" y="568"/>
      <point x="231" y="557"/>
      <point x="195" y="529" type="curve" smooth="yes"/>
      <point x="131" y="479"/>
      <point x="87" y="407"/>
      <point x="87" y="352" type="curve" smooth="yes"/>
      <point x="87" y="327"/>
      <point x="94" y="301"/>
      <point x="112" y="264" type="curve"/>
      <point x="181" y="311" type="line"/>
      <point x="156" y="364"/>
      <point x="149" y="387"/>
      <point x="149" y="412" type="curve" smooth="yes"/>
      <point x="149" y="442"/>
      <point x="166" y="469"/>
      <point x="194" y="484" type="curve" smooth="yes"/>
      <point x="218" y="497"/>
      <point x="242" y="501"/>
      <point x="287" y="501" type="curve" smooth="yes"/>
      <point x="308" y="501"/>
      <point x="326" y="501"/>
      <point x="364" y="499" type="curve"/>
      <point x="317" y="298"/>
      <point x="279" y="172"/>
      <point x="246" y="113" type="curve" smooth="yes"/>
      <point x="225" y="76"/>
      <point x="203" y="65"/>
      <point x="150" y="65" type="curve" smooth="yes"/>
      <point x="131" y="65"/>
      <point x="116" y="66"/>
      <point x="88" y="69" type="curve"/>
    </contour>
    <contour>
      <point x="466" y="655" type="line"/>
      <point x="503" y="703"/>
      <point x="518" y="715"/>
      <point x="543" y="715" type="curve" smooth="yes"/>
      <point x="557" y="715"/>
      <point x="573" y="710"/>
      <point x="593" y="698" type="curve" smooth="yes"/>
      <point x="643" y="670"/>
      <point x="655" y="665"/>
      <point x="678" y="665" type="curve" smooth="yes"/>
      <point x="709" y="665"/>
      <point x="729" y="681"/>
      <point x="783" y="748" type="curve"/>
      <point x="773" y="765" type="line"/>
      <point x="768" y="761"/>
      <point x="763" y="757"/>
      <point x="759" y="752" type="curve"/>
      <point x="732" y="727"/>
      <point x="708" y="715"/>
      <point x="685" y="715" type="curve" smooth="yes"/>
      <point x="671" y="715"/>
      <point x="649" y="722"/>
      <point x="626" y="735" type="curve" smooth="yes"/>
      <point x="588" y="757"/>
      <point x="579" y="760"/>
      <point x="558" y="760" type="curve" smooth="yes"/>
      <point x="526" y="760"/>
      <point x="502" y="740"/>
      <point x="453" y="673" type="curve"/>
    </contour>
  </outline>
</glyph>
<glyph name="Ograve" format="1">
  <advance width="600"/>
  <unicode hex="00D2"/>
  <outline>
    <contour>
      <point x="487" y="591" type="curve" smooth="yes"/>
      <point x="404" y="591"/>
      <point x="298" y="549"/>
      <point x="229" y="490" type="curve" smooth="yes"/>
      <point x="149" y="420"/>
      <point x="104" y="309"/>
      <point x="104" y="183" type="curve" smooth="yes"/>
      <point x="104" y="55"/>
      <point x="163" y="-13"/>
      <point x="274" y="-13" type="curve" smooth="yes"/>
      <point x="365" y="-13"/>
      <point x="465" y="30"/>
      <point x="540" y="102" type="curve" smooth="yes"/>
      <point x="612" y="172"/>
      <point x="652" y="276"/>
      <point x="652" y="396" type="curve" smooth="yes"/>
      <point x="652" y="522"/>
      <point x="594" y="591"/>
    </contour>
    <contour>
      <point x="429" y="552" type="curve" smooth="yes"/>
      <point x="518" y="552"/>
      <point x="570" y="482"/>
      <point x="570" y="366" type="curve" smooth="yes"/>
      <point x="570" y="290"/>
      <point x="549" y="204"/>
      <point x="517" y="147" type="curve" smooth="yes"/>
      <point x="474" y="71"/>
      <point x="406" y="27"/>
      <point x="332" y="27" type="curve" smooth="yes"/>
      <point x="240" y="27"/>
      <point x="186" y="99"/>
      <point x="186" y="222" type="curve" smooth="yes"/>
      <point x="186" y="407"/>
      <point x="293" y="552"/>
    </contour>
    <contour>
      <point x="426" y="812" type="line"/>
      <point x="409" y="803" type="line"/>
      <point x="396" y="796" type="line"/>
      <point x="416" y="759"/>
      <point x="433" y="726"/>
      <point x="479" y="625" type="curve"/>
      <point x="489" y="627"/>
      <point x="492" y="628"/>
      <point x="504" y="631" type="curve"/>
      <point x="481" y="710"/>
      <point x="474" y="733"/>
      <point x="442" y="820" type="curve"/>
    </contour>
  </outline>
</glyph>
<glyph name="Oacute" format="1">
  <advance width="600"/>
  <unicode hex="00D3"/>
  <outline>
    <contour>
      <point x="487" y="591" type="curve" smooth="yes"/>
      <point x="404" y="591"/>
      <point x="298" y="549"/>
      <point x="229" y="490" type="curve" smooth="yes"/>
      <point x="149" y="420"/>
      <point x="104" y="309"/>
      <point x="104" y="183" type="curve" smooth="yes"/>
      <point x="104" y="55"/>
      <point x="163" y="-13"/>
      <point x="274" y="-13" type="curve" smooth="yes"/>
      <point x="365" y="-13"/>
      <point x="465" y="30"/>
      <point x="540" y="102" type="curve" smooth="yes"/>
      <point x="612" y="172"/>
      <point x="652" y="276"/>
      <point x="652" y="396" type="curve" smooth="yes"/>
      <point x="652" y="522"/>
      <point x="594" y="591"/>
    </contour>
    <contour>
      <point x="429" y="552" type="curve" smooth="yes"/>
      <point x="518" y="552"/>
      <point x="570" y="482"/>
      <point x="570" y="366" type="curve" smooth="yes"/>
      <point x="570" y="290"/>
      <point x="549" y="204"/>
      <point x="517" y="147" type="curve" smooth="yes"/>
      <point x="474" y="71"/>
      <point x="406" y="27"/>
      <point x="332" y="27" type="curve" smooth="yes"/>
      <point x="240" y="27"/>
      <point x="186" y="99"/>
      <point x="186" y="222" type="curve" smooth="yes"/>
      <point x="186" y="407"/>
      <point x="293" y="552"/>
    </contour>
    <contour>
      <point x="433" y="625" type="line"/>
      <point x="495" y="698"/>
      <point x="515" y="720"/>
      <point x="592" y="799" type="curve"/>
      <point x="547" y="820" type="line"/>
      <point x="489" y="739"/>
      <point x="443" y="676"/>
      <point x="409" y="632" type="curve"/>
    </contour>
  </outline>
</glyph>
<glyph name="Ocircumflex" format="1">
  <advance width="600"/>
  <unicode hex="00D4"/>
  <outline>
    <contour>
      <point x="487" y="591" type="curve" smooth="yes"/>
      <point x="404" y="591"/>
      <point x="298" y="549"/>
      <point x="229" y="490" type="curve" smooth="yes"/>
      <point x="149" y="420"/>
      <point x="104" y="309"/>
      <point x="104" y="183" type="curve" smooth="yes"/>
      <point x="104" y="55"/>
      <point x="163" y="-13"/>
      <point x="274" y="-13" type="curve" smooth="yes"/>
      <point x="365" y="-13"/>
      <point x="465" y="30"/>
      <point x="540" y="102" type="curve" smooth="yes"/>
      <point x="612" y="172"/>
      <point x="652" y="276"/>
      <point x="652" y="396" type="curve" smooth="yes"/>
      <point x="652" y="522"/>
      <point x="594" y="591"/>
    </contour>
    <contour>
      <point x="429" y="552" type="curve" smooth="yes"/>
      <point x="518" y="552"/>
      <point x="570" y="482"/>
      <point x="570" y="366" type="curve" smooth="yes"/>
      <point x="570" y="290"/>
      <point x="549" y="204"/>
      <point x="517" y="147" type="curve" smooth="yes"/>
      <point x="474" y="71"/>
      <point x="406" y="27"/>
      <point x="332" y="27" type="curve" smooth="yes"/>
      <point x="240" y="27"/>
      <point x="186" y="99"/>
      <point x="186" y="222" type="curve" smooth="yes"/>
      <point x="186" y="407"/>
      <point x="293" y="552"/>
    </contour>
    <contour>
      <point x="362" y="634" type="line"/>
      <point x="363" y="625" type="line"/>
      <point x="444" y="699" type="line" smooth="yes"/>
      <point x="469" y="721"/>
      <point x="484" y="733"/>
      <point x="517" y="759" type="curve"/>
      <point x="528" y="695" type="line"/>
      <point x="534" y="648" type="line" smooth="yes"/>
      <point x="535" y="642"/>
      <point x="536" y="636"/>
      <point x="537" y="625" type="curve"/>
      <point x="556" y="636"/>
      <point x="560" y="639"/>
      <point x="573" y="645" type="curve"/>
      <point x="565" y="734" type="line" smooth="yes"/>
      <point x="564" y="745"/>
      <point x="563" y="766"/>
      <point x="559" y="819" type="curve"/>
      <point x="554" y="820"/>
      <point x="549" y="821"/>
      <point x="546" y="821" type="curve" smooth="yes"/>
      <point x="544" y="821"/>
      <point x="540" y="820"/>
      <point x="532" y="819" type="curve"/>
      <point x="488" y="781"/>
      <point x="467" y="762"/>
      <point x="359" y="653" type="curve"/>
      <point x="360" y="649"/>
      <point x="361" y="645"/>
      <point x="361" y="644" type="curve"/>
    </contour>
  </outline>
</glyph>
<glyph name="Otilde" format="1">
  <advance width="600"/>
  <unicode hex="00D5"/>
  <outline>
    <contour>
      <point x="487" y="591" type="curve" smooth="yes"/>
      <point x="404" y="591"/>
      <point x="298" y="549"/>
      <point x="229" y="490" type="curve" smooth="yes"/>
      <point x="149" y="420"/>
      <point x="104" y="309"/>
      <point x="104" y="183" type="curve" smooth="yes"/>
      <point x="104" y="55"/>
      <point x="163" y="-13"/>
      <point x="274" y="-13" type="curve" smooth="yes"/>
      <point x="365" y="-13"/>
      <point x="465" y="30"/>
      <point x="540" y="102" type="curve" smooth="yes"/>
      <point x="612" y="172"/>
      <point x="652" y="276"/>
      <point x="652" y="396" type="curve" smooth="yes"/>
      <point x="652" y="522"/>
      <point x="594" y="591"/>
    </contour>
    <contour>
      <point x="429" y="552" type="curve" smooth="yes"/>
      <point x="518" y="552"/>
      <point x="570" y="482"/>
      <point x="570" y="366" type="curve" smooth="yes"/>
      <point x="570" y="290"/>
      <point x="549" y="204"/>
      <point x="517" y="147" type="curve" smooth="yes"/>
      <point x="474" y="71"/>
      <point x="406" y="27"/>
      <point x="332" y="27" type="curve" smooth="yes"/>
      <point x="240" y="27"/>
      <point x="186" y="99"/>
      <point x="186" y="222" type="curve" smooth="yes"/>
      <point x="186" y="407"/>
      <point x="293" y="552"/>
    </contour>
    <contour>
      <point x="361" y="655" type="line"/>
      <point x="398" y="703"/>
      <point x="413" y="715"/>
      <point x="438" y="715" type="curve" smooth="yes"/>
      <point x="452" y="715"/>
      <point x="468" y="710"/>
      <point x="488" y="698" type="curve" smooth="yes"/>
      <point x="538" y="670"/>
      <point x="550" y="665"/>
      <point x="573" y="665" type="curve" smooth="yes"/>
      <point x="604" y="665"/>
      <point x="624" y="681"/>
      <point x="678" y="748" type="curve"/>
      <point x="668" y="765" type="line"/>
      <point x="663" y="761"/>
      <point x="658" y="757"/>
      <point x="654" y="752" type="curve"/>
      <point x="627" y="727"/>
      <point x="603" y="715"/>
      <point x="580" y="715" type="curve" smooth="yes"/>
      <point x="566" y="715"/>
      <point x="544" y="722"/>
      <point x="521" y="735" type="curve" smooth="yes"/>
      <point x="483" y="757"/>
      <point x="474" y="760"/>
      <point x="453" y="760" type="curve" smooth="yes"/>
      <point x="421" y="760"/>
      <point x="397" y="740"/>
      <point x="348" y="673" type="curve"/>
    </contour>
  </outline>
</glyph>
